<?xml version="1.0" encoding="UTF-8"?>
<svg width="200px" height="212px" viewBox="0 0 200 212" version="1.1" xmlns="http://www.w3.org/2000/svg" xmlns:xlink="http://www.w3.org/1999/xlink">
    <title>4_pantalon_cintura_ajustable_yale</title>
    <g id="4_pantalon_cintura_ajustable_yale" stroke="none" stroke-width="1" fill="none" fill-rule="evenodd">
        <g id="cintura-ajustable-yale" transform="translate(30, 42)" fill-rule="nonzero">
            <path d="M14.5706804,36.0042877 C14.5706804,36.0042877 -3.23931961,84.9542877 0.890680389,98.7542877 C5.04068039,112.554288 9.89068039,127.124288 9.89068039,127.124288 L137.44068,127.124288 L140.26068,25.4842877" id="Path" fill="#FFFFFF"></path>
            <path d="M137.68068,127.384288 L9.69068039,127.384288 L9.63068039,127.214288 C9.58068039,127.064288 4.73068039,112.474288 0.640680389,98.8342877 C-3.47931961,85.1042877 13.5906804,37.9242877 14.3306804,35.9142877 L14.8106804,36.0842877 C14.6306804,36.5742877 -2.92931961,85.1142877 1.14068039,98.6742877 C4.98068039,111.494288 9.50068039,125.154288 10.0606804,126.854288 L137.17068,126.854288 L139.98068,25.4642877 L140.50068,25.4842877 L137.67068,127.384288 L137.68068,127.384288 Z" id="Path" fill="#020202"></path>
            <path d="M138.37068,8.97428769 C138.37068,8.97428769 98.8606804,47.0142877 14.6906804,9.75428769 C14.6906804,9.75428769 56.2706804,-10.7857123 139.83068,8.49428769" id="Path" fill="#FFFFFF"></path>
            <path d="M83.0606804,26.2042877 C65.3306804,26.2042877 42.4706804,22.3342877 14.5906804,9.98428769 L14.0806804,9.76428769 L14.5806804,9.52428769 C14.6806804,9.46428769 25.2506804,4.33428769 45.9006804,1.63428769 C64.9306804,-0.855712311 96.6906804,-1.73571231 139.89068,8.24428769 L139.77068,8.74428769 C139.20068,8.61428769 139.97068,8.74428769 139.40068,8.60428769 L139.03068,8.58428769 C138.94068,8.68428769 128.26068,18.4142877 108.07068,23.3442877 C101.37068,24.9842877 93.0306804,26.2042877 83.0706804,26.2042877 M15.3206804,9.75428769 C58.4406804,28.7142877 89.4606804,27.3542877 107.91068,22.8542877 C127.43068,18.0942877 137.95068,8.99428769 138.55068,8.42428769 C96.3406804,-1.09571231 64.6906804,-0.305712311 45.9606804,2.15428769 C27.9406804,4.51428769 17.6606804,8.71428769 15.3206804,9.75428769" id="Shape" fill="#020202"></path>
            <path d="M140.25068,36.6342877 C137.83068,36.6342877 80.8306804,58.2842877 14.5606804,35.9342877 L14.6806804,9.68428769 C80.7406804,34.5242877 139.82068,8.42428769 139.82068,8.42428769 C139.82068,12.8342877 140.25068,36.6342877 140.25068,36.6342877" id="Path" fill="#FFFFFF"></path>
            <path d="M84.3806804,15.0442877 C81.9606804,15.0442877 79.4106804,14.9042877 76.6906804,14.6442877 L76.7106804,14.4542877 C85.8206804,15.3442877 92.9506804,14.7642877 99.8406804,12.5642877 L99.9006804,12.7542877 C95.0506804,14.3042877 90.0806804,15.0542877 84.3906804,15.0542877 L84.3806804,15.0442877 Z" id="Path" fill="#020202"></path>
            <path d="M77.2506804,46.3842877 C55.5406804,46.3842877 34.4206804,42.9742877 14.4806804,36.2542877 L14.3006804,36.1942877 L14.4306804,9.39428769 L14.7806804,9.52428769 C33.6706804,16.6242877 53.8206804,20.2342877 74.6706804,20.2342877 C112.22068,20.2342877 139.45068,8.39428769 139.72068,8.27428769 L140.09068,8.11428769 L140.09068,8.51428769 C140.09068,12.8742877 140.51068,36.4842877 140.51068,36.7242877 L140.51068,36.9842877 C140.51068,36.9842877 140.26068,36.9842877 140.26068,36.9842877 C140.02068,36.9842877 138.93068,37.2942877 137.42068,37.7342877 C129.93068,39.8742877 107.11068,46.4042877 77.2606804,46.4042877 M14.8306804,35.8142877 C34.6606804,42.4742877 55.6606804,45.8642877 77.2606804,45.8642877 C107.04068,45.8642877 129.80068,39.3442877 137.28068,37.2142877 C138.77068,36.7842877 139.58068,36.5542877 139.99068,36.4842877 C139.95068,34.0742877 139.58068,13.8242877 139.57068,8.88428769 C136.21068,10.2842877 109.98068,20.7342877 74.6706804,20.7342877 C53.8906804,20.7342877 33.8006804,17.1642877 14.9506804,10.1342877 L14.8306804,35.8242877 L14.8306804,35.8142877 Z" id="Shape" fill="#020202"></path>
            <polygon id="Path" fill="#020202" points="76.6106804 127.134288 75.9606804 127.134288 77.4106804 46.1842877 77.9206804 46.1242877"></polygon>
            <rect id="Rectangle" fill="#020202" transform="translate(98.1617, 45.6737) rotate(-74.54) translate(-98.1617, -45.6737)" x="97.5116856" y="45.4186842" width="1.3" height="1"></rect>
            <path d="M78.0806804,116.464288 L77.5806804,116.324288 L78.3006804,113.814288 L78.8006804,113.954288 L78.0906804,116.454288 L78.0806804,116.464288 Z M79.5206804,111.454288 L79.0206804,111.314288 L79.7406804,108.804288 L80.2406804,108.954288 L79.5206804,111.454288 L79.5206804,111.454288 Z M80.9606804,106.454288 L80.4606804,106.314288 L81.1806804,103.814288 L81.6806804,103.964288 L80.9606804,106.464288 L80.9606804,106.454288 Z M82.4006804,101.444288 L81.9006804,101.304288 L82.6206804,98.8042877 L83.1206804,98.9442877 L82.4006804,101.444288 Z M83.8306804,96.4342877 L83.3306804,96.2942877 L84.0506804,93.7842877 L84.5506804,93.9342877 L83.8306804,96.4342877 L83.8306804,96.4342877 Z M85.2806804,91.4342877 L84.7806804,91.2842877 L85.4906804,88.7842877 L85.9906804,88.9242877 L85.2706804,91.4242877 L85.2806804,91.4342877 Z M86.7206804,86.4242877 L86.2206804,86.2842877 L86.9406804,83.7742877 L87.4406804,83.9242877 L86.7206804,86.4242877 Z M88.1606804,81.4242877 L87.6506804,81.2742877 L88.3706804,78.7742877 L88.8706804,78.9242877 L88.1506804,81.4242877 L88.1606804,81.4242877 Z M89.6006804,76.4142877 L89.0906804,76.2742877 L89.8106804,73.7742877 L90.3106804,73.9142877 L89.6006804,76.4142877 Z M91.0406804,71.4042877 L90.5406804,71.2642877 L91.2606804,68.7642877 L91.7606804,68.9142877 L91.0406804,71.4142877 L91.0406804,71.4042877 Z M92.4706804,66.3942877 L91.9806804,66.2542877 L92.7006804,63.7542877 L93.1906804,63.9042877 L92.4706804,66.4042877 L92.4706804,66.3942877 Z M93.9206804,61.3942877 L93.4206804,61.2542877 L94.1406804,58.7442877 L94.6306804,58.8942877 L93.9106804,61.3942877 L93.9206804,61.3942877 Z M95.3606804,56.3842877 L94.8606804,56.2342877 L95.5806804,53.7342877 L96.0806804,53.8742877 L95.3606804,56.3842877 Z M96.7906804,51.3742877 L96.3006804,51.2342877 L97.0206804,48.7342877 L97.5206804,48.8742877 L96.7906804,51.3742877 Z" id="Shape" fill="#020202"></path>
            <rect id="Rectangle" fill="#020202" transform="translate(76.9421, 119.5352) rotate(-73.87) translate(-76.9421, -119.5352)" x="76.292078" y="119.275189" width="1.3" height="1"></rect>
            <path d="M36.3706804,81.0042877 L2.15068039,80.1442877 L2.15068039,76.4642877 L36.3706804,77.3242877 L36.3706804,81.0142877 L36.3706804,81.0042877 Z M2.67068039,79.6342877 L35.8506804,80.4642877 L35.8506804,77.8142877 L2.67068039,76.9842877 L2.67068039,79.6342877 Z" id="Shape" fill="#020202"></path>
            <path d="M2.71068039,83.2942877 L2.71068039,82.7742877 C2.71068039,82.7742877 5.29068039,82.7642877 5.29068039,82.7642877 L5.29068039,83.2842877 C5.29068039,83.2842877 2.71068039,83.2942877 2.71068039,83.2942877 Z M7.88068039,83.2542877 L7.88068039,82.7342877 L10.4706804,82.7342877 C10.4706804,82.7342877 10.4706804,83.2442877 10.4706804,83.2442877 L7.88068039,83.2442877 L7.88068039,83.2542877 Z M13.0506804,83.2242877 L13.0506804,82.7042877 L15.6406804,82.7042877 C15.6406804,82.7042877 15.6406804,83.2042877 15.6406804,83.2042877 L13.0506804,83.2042877 L13.0506804,83.2242877 Z M18.2306804,83.1942877 L18.2306804,82.6742877 C18.2306804,82.6742877 20.8106804,82.6542877 20.8106804,82.6542877 L20.8106804,83.1742877 L18.2306804,83.1942877 Z M23.4006804,83.1642877 L23.4006804,82.6442877 L25.9906804,82.6442877 C25.9906804,82.6442877 25.9906804,83.1442877 25.9906804,83.1442877 L23.4006804,83.1642877 Z M28.5806804,83.1342877 L28.5806804,82.6142877 C28.5806804,82.6142877 31.1606804,82.5942877 31.1606804,82.5942877 L31.1606804,83.1142877 C31.1606804,83.1142877 28.5806804,83.1242877 28.5806804,83.1242877 L28.5806804,83.1342877 Z M33.7506804,83.1042877 L33.7506804,82.5842877 C33.7506804,82.5842877 36.3306804,82.5742877 36.3306804,82.5742877 L36.3306804,83.0942877 L33.7506804,83.0942877 L33.7506804,83.1042877 Z" id="Shape" fill="#020202"></path>
            <path d="M35.3806804,75.1642877 L34.9106804,75.1642877 L34.9106804,74.6442877 L35.3806804,74.6442877 L35.3806804,75.1642877 Z M32.3306804,75.1642877 L29.7506804,75.1642877 L29.7506804,74.6442877 L32.3306804,74.6442877 L32.3306804,75.1642877 Z M27.1506804,75.1642877 L24.5606804,75.1642877 L24.5606804,74.6442877 L27.1506804,74.6442877 L27.1506804,75.1642877 Z M21.9706804,75.1642877 L19.3906804,75.1642877 L19.3906804,74.6442877 L21.9706804,74.6442877 L21.9706804,75.1642877 Z M16.8106804,75.1642877 L14.2206804,75.1642877 L14.2206804,74.6442877 L16.8106804,74.6442877 L16.8106804,75.1642877 Z M11.6306804,75.1642877 L9.04068039,75.1642877 L9.04068039,74.6442877 L11.6306804,74.6442877 L11.6306804,75.1642877 L11.6306804,75.1642877 Z M6.46068039,75.1642877 L3.87068039,75.1642877 L3.87068039,74.6442877 L6.46068039,74.6442877 L6.46068039,75.1642877 Z" id="Shape" fill="#020202"></path>
            <path d="M19.0406804,89.2642877 C19.0406804,90.8842877 17.5906804,92.2542877 15.8006804,92.2542877 C14.0106804,92.2542877 12.5506804,90.8842877 12.5506804,89.2642877 C12.5506804,87.6442877 13.9906804,86.2642877 15.8006804,86.2642877 C17.6106804,86.2642877 19.0406804,87.6342877 19.0406804,89.2642877" id="Path" fill="#020202"></path>
            <path d="M15.2706804,88.1442877 C15.2706804,88.4142877 15.0206804,88.6542877 14.7606804,88.6542877 C14.5006804,88.6542877 14.2406804,88.4142877 14.2406804,88.1442877 C14.2406804,87.8942877 14.5106804,87.6342877 14.7606804,87.6342877 C15.0106804,87.6342877 15.2706804,87.8942877 15.2706804,88.1442877" id="Path" fill="#727070"></path>
            <path d="M17.5806804,88.1442877 C17.5806804,88.4142877 17.3206804,88.6542877 17.0706804,88.6542877 C16.8006804,88.6542877 16.6406804,88.4142877 16.6406804,88.1442877 C16.6406804,87.8942877 16.8106804,87.6342877 17.0706804,87.6342877 C17.3306804,87.6342877 17.5806804,87.8942877 17.5806804,88.1442877" id="Path" fill="#727070"></path>
            <path d="M17.6706804,90.2942877 C17.6706804,90.5342877 17.4106804,90.8042877 17.1706804,90.8042877 C16.9106804,90.8042877 16.6506804,90.5442877 16.6506804,90.2942877 C16.6506804,90.0342877 16.9106804,89.7842877 17.1706804,89.7842877 C17.4206804,89.7842877 17.6706804,90.0442877 17.6706804,90.2942877" id="Path" fill="#727070"></path>
            <path d="M15.2706804,90.2942877 C15.2706804,90.5342877 15.0206804,90.8042877 14.7606804,90.8042877 C14.5006804,90.8042877 14.3306804,90.5442877 14.3306804,90.2942877 C14.3306804,90.0342877 14.5106804,89.7842877 14.7606804,89.7842877 C15.0106804,89.7842877 15.2706804,90.0442877 15.2706804,90.2942877" id="Path" fill="#727070"></path>
            <path d="M15.7606804,92.2442877 C13.9306804,92.2442877 12.4406804,90.8742877 12.4406804,89.1842877 C12.4406804,87.4942877 13.9306804,86.1242877 15.7606804,86.1242877 C17.5906804,86.1242877 19.0706804,87.4942877 19.0706804,89.1842877 C19.0706804,90.8742877 17.5806804,92.2442877 15.7606804,92.2442877 M15.7606804,86.2542877 C14.0006804,86.2542877 12.5806804,87.5742877 12.5806804,89.1842877 C12.5806804,90.7942877 14.0106804,92.1142877 15.7606804,92.1142877 C17.5106804,92.1142877 18.9506804,90.8042877 18.9506804,89.1842877 C18.9506804,87.5642877 17.5206804,86.2542877 15.7606804,86.2542877" id="Shape" fill="#4C4644"></path>
            <path d="M16.4406804,89.0642877 C16.7906804,88.6742877 17.2106804,88.1542877 17.2106804,88.1542877 L16.7806804,87.7242877 C16.7806804,87.7242877 16.5106804,88.2242877 16.0906804,88.6842877 C15.6906804,88.3842877 14.8306804,87.7242877 14.8306804,87.7242877 L14.5606804,88.1542877 C14.5606804,88.1542877 15.2106804,88.5942877 15.7306804,89.0642877 C15.2106804,89.6442877 14.4906804,90.1342877 14.4906804,90.1342877 L14.8406804,90.4742877 C14.8406804,90.4742877 15.8606804,89.7942877 16.1106804,89.4542877 C16.1106804,89.4542877 16.1106804,89.4442877 16.1106804,89.4442877 C16.5806804,89.9042877 16.9506804,90.3942877 16.9506804,90.3942877 L17.3806804,90.0642877 C17.3806804,90.0642877 16.8106804,89.4842877 16.4406804,89.0742877" id="Path" fill="#818987"></path>
            <rect id="Rectangle" fill="#FFFFFF" transform="translate(36.0733, 28.826) rotate(-84.71) translate(-36.0733, -28.826)" x="19.8432954" y="25.7210394" width="32.46" height="6.21"></rect>
            <path d="M37.9106804,45.5542877 L31.2006804,44.9342877 L34.2406804,12.0942877 L40.9406804,12.7142877 L37.9106804,45.5642877 L37.9106804,45.5542877 Z M31.7806804,44.4642877 L37.4506804,44.9942877 L40.3906804,13.1842877 L34.7206804,12.6542877 L31.7806804,44.4642877 L31.7806804,44.4642877 Z" id="Shape" fill="#020202"></path>
            <polygon id="Path" fill="#020202" points="76.6106804 109.194288 76.2506804 108.444288 94.3406804 45.5542877 95.0406804 45.3442877"></polygon>
            <rect id="Rectangle" fill="#020202" x="94.9106804" y="19.5142877" width="1" height="26.05"></rect>
            <rect id="Rectangle" fill="#020202" x="96.2606804" y="19.3442877" width="1" height="26.05"></rect>
            <rect id="Rectangle" fill="#020202" x="97.3906804" y="19.1942877" width="1" height="26.05"></rect>
            <rect id="Rectangle" fill="#020202" x="98.7406804" y="19.0242877" width="1" height="26.05"></rect>
            <rect id="Rectangle" fill="#020202" x="80.0206804" y="20.3242877" width="1" height="25.53"></rect>
            <rect id="Rectangle" fill="#020202" x="81.7106804" y="20.3042877" width="1" height="25.54"></rect>
            <rect id="Rectangle" fill="#020202" x="83.4506804" y="20.3342877" width="1" height="25.54"></rect>
            <rect id="Rectangle" fill="#020202" x="84.9206804" y="20.3342877" width="1" height="25.54"></rect>
            <rect id="Rectangle" fill="#020202" x="86.3506804" y="20.0442877" width="1" height="26.09"></rect>
            <rect id="Rectangle" fill="#020202" x="87.8006804" y="20.0442877" width="1" height="26.09"></rect>
            <rect id="Rectangle" fill="#020202" x="89.0806804" y="19.8942877" width="1" height="26.09"></rect>
            <polygon id="Path" fill="#020202" points="90.7906804 45.6942877 90.5306804 45.6942877 90.5606804 19.9042877 90.8206804 19.9042877"></polygon>
            <rect id="Rectangle" fill="#020202" x="91.9506804" y="19.6642877" width="1" height="25.95"></rect>
            <rect id="Rectangle" fill="#020202" x="93.4106804" y="19.6642877" width="1" height="25.95"></rect>
            <path d="M78.2906804,20.4242877 L78.2906804,22.9542877 C78.2906804,22.9542877 87.8206804,23.0742877 100.68068,21.1642877 C100.32068,18.9042877 100.68068,18.5542877 100.68068,18.5542877 C100.68068,18.5542877 83.2006804,20.7542877 78.2906804,20.4242877" id="Path" fill="#BDBDBD"></path>
            <path d="M78.6106804,22.9642877 C78.4106804,22.9642877 78.3006804,22.9642877 78.2906804,22.9642877 L78.2706804,22.9642877 L78.2706804,20.3942877 L78.2906804,20.3942877 C83.1506804,20.7142877 100.50068,18.5542877 100.67068,18.5242877 L100.73068,18.5242877 C100.73068,18.5242877 100.69068,18.5542877 100.69068,18.5542877 C100.69068,18.5542877 100.34068,18.9342877 100.69068,21.1442877 L100.69068,21.1642877 C100.69068,21.1642877 100.67068,21.1642877 100.67068,21.1642877 C89.2506804,22.8642877 80.3606804,22.9542877 78.6006804,22.9542877 L78.6106804,22.9642877 Z M78.3106804,22.9242877 C78.8006804,22.9242877 88.2306804,22.9842877 100.66068,21.1442877 C100.36068,19.2742877 100.56068,18.7142877 100.64068,18.5842877 C99.6606804,18.7042877 83.0806804,20.7542877 78.3106804,20.4442877 L78.3106804,22.9342877 L78.3106804,22.9242877 Z" id="Shape" fill="#020202"></path>
            <path d="M78.0206804,43.5242877 L78.0206804,46.0542877 C78.0206804,46.0542877 87.6306804,46.6442877 100.49068,44.7342877 C100.68068,42.4742877 100.49068,42.1242877 100.49068,42.1242877 C100.49068,42.1242877 82.9306804,43.8542877 78.0206804,43.5242877" id="Path" fill="#989696"></path>
            <path d="M78.0206804,43.5242877 L78.0206804,46.0542877 C78.0206804,46.0542877 87.6306804,46.6442877 100.49068,44.7342877 C100.68068,42.4742877 100.49068,42.1242877 100.49068,42.1242877 C100.49068,42.1242877 82.9306804,43.8542877 78.0206804,43.5242877 L78.0206804,43.5242877 Z" id="Path" fill="#BDBDBD"></path>
            <rect id="Rectangle" fill="#020202" transform="translate(77.4212, 33.3544) rotate(-89.74) translate(-77.4212, -33.3544)" x="64.6312088" y="32.3194405" width="25.58" height="2.07"></rect>
            <polygon id="Path" fill="#020202" points="102.50068 44.5342877 100.32068 44.7742877 100.32068 18.5942877 102.50068 18.1942877"></polygon>
            <polyline id="Path" fill="#020202" points="99.0006804 10.5042877 99.0006804 10.5042877 100.12068 14.9342877 102.31068 11.7942877"></polyline>
            <polyline id="Path" fill="#020202" points="76.6706804 16.6742877 76.6706804 16.6742877 77.4206804 12.1642877 74.0506804 13.7942877"></polyline>
        </g>
    </g>
</svg>