<?xml version="1.0" encoding="UTF-8"?>
<svg width="74px" height="74px" viewBox="0 0 74 74" version="1.1" xmlns="http://www.w3.org/2000/svg" xmlns:xlink="http://www.w3.org/1999/xlink">
    <title>z</title>
    <g id="z" stroke="none" stroke-width="1" fill="none" fill-rule="evenodd">
        <path d="M52.5828826,49.3009872 C53.267521,46.5959278 54.3622695,45.1538925 50.9885499,44.2711431 C48.4503783,43.6071853 45.5978013,43.5329702 43.0728389,44.2634357 C42.491133,41.8695328 41.1588671,39.6175957 39.4921327,37.8162947 C37.4756022,35.6368324 36.690399,35.6485178 34.6747407,37.8162947 C33.0338018,39.5811719 31.6511911,41.9091887 31.0940345,44.2634357 C30.4111408,44.1048118 29.7263777,43.8896254 29.0254147,43.8091946 C27.0900089,43.5871709 24.0987348,43.8558121 22.2633954,44.5299636 C19.8474717,45.4171883 21.2092716,47.5126148 21.5839909,49.3009872 C12.6580208,48.2260493 7.61868834,38.3718513 12.3777602,30.5627328 C14.3900538,27.2607205 17.7099394,25.2291911 21.5412477,24.7090639 C22.4301312,24.5884799 23.505315,24.8843458 24.2321981,24.1134784 C24.9351551,23.367971 24.6409375,22.4389771 24.7569547,21.5906625 C26.7668806,6.88264816 47.4206791,6.99216826 49.3967095,21.4866122 C49.5159667,22.3614055 49.228603,23.3644903 49.9347999,24.1134784 C50.661683,24.8843458 51.7367423,24.5884799 52.6256258,24.7090639 C57.5585364,25.3787401 61.69453,28.6674508 63.0903499,33.4824813 C65.2602823,40.9672662 60.2354053,48.3492439 52.5828826,49.3009872 L52.5828826,49.3009872 Z M44.7765841,53.170863 C44.4129557,53.3030081 43.3360272,53.6370382 43.0128988,53.6370382 L40.7820293,53.6370382 L40.6071936,53.3470151 C41.299932,52.5235632 41.9161564,51.500464 42.3503174,50.5151561 C42.5363685,50.0927392 43.1012513,48.1660059 43.1896038,48.0716521 C44.111635,47.0872144 48.120396,47.2169975 49.411788,47.5450606 C48.5048353,49.8867519 47.2860942,52.258527 44.7765841,53.170863 L44.7765841,53.170863 Z M39.5402344,47.8278735 C39.1625243,49.35208 38.2289038,50.87927 37.1255568,51.9875238 C36.7704022,52.0483131 35.4091008,49.8562951 35.2190619,49.4629675 C33.5533245,46.0150114 34.7168608,43.2439416 37.0259889,40.5132737 C37.195217,40.4705099 38.1556298,41.8135917 38.3059163,42.0468037 C39.4898896,43.883534 40.0814401,45.6443088 39.5402344,47.8278735 L39.5402344,47.8278735 Z M33.3848441,53.6370382 C32.6648149,53.5848266 31.8610439,53.7085184 31.1540993,53.6370382 C27.7244272,53.2904525 25.8053462,50.5406403 24.7550854,47.5450606 C26.0464775,47.2169975 30.0552384,47.0872144 30.9772697,48.0716521 C31.0656222,48.1660059 31.6303803,50.0927392 31.8165561,50.5151561 C32.250717,51.500464 32.8669415,52.5235632 33.5596799,53.3470151 L33.3848441,53.6370382 Z M52.9612157,21.1517119 C52.1224277,14.3387166 47.0295106,8.64827123 40.2576467,7.28878 C39.7179363,7.18050304 39.1180365,7.18112461 38.6098539,7 L35.5571442,7 C33.98923,7.12704828 31.9010455,7.77012145 30.4662209,8.42276674 C25.3577267,10.7464326 21.9147208,15.5951521 21.2056578,21.1517119 C14.3936676,21.9790175 8.67031985,27.0800932 7.31499999,33.8296886 C7.22178749,34.2939991 7.06128252,35.0351556 7.02551783,35.4743548 C6.9456392,36.4545658 7.0842118,37.5293794 7.02551783,38.5210273 C7.20571207,39.0284746 7.20807976,39.6267949 7.31499999,40.1655691 C8.82185249,47.7607443 15.7845029,53.0778766 23.4980873,52.9580385 C24.3125752,53.8079691 25.0417014,54.6851244 26.0094666,55.3730747 C28.7326925,57.3091314 32.1175029,57.4231268 35.3222437,56.9180415 L35.3222437,65.5307217 C35.3222437,65.6368854 35.7205153,66.3751826 35.8316725,66.4869403 C36.5594279,67.2184003 37.8506953,67.1630809 38.4923413,66.3508172 C38.5575153,66.2682731 38.8446298,65.7992387 38.8446298,65.7650525 L38.8446298,56.9180415 C43.3038763,57.7413691 47.8388892,56.8088943 50.5874121,52.993965 C55.6414492,52.9078159 60.4351642,50.9907791 63.6157295,47.0131236 C71.5649621,37.0715332 65.3856457,22.6751725 52.9612157,21.1517119 L52.9612157,21.1517119 Z" id="Fill-11" fill="#231F20"></path>
    </g>
</svg>