<?xml version="1.0" encoding="UTF-8"?>
<svg width="39px" height="35px" viewBox="0 0 39 35" version="1.1" xmlns="http://www.w3.org/2000/svg" xmlns:xlink="http://www.w3.org/1999/xlink">
    <title>Artboard Copy 14</title>
    <g id="Artboard-Copy-14" stroke="none" stroke-width="1" fill="none" fill-rule="evenodd">
        <g id="cc-amex" transform="translate(0, 2)" fill="#FFFFFF" fill-rule="nonzero">
            <path d="M0,27.7777778 C0,29.6180556 1.45158179,31.1111111 3.24074074,31.1111111 L35.6481481,31.1111111 C37.4373071,31.1111111 38.8888889,29.6180556 38.8888889,27.7777778 L38.8888889,27.7013889 L34.7231867,27.7013889 L32.5694444,25.2638889 L30.4157022,27.7013889 L16.6628086,27.7013889 L16.6628086,16.3263889 L12.2202932,16.3263889 L17.736304,3.5 L23.043017,3.5 L24.9402006,7.88888889 L24.9402006,3.5 L31.5027006,3.5 L32.6437114,6.80555556 L33.7914738,3.5 L38.8888889,3.5 L38.8888889,3.33333333 C38.8888889,1.49305556 37.4373071,0 35.6481481,0 L3.24074074,0 C1.45158179,0 0,1.49305556 0,3.33333333 L0,27.7777778 Z M29.7337963,26.2708333 L32.5829475,23.0555556 L35.4185957,26.2708333 L38.8888889,26.2708333 L34.2978395,21.2638889 L38.8888889,16.2569444 L35.472608,16.2569444 L32.6369599,19.5 L29.8350694,16.2569444 L26.3647762,16.2569444 L30.9220679,21.2916667 L26.3715278,26.2638889 L26.3715278,23.9652778 L20.7677469,23.9652778 L20.7677469,22.4236111 L26.2297454,22.4236111 L26.2297454,20.1805556 L20.7677469,20.1805556 L20.7677469,18.625 L26.3715278,18.625 L26.3715278,16.3263889 L18.1346451,16.3263889 L18.1346451,26.2708333 L29.7337963,26.2708333 Z M36.2355324,21.2708333 L38.8888889,24.1805556 L38.8888889,18.3958333 L36.2355324,21.2708333 L36.2355324,21.2708333 Z M33.7847222,14.8819444 L36.2760417,7.89583333 L36.2760417,14.8819444 L38.8888889,14.8819444 L38.8888889,4.93055556 L34.8244599,4.93055556 L32.650463,11.1319444 L30.4967207,4.93055556 L26.3647762,4.93055556 L26.3647762,14.8680556 L22.0978009,4.93055556 L18.6410108,4.93055556 L14.4280478,14.8819444 L17.3312114,14.8819444 L18.1346451,12.8888889 L22.583912,12.8888889 L23.3940972,14.8819444 L28.9776235,14.8819444 L28.9776235,7.91666667 L31.4621914,14.8819444 L33.7847222,14.8819444 Z M19.0393519,10.6527778 L20.3559028,7.39583333 L21.6657022,10.6527778 L19.0393519,10.6527778 Z" id="Shape"></path>
        </g>
    </g>
</svg>