<?xml version="1.0" encoding="UTF-8"?>
<svg width="88px" height="38px" viewBox="0 0 88 38" version="1.1" xmlns="http://www.w3.org/2000/svg" xmlns:xlink="http://www.w3.org/1999/xlink">
    <title>Frame 3 Copy</title>
    <defs>
        <path d="M0,0 L88,0 L88,38 L0,38 L0,0 Z" id="path-1"></path>
    </defs>
    <g id="Frame-3-Copy" stroke="none" fill="none" xlink:href="#path-1" fill-rule="evenodd">
        <path d="M81.3661409,22.9955904 C81.2002478,23.9952289 81.0701397,24.5830359 80.3240348,25.0549516 C79.7041079,25.4464156 78.7470169,25.4604692 77.9947065,25.0850955 C77.4763426,24.8276499 76.8427636,24.2872993 76.7691253,23.1762504 C76.6698377,21.6729229 78.4348815,20.4535187 81.7318502,19.6650916 C81.74302,19.6632585 81.7510871,19.6587776 81.762257,19.6565372 C84.1517784,19.117816 88,18.7624026 88,18.7624026 L87.7486783,16.207703 C86.8222009,16.2738975 84.7046862,16.5329725 84.0986182,16.6185161 C83.5070296,13.3975946 81.8660953,11.1074693 79.47223,10.567526 C74.5949339,9.46503149 69.6744063,15.9288715 66.3087637,27.8483586 L68.8221878,28.5359665 C72.0554469,17.0826922 76.2908901,12.4849255 78.8905702,13.0711031 C80.0799528,13.3391398 81.1077863,14.8047874 81.5295517,17.0837106 C75.3143552,18.4892739 74.0217549,21.1608831 74.1665493,23.3434679 C74.2842465,25.128071 75.2512662,26.5984032 76.8193897,27.3780723 C78.4019925,28.1650738 80.3308609,28.1007124 81.7324707,27.2165578 C83.4931707,26.1040832 83.7622814,24.4826239 83.9401717,23.409866 C83.9401717,23.409866 84.283955,20.9508939 84.3118796,19.9479966 C83.3318283,20.0899583 82.4305866,20.2681742 81.6851023,20.4655356 C81.6418708,21.1523288 81.3661409,22.9955904 81.3661409,22.9955904 M58.0100171,22.0982581 C56.3190253,22.0982581 54.948236,20.7485017 54.948236,19.083456 C54.948236,17.4186139 56.3190253,16.0690612 58.0100171,16.0690612 C59.7008021,16.0690612 61.0715914,17.4186139 61.0715914,19.083456 C61.0715914,20.7485017 59.7008021,22.0982581 58.0100171,22.0982581 M58.0100171,13.7787322 C55.0344921,13.7787322 52.6224241,16.1537901 52.6224241,19.083456 C52.6224241,22.0133255 55.0344921,24.3885871 58.0100171,24.3885871 C60.9855422,24.3885871 63.3974033,22.0133255 63.3974033,19.083456 C63.3974033,16.1537901 60.9855422,13.7787322 58.0100171,13.7787322 M25.6251555,24.0212586 L28.203737,24.0212586 L28.203737,9 L25.6251555,9 L25.6251555,24.0212586 Z M5.387593,22.0982581 C3.69680804,22.0982581 2.32581186,20.7485017 2.32581186,19.083456 C2.32581186,17.4186139 3.69680804,16.0690612 5.387593,16.0690612 C7.07858481,16.0690612 8.44916729,17.4186139 8.44916729,19.083456 C8.44916729,20.7485017 7.07858481,22.0982581 5.387593,22.0982581 L5.387593,22.0982581 Z M7.97817177,14.4473983 C7.20807238,14.0284382 6.32999773,13.7787322 5.387593,13.7787322 C2.41206796,13.7787322 4.97379915e-14,16.1537901 4.97379915e-14,19.083456 C4.97379915e-14,22.0133255 2.41206796,24.3885871 5.387593,24.3885871 C6.33227307,24.3885871 7.21096827,24.1384738 7.97817177,23.7150328 L7.97817177,24.207316 L10.5565464,24.207316 L10.5565464,13.9549114 L7.97817177,13.9549114 L7.97817177,14.4473983 Z M18.2211349,22.0982581 C16.5303499,22.0982581 15.1595606,20.7485017 15.1595606,19.083456 C15.1595606,17.4186139 16.5303499,16.0690612 18.2211349,16.0690612 C19.9121267,16.0690612 21.282916,17.4186139 21.282916,19.083456 C21.282916,20.7485017 19.9121267,22.0982581 18.2211349,22.0982581 M18.2211349,13.7787322 C17.2787302,13.7787322 16.4006555,14.0284382 15.6305561,14.4473983 L15.6305561,13.9549114 L13.0521815,13.9549114 L13.0521815,29 L15.6305561,29 L15.6305561,23.7150328 C16.3977596,24.1384738 17.2764548,24.3885871 18.2211349,24.3885871 C21.19666,24.3885871 23.6087279,22.0133255 23.6087279,19.083456 C23.6087279,16.1537901 21.19666,13.7787322 18.2211349,13.7787322 M42.6101806,13.9256636 L42.6101806,16.0495898 L48.049279,16.0495898 L42.4095369,24.2318385 L51.7835267,24.2318385 L51.7835267,22.1048571 L46.3911762,22.1048571 L52.0290567,13.9256636 L42.6101806,13.9256636 Z M35.6251329,22.0982581 C33.9341411,22.0982581 32.5633518,20.7485017 32.5633518,19.083456 C32.5633518,17.4186139 33.9341411,16.0690612 35.6251329,16.0690612 C37.3159179,16.0690612 38.6869141,17.4186139 38.6869141,19.083456 C38.6869141,20.7485017 37.3159179,22.0982581 35.6251329,22.0982581 L35.6251329,22.0982581 Z M38.2157117,14.4473983 C37.4456123,14.0284382 36.5675377,13.7787322 35.6251329,13.7787322 C32.6496079,13.7787322 30.2375399,16.1537901 30.2375399,19.083456 C30.2375399,22.0133255 32.6496079,24.3885871 35.6251329,24.3885871 C36.569813,24.3885871 37.4485082,24.1384738 38.2157117,23.7150328 L38.2157117,24.207316 L40.7940864,24.207316 L40.7940864,13.9549114 L38.2157117,13.9549114 L38.2157117,14.4473983 Z" id="Forma-combinada-Copy" fill="#FFFFFF"></path>
    </g>
</svg>