<?xml version="1.0" encoding="UTF-8"?>
<svg width="46px" height="46px" viewBox="0 0 46 46" version="1.1" xmlns="http://www.w3.org/2000/svg" xmlns:xlink="http://www.w3.org/1999/xlink">
    <title>Artboard Copy 4</title>
    <g id="Artboard-Copy-4" stroke="none" stroke-width="1" fill="none" fill-rule="evenodd">
        <g id="Group" transform="translate(3, 6)" fill="#FFFFFF">
            <path d="M26.9385275,28.8873638 C26.9304266,27.7789251 27.3889082,26.6748987 28.1960415,25.8586188 C28.9966317,25.0489575 30.0765484,24.5864514 31.1633196,24.5864514 C31.1731342,24.5864514 31.182793,24.5864514 31.1926076,24.586609 C33.4579088,24.603628 35.368171,26.5642754 35.3642823,28.8676659 C35.3603817,31.1697957 33.4389028,33.1190972 31.1683048,33.1241399 L31.1595807,33.1241399 C28.8872691,33.1239823 26.9550409,31.1858692 26.9385275,28.8873638 L26.9385275,28.8873638 Z" id="Path"></path>
            <path d="M13.3732169,28.874442 C13.3682717,27.7674215 13.8292459,26.6657589 14.6380929,25.8523155 C15.4388389,25.0467513 16.5168861,24.5869242 17.6017879,24.5869242 C17.614874,24.5869242 17.6279602,24.5870817 17.6408905,24.5872393 C19.907438,24.6102464 21.8139613,26.5764093 21.8044937,28.8807453 C21.7949553,31.1814568 19.8664659,33.1242974 17.592908,33.1242974 L17.5910386,33.1242974 C15.3148323,33.1231944 13.3832273,31.1770445 13.3732169,28.874442 L13.3732169,28.874442 Z" id="Path"></path>
            <path d="M6.47723933,2.76525138 L0,2.76525138 L0,0 L8.6265869,0 L9.60113974,3.95591075 L40.7466667,3.95591075 C40.7371931,4.02017195 40.7266978,4.08152073 40.7124874,4.1390176 C40.4564214,5.18016187 40.1989622,6.2208364 39.9413173,7.26160487 C39.7685633,7.95983481 39.5958093,8.65806475 39.4234269,9.35638864 C39.36222,9.60460225 39.3004558,9.852534 39.2385987,10.1005597 C39.1608594,10.4128466 39.0830272,10.7250396 39.0064025,11.0374204 L36.5706642,20.9274455 L36.5596117,20.9709439 C36.5484662,21.0153818 36.5372279,21.0597258 36.5253395,21.1039759 C36.2978801,21.9497999 36.2320292,22.0001712 35.35247,22.0001712 C27.4686655,22.0001712 19.5849538,22.0001712 11.7011493,22.0001712 C10.763541,22.0001712 10.7063279,21.9548732 10.4767323,21.0320108 C10.1646605,19.7784163 8.83149623,13.6894965 6.47723933,2.76525138 Z" id="Path"></path>
        </g>
    </g>
</svg>