<?xml version="1.0" encoding="UTF-8"?>
<svg width="41px" height="38px" viewBox="0 0 41 38" version="1.1" xmlns="http://www.w3.org/2000/svg" xmlns:xlink="http://www.w3.org/1999/xlink">
    <title>Frame Copy</title>
    <defs>
        <path d="M0,0 L41,0 L41,38 L0,38 L0,0 Z" id="path-1"></path>
    </defs>
    <g id="Frame-Copy" stroke="none" fill="none" xlink:href="#path-1" fill-rule="evenodd" stroke-width="1">
        <g id="Grupo-Copy" transform="translate(5, 6)" fill="#FFFFFF">
            <path d="M0.899049051,0.0253771917 C1.04965522,-0.00535356105 1.29822278,-0.00569033642 1.45261937,0.0111484322 C1.86249052,0.0559395568 4.21912329,1.18043253 4.6786911,1.44985283 C5.66049507,2.02548613 6.01620528,2.65508769 6.3080679,3.72864339 C7.55250612,8.30676781 8.3101697,13.131496 9.5090386,17.7341208 C9.63926072,18.1518907 9.73528478,18.4052299 10.221891,18.4711537 L26.1074725,18.4790679 C26.4162656,18.4885819 26.6154735,18.3207835 26.7960661,18.095986 L29.4736214,6.6644827 C29.4131431,6.32223473 29.2482175,6.06864287 28.8991616,5.97838707 L9.78043294,5.92980722 C8.33594458,5.53199131 8.47838028,3.55225728 10.024452,3.41165357 L28.8186362,3.41190615 C30.6575813,3.54720565 32.0136264,5.00131752 32,6.84735173 C31.0273582,10.614521 30.4379052,14.6695491 29.3602456,18.3902434 C28.9251892,19.8925142 27.9517242,20.8250452 26.3594935,21 L10.08771,21 C8.68601127,20.9068816 7.47273876,19.9070797 7.11332236,18.5532427 L3.74683649,3.9568087 C3.69124361,3.79103102 3.57129776,3.7243495 3.43105208,3.6422605 C2.7080077,3.21910225 0.779777052,2.61231722 0.316081886,2.09216766 C-0.28642702,1.41609109 0.00770985967,0.207488475 0.899049051,0.0253771917" id="Fill-1"></path>
            <path d="M23.9843127,22.8861974 C22.4553181,22.9095898 22.5073415,25.2605596 24.1642038,25.0937415 C25.4929123,24.9600034 25.4220871,22.8642228 23.9843127,22.8861974 M23.9848704,21.0000014 C27.8897341,20.9967735 27.9729875,26.6350369 24.4018544,26.9799361 C20.0249559,27.4027311 19.8562183,21.0033895 23.9848704,21.0000014" id="Fill-3"></path>
            <path d="M12.5018072,22.9017243 C10.877557,22.9025006 10.8064292,24.9467573 12.2978471,25.0762939 C14.2276296,25.2440163 14.2169378,22.9009484 12.5018072,22.9017243 M10.0499378,26.1018761 C6.86105796,23.370276 11.6510828,19.1832713 14.9024826,21.8581361 C18.210241,24.5792583 13.2909176,28.8781038 10.0499378,26.1018761" id="Fill-5"></path>
        </g>
    </g>
</svg>