<?xml version="1.0" encoding="UTF-8"?>
<svg width="73px" height="73px" viewBox="0 0 73 73" version="1.1" xmlns="http://www.w3.org/2000/svg" xmlns:xlink="http://www.w3.org/1999/xlink">
    <title>Frame 4</title>
    <defs>
        <path d="M0,0 L73,0 L73,73 L0,73 L0,0 Z" id="path-1"></path>
    </defs>
    <g id="Frame-4" stroke="none" fill="none" xlink:href="#path-1" fill-rule="evenodd" stroke-width="1">
        <g id="cascos" transform="translate(5, 1)" fill="#FF4604">
            <path d="M9.97994711,0.732968067 C10.4266567,-0.385903304 12.9609779,0.042345753 14.4750883,0.297731263 C14.7190992,0.338992245 14.9303626,0.374762853 15.0927567,0.396557969 C24.9071007,1.71291638 34.9506772,4.09989743 41.9596515,6.7813621 C51.182693,10.3101743 58.1296989,16.9786476 60.5431062,24.6197488 C64.0427232,35.7001525 64.1235004,45.384005 63.8771383,55.9935676 C63.8586654,56.7921672 63.8984662,57.6193833 63.9369235,58.419314 C64.0788294,61.3648157 64.2254375,64.4106414 61.44022,66.469032 C59.4170958,67.9644098 53.0482933,71.6792291 50.847325,71.9482574 C50.5599866,71.9833625 50.2647552,72 49.9629743,72 C47.5472159,72 44.7017094,70.9423546 41.9396671,69.9156549 C40.0942191,69.2295247 38.3508761,68.5814944 36.8214836,68.2793575 L8.26951961,59.1799801 L8.25373363,59.1487017 C4.92591513,52.5046854 2.4461731,45.5923064 1.08270124,39.158588 C0.114214703,34.5886016 -0.698763161,27.7642349 0.928200183,21.2078982 C2.50965289,14.8347403 6.02791074,10.1527836 11.3860747,7.29080212 C11.303954,6.96187889 11.1513003,6.46757899 10.9759751,5.90073962 C10.412718,4.07810231 9.64122033,1.58181294 9.97994711,0.732968067 Z M12.6870744,2.65310108 C12.9545963,3.72072897 13.1975996,4.61016932 13.4488318,5.4430422 C13.5094567,5.64402311 13.6147525,5.90573086 13.726262,6.18274512 C14.0445006,6.97335876 14.4052269,7.86945411 14.2045435,8.37889413 C14.0240124,8.83725705 13.1895387,9.21143425 12.4533076,9.54185485 C12.1432978,9.68077792 11.8505855,9.81204773 11.6546043,9.93017393 C9.05394836,11.4954292 6.8558349,13.8795819 5.29806116,16.8250836 C-0.0480114108,26.9323603 3.18274012,39.2723885 6.60426687,48.9036665 L30.2187464,56.5056696 C32.8366997,57.7115551 34.8705718,59.7952346 36.1096031,62.5349305 C36.2019679,62.7390725 36.3480722,63.171481 36.5170157,63.6721031 C36.783698,64.4613858 37.1845611,65.6481381 37.3600541,65.7938825 L48.5633962,69.3925722 C50.5762764,69.8461102 52.1637748,68.9827907 53.8441417,68.0683941 L53.8983851,68.0387794 C55.1851102,67.3388401 59.4501791,64.9897925 60.3126981,64.1537585 C61.5324168,62.9711656 61.4573494,61.4158928 61.3779157,59.7691138 C61.3411378,59.0106105 61.3033522,58.2269846 61.4081442,57.4944358 C61.3127566,57.4463534 61.2753069,57.4777983 61.198896,57.5411871 C61.1617822,57.5718001 61.1197982,57.6067389 61.0663946,57.6333588 C60.6823251,57.8253555 59.9638952,58.322151 59.2031454,58.8480622 C57.7337059,59.8642802 56.0666059,61.0116017 55.4632121,60.9628538 L55.4467544,60.9598591 L40.8825104,56.6760375 C36.9874416,55.14036 34.4773923,51.3521714 32.1819767,47.4198039 L31.7538157,46.6813102 C31.6117434,46.4349255 31.4702236,46.1884924 31.3289709,45.9425256 C30.1789456,43.9398706 29.092568,42.0476886 27.8778874,40.4756119 C27.585175,40.3920917 27.2991801,40.3133964 27.0183913,40.2363648 C25.2248355,39.7440614 23.6759623,39.3188071 22.1025706,38.0551895 C18.5126041,35.1712466 17.4492337,30.5232303 19.3939319,26.2141197 C21.3262027,21.9317955 25.5015939,19.6304976 30.0318337,20.3533966 C32.5496972,20.7546929 34.0100681,21.8627499 35.8588748,23.2657897 C36.067955,23.4245114 36.2815695,23.5867269 36.5015656,23.7512717 L58.3238328,26.1029813 C56.6713432,20.0933526 51.9466336,14.6327612 45.3427209,11.1072765 C41.4919499,9.05138157 37.7943364,8.03233516 33.8797498,6.95322739 C26.2845112,4.86006446 19.3511082,3.45319809 12.6870744,2.65310108 Z M7.7675591,51.9826009 C8.38589921,53.5333816 9.05562772,55.1685143 9.83770537,56.7207924 C9.90084929,56.8460727 9.88422363,56.999304 9.87280398,57.0874827 L34.128127,64.798295 L33.4761997,62.8091164 C32.8529895,61.6193693 30.6765397,59.2651641 29.4689124,58.8813372 Z M37.8378319,26.3352407 C37.8153284,26.5452058 38.0569882,27.4133502 38.1904973,27.8928427 C38.2900833,28.2505488 38.3760665,28.559507 38.3968906,28.7007594 C39.1539458,33.8518934 35.7695329,38.8161884 30.6778832,40.0560144 L37.8386715,51.4026179 C38.8978435,52.6276365 40.2008584,53.588618 41.8150586,54.3306502 L55.227598,58.2853822 L55.7104138,58.1634294 L61.1159357,54.6055016 C61.539806,54.1135309 61.5690268,52.4353071 61.5864922,51.4305689 C61.5900188,51.2259277 61.5932096,51.0437472 61.5989194,50.8968381 C61.8686246,43.9465256 60.9481677,36.3195663 58.9374707,28.8373532 Z M31.0580902,23.1546512 C28.2856358,22.183188 25.6703695,22.6512007 23.6934277,24.4720079 C21.5208405,26.4729991 20.5454686,29.8329407 21.3213326,32.6421813 C22.0348924,35.2254848 24.0618791,37.0012044 27.0293071,37.6424133 C31.5467838,38.6182023 34.6164847,35.5422627 35.5564222,32.2706661 C36.5045885,28.9714514 35.5013392,24.7115878 31.0580902,23.1546512 Z M25.9397891,26.2753623 C27.3178714,25.3343458 29.0252761,25.2761145 30.7472912,26.1116494 C33.3145278,27.3576312 33.6502317,30.1430802 32.6550434,32.2505514 C32.134442,33.353118 31.2885487,34.2094498 30.273208,34.6618232 C29.7326222,34.9025677 29.1586172,35.0228568 28.5659713,35.0228568 C27.8925482,35.0228568 27.1952782,34.8677953 26.4946495,34.5581716 C24.9011054,33.8537402 23.9393363,32.5618389 23.7865146,30.9207166 C23.620258,29.1355137 24.4856319,27.2686206 25.9397891,26.2753623 Z M7.32029532,17.9767807 C7.83014882,17.1808431 8.27047684,16.493881 9.45257789,17.184337 C9.63680361,17.2918152 9.77887742,17.4465438 9.85293716,17.6197401 C10.0875437,18.1694429 9.42251736,19.4912917 8.8357492,20.6575799 C8.57057836,21.1846557 8.32001794,21.6826158 8.21875257,21.9910749 C7.3043414,24.7790195 7.30333379,28.10918 7.38411097,29.8461343 C7.39200396,30.0179996 7.43130097,30.2727196 7.47697955,30.5677023 C7.62980125,31.5586314 7.83955323,32.915918 7.28620432,33.4837556 C7.11994775,33.6541235 6.89642502,33.7401394 6.62033834,33.7401394 C6.56491948,33.7401394 6.50748539,33.7366455 6.44786813,33.7298241 C5.15291413,33.5795876 5.03132852,32.1239734 4.94249041,31.0611703 C4.93157457,30.9303996 4.92099461,30.8039547 4.90873528,30.6848303 C4.51694075,26.8445642 5.11076221,21.4258993 7.32029532,17.9767807 Z M28.4870414,28.0294532 C28.1617495,28.0294532 27.8178167,28.1119751 27.4695176,28.3034727 C26.6429369,28.7578426 26.2225932,29.4669325 26.2859051,30.3001382 C26.3552626,31.2107081 27.0120601,32.0951572 27.8478772,32.4031172 C28.5678186,32.6681525 29.3072405,32.4756567 29.929947,31.8612341 C30.9111966,30.892932 30.7587108,29.6803916 30.1722785,28.9080792 C29.7924074,28.4077898 29.1828,28.0294532 28.4870414,28.0294532 Z" id="Forma-combinada"></path>
        </g>
    </g>
</svg>