<?xml version="1.0" encoding="UTF-8"?>
<svg width="73px" height="73px" viewBox="0 0 73 73" version="1.1" xmlns="http://www.w3.org/2000/svg" xmlns:xlink="http://www.w3.org/1999/xlink">
    <title>Frame 4 Copy 2</title>
    <defs>
        <path d="M0,0 L73,0 L73,73 L0,73 L0,0 Z" id="path-1"></path>
    </defs>
    <g id="Frame-4-Copy-2" stroke="none" fill="none" xlink:href="#path-1" fill-rule="evenodd" stroke-width="1">
        <g id="chamarra" transform="translate(1, 1)" fill="#FF4604">
            <path d="M42.4394576,0.111673769 C45.0829469,0.338666548 45.7552448,2.29875099 46.0922136,4.45007508 L46.1501497,4.84298901 C46.2875731,5.82882596 46.3761978,6.8348683 46.5696546,7.716314 L56.9152706,12.2495047 C65.6350589,17.98237 71.3067827,27.9736818 71.8336176,38.4405891 C72.3646223,48.9933428 71.4173709,59.9834778 71.8345241,70.5822334 C71.8423197,71.3316678 71.431693,71.763797 70.7087001,71.8485566 C68.8194549,72.0700545 64.2568762,72.0287613 62.3217641,71.8523599 C61.8404335,71.8085312 61.5006921,71.7476782 61.2231339,71.3059501 L57.4673051,48.5335037 L57.4673051,59.8905682 L55.0738866,59.8905682 L55.0738866,21.1871167 L42.4075502,15.9934168 C40.6584438,16.9342848 39.081565,18.2600121 37.1239727,18.7962797 L37.1239727,62.2814052 L56.6446015,62.2814052 C56.8815503,62.2814052 57.497037,62.9422767 57.4584218,63.2617552 C57.312119,65.6194491 57.6835866,68.2602183 57.4743755,70.5822334 C57.417631,71.2119539 57.2604508,71.6113021 56.612694,71.8132401 L15.1272562,71.7784669 C14.9425196,71.7235905 14.8223229,71.5966322 14.687079,71.4707605 C13.7641208,70.6112111 11.7338304,67.6103946 10.9125771,66.4248466 C3.56988375,55.8237365 -1.97692987,46.8625801 0.672110545,33.2631891 C2.1083067,25.8898267 6.6230243,18.1995213 12.6946786,13.7431213 C15.508151,11.6779206 18.7447591,10.6550097 21.8642526,9.14617979 C22.0181696,9.0724679 22.1644724,9.05109689 22.3176642,9.148172 C22.4364105,9.223695 23.2340958,11.0443968 23.1494324,11.1773318 L16.7804591,14.0142434 L16.7804591,18.6466826 L27.6996833,14.1620294 C26.5397763,12.7135093 25.1514413,10.4811438 25.1440083,8.55920132 C25.1398386,7.48557948 25.8040929,3.7269975 26.133682,2.66152563 C26.596702,1.16501125 27.8693727,0.229938792 29.4150693,0.111673769 C33.6268478,0.39348139 38.2818855,-0.245475736 42.4394576,0.111673769 Z M69.4340352,64.6724233 L62.5530929,64.6724233 L63.3011041,69.4542785 L69.4340352,69.4542785 L69.4340352,64.6724233 Z M55.0738866,64.6724233 L37.1237914,64.6724233 L37.1237914,69.4542785 L55.0738866,69.4542785 L55.0738866,64.6724233 Z M34.7305542,64.6724233 L23.5118354,64.6724233 C23.8762325,65.3177193 24.2174243,65.9175566 23.7328305,66.6121146 L19.6225756,69.4542785 L34.7305542,69.4542785 L34.7305542,64.6724233 Z M19.9193508,62.7296532 L13.7889578,66.1700244 L15.7389358,69.0027705 L21.0504323,65.5680137 C21.3296222,65.1268291 19.9572408,63.3443415 19.9193508,62.7296532 Z M14.3872218,15.5085845 C4.71419959,22.6184314 0.488099046,35.4986335 3.29848945,47.13334 C4.86340301,53.6123797 8.86941493,58.7142568 12.3823123,64.2127654 L18.8827224,60.5501719 L8.55287889,32.6943216 L10.7956437,31.9459739 L14.3872218,41.3608115 L14.3872218,15.5085845 Z M29.4467954,15.9934168 L16.7750203,21.2879952 L16.7800965,47.5625714 L19.3245313,54.9589348 L19.7690596,54.7318225 L25.3097093,47.1885786 L27.2482659,48.61935 L20.581067,57.6435327 C20.4472734,58.0751186 20.9666753,59.2729821 21.1563069,59.7780987 C21.4782817,60.6354748 21.8633461,61.5276241 22.3898185,62.2814052 L34.7305542,62.2814052 L34.7305542,18.7962797 C32.7642599,18.2652643 31.1937263,16.944608 29.4467954,15.9934168 Z M57.4687554,15.6581816 L57.4696619,32.4670282 L62.1043949,62.2814052 L69.4340352,62.2814052 L69.4340352,38.3721294 C68.0360917,38.474819 65.7577936,40.4967343 64.7648567,38.9270514 L59.8500274,27.5415526 C59.8551036,27.3276613 59.9230881,27.1400311 60.0276937,26.9569286 C60.4472036,26.2227074 64.218261,24.8975234 65.0948083,24.2520463 C63.0790213,20.9715955 60.5788217,17.947778 57.4687554,15.6581816 Z M46.4738417,47.1893574 L53.5639952,56.7023568 L51.6364974,58.2468655 L44.6172292,48.7329605 L46.4738417,47.1893574 Z M66.2907924,26.417401 L62.6910562,28.1502643 L66.4448907,36.8785128 C66.9198761,36.5693575 69.0890363,36.1634894 69.1258386,35.6216074 C68.6305485,32.4188529 67.6660744,29.3392534 66.2907924,26.417401 Z M46.4848099,10.2913402 C45.7572846,11.6183353 45.2121392,13.04313 44.1546623,14.1620294 L55.0738866,18.6466826 L55.0738866,14.0142434 L46.4848099,10.2913402 Z M43.5545854,4.00228515 C40.5937226,7.38451994 38.7358409,11.6353597 37.5732146,15.956108 C40.1604344,14.9371815 43.373112,12.3277444 44.1107896,9.56273347 C44.5694587,7.84327232 43.6263771,5.78386714 43.5545854,4.00228515 Z M28.2999415,4.00228515 C28.2281498,5.78386714 27.2850682,7.84327232 27.7437373,9.56273347 C28.4812336,12.3277444 31.6940925,14.9371815 34.281131,15.956108 C33.118686,11.6353597 31.2606231,7.38451994 28.2999415,4.00228515 Z M37.1239727,9.68081739 L34.7305542,9.68081739 C35.0082937,10.6265754 35.3763167,11.5730578 35.74017,12.489657 C35.8132307,12.6740273 35.6689222,12.8862885 36.0005055,12.819821 L37.1239727,9.68081739 Z M41.6114965,2.5079441 L30.2430304,2.5079441 L33.414736,7.25810495 L38.4397909,7.25810495 L41.6114965,2.5079441 Z" id="Forma-combinada"></path>
        </g>
    </g>
</svg>