<?xml version="1.0" encoding="UTF-8"?>
<svg width="43px" height="30px" viewBox="0 0 43 30" version="1.1" xmlns="http://www.w3.org/2000/svg" xmlns:xlink="http://www.w3.org/1999/xlink">
    <title>shipping icon</title>
    <g id="Page-1" stroke="none" stroke-width="1" fill="none" fill-rule="evenodd">
        <g id="5_Vip" transform="translate(-812, -861)" fill="#FF4604">
            <g id="Grupo" transform="translate(44, 179)">
                <g transform="translate(768, 682)" id="shipping-icon">
                    <g transform="translate(0, -0)">
                        <path d="M0,12.9152094 L0,12.1950165 C0.298458532,11.579364 0.596917064,11.1982244 1.27691128,11.114502 C4.94324524,11.3828864 9.0358011,10.7582316 12.6517728,11.1111261 C14.4651251,11.2880235 14.3780231,13.8358185 12.8174111,14 L1.11055058,13.9975243 C0.553159659,13.9116638 0.212388541,13.434536 0,12.9152094" id="Fill-1"></path>
                        <path d="M31.9643066,21.8664805 C28.7618278,22.3407804 29.1941232,27.6843254 32.8520075,27.2535189 C36.2001533,26.8592215 35.7608517,21.3042416 31.9643066,21.8664805 L31.9643066,21.8664805 Z M13.5104999,21.8647874 C10.6648165,22.31824 10.6942009,26.8301201 13.5955159,27.2407143 C17.7374581,27.8268693 17.7140343,21.1948204 13.5104999,21.8647874 L13.5104999,21.8647874 Z M36.7433983,10.9235098 L34.0298923,5.42070078 L29.1454978,5.42070078 L29.1454978,10.9235098 L36.7433983,10.9235098 Z M29.1454978,2.71162556 L35.107912,2.71903319 C35.6402816,2.79247453 35.8778663,3.10338324 36.1424303,3.53260234 C37.6244067,5.93680078 38.6090448,9.0495917 40.0690614,11.4880769 C40.6691928,12.4904347 41.6078197,13.4377644 42.2870066,14.4032958 C42.645998,14.9134697 42.8671651,15.1116766 42.9248881,15.7883105 C43.1646688,18.5990818 42.7367654,21.7516623 42.9253064,24.5992602 C42.7249489,26.8736135 39.2149276,25.6946366 37.714965,26.0042755 C37.3888089,26.6394266 37.1825954,27.290028 36.7290721,27.8830615 C33.9929788,31.4606281 28.4297112,30.2875774 27.2576824,25.9874496 L19.2606354,25.9874496 C17.734321,31.3040097 10.3948148,31.3097241 8.84518112,26.0041696 C7.45522691,25.7870203 3.50600855,26.801442 4.05134493,24.2099364 C4.39914719,22.5570831 7.65307474,23.4164737 8.84821367,23.1903294 C9.14414885,21.7792822 10.1662232,20.501149 11.3887597,19.7980593 C13.9991589,18.2970623 17.4634828,19.2953988 18.8375422,22.0101885 C19.0257696,22.3819456 19.1205107,23.1565718 19.4973836,23.2036631 L27.1720389,23.1874722 C27.2876942,23.1478943 27.5665843,22.2449045 27.6825533,22.0119875 C29.8879501,17.5837078 36.5348842,18.4113514 37.6618431,23.1990069 L40.2500733,23.1990069 L40.2500733,16.2146724 L38.2707584,13.6309977 L27.6841218,13.6327967 C27.3001381,13.7123758 26.4737156,12.9640996 26.4737156,12.6590111 L26.4737156,2.71162556 L5.14107655,2.71162556 C5.10405851,2.71162556 4.64300615,2.49214814 4.57012034,2.44389274 C3.70783006,1.87244719 3.85809821,0.491347941 4.78877775,0.0685840537 L28.0202122,0.000265308215 C28.4352534,-0.0157570772 29.1454978,0.697914926 29.1454978,1.06078285 L29.1454978,2.71162556 Z" id="Fill-3"></path>
                        <path d="M16.6223768,6.40831382 C17.4073056,7.3 16.8914215,8.89355972 15.7845685,9 L4.16431624,8.99133489 C2.61191284,8.74824356 2.61439156,6.18934426 4.15677679,6.00175644 L15.8686385,6 C16.0826349,6.02997658 16.4721042,6.23758782 16.6223768,6.40831382" id="Fill-5"></path>
                        <path d="M3.95683524,17.0150322 L10.9553634,17 C12.451914,17.4252296 12.2925193,19.6774436 10.7840989,19.9014464 C8.78763829,20.1977634 6.18655893,19.7146825 4.12703992,19.8876669 C2.72629569,19.5068506 2.5876732,17.5667831 3.95683524,17.0150322" id="Fill-7"></path>
                    </g>
                </g>
            </g>
        </g>
    </g>
</svg>