<?xml version="1.0" encoding="UTF-8"?>
<svg width="32px" height="32px" viewBox="0 0 32 32" version="1.1" xmlns="http://www.w3.org/2000/svg" xmlns:xlink="http://www.w3.org/1999/xlink">
    <title>Frame 2</title>
    <defs>
        <path d="M0,0 L32,0 L32,32 L0,32 L0,0 Z" id="path-1"></path>
    </defs>
    <g id="Frame-2" stroke="none" fill="none" xlink:href="#path-1" fill-rule="nonzero">
        <path d="M31.6498861,15.9746922 C31.6498861,7.70439431 24.564833,1 15.824943,1 C7.08506814,1 0,7.70439431 0,15.9746922 C0,23.4488605 5.78692545,29.6440405 13.3523032,30.7674419 L13.3523032,20.3032767 L9.33424468,20.3032767 L9.33424468,15.9746922 L13.3523032,15.9746922 L13.3523032,12.6755878 C13.3523032,8.92255557 15.714922,6.84948913 19.3296404,6.84948913 C21.060437,6.84948913 22.8720162,7.14195985 22.8720162,7.14195985 L22.8720162,10.8271417 L20.8765663,10.8271417 C18.9108069,10.8271417 18.2975527,11.9815408 18.2975527,13.1669374 L18.2975527,15.9746922 L22.6864876,15.9746922 L21.9849151,20.3032767 L18.2975527,20.3032767 L18.2975527,30.7674419 C25.8629305,29.6440405 31.6498861,23.4488605 31.6498861,15.9746922 Z" id="Path" fill="#FF4604"></path>
    </g>
</svg>