<?xml version="1.0" encoding="UTF-8"?>
<svg width="73px" height="73px" viewBox="0 0 73 73" version="1.1" xmlns="http://www.w3.org/2000/svg" xmlns:xlink="http://www.w3.org/1999/xlink">
    <title>Frame 4 Copy</title>
    <defs>
        <path d="M0,0 L73,0 L73,73 L0,73 L0,0 Z" id="path-1"></path>
    </defs>
    <g id="Frame-4-Copy" stroke="none" fill="none" xlink:href="#path-1" fill-rule="evenodd" stroke-width="1">
        <g id="guantes" transform="translate(1, 1)" fill="#FF4604">
            <path d="M46.941725,4.18165946 C47.4730827,1.2194199 49.8397491,-0.320508528 53.2925967,0.0559382811 C55.7589926,0.325492786 56.8833947,2.14945444 57.9606874,3.92658368 C61.8849839,2.81154322 65.5499125,5.10096902 66.8847955,9.50929343 C67.7404077,12.335147 67.3416671,14.9153985 66.9194608,17.6472297 C66.8824844,17.8871118 66.8449748,18.1287814 66.8081761,18.3725959 C71.6798147,19.8812431 71.4327129,25.8257422 70.3628866,30.5565311 C69.3703907,34.9460868 67.9027127,40.3700668 65.8755891,47.1391381 C65.7326611,47.6163997 65.3764079,48.4710019 65.0318875,49.2971829 C64.67279,50.1582201 64.3336028,50.9715311 64.293782,51.2208869 C64.1261439,52.2710412 64.1241884,54.5912119 64.2882711,57.9307921 C64.3865785,59.9318946 64.6368802,62.0114683 64.8790044,64.0225809 C65.1245063,66.0630084 65.3785411,68.1727908 65.474182,70.2044595 C65.4965811,70.6781462 65.4796929,71.2683776 65.1490387,71.6282007 C64.9326913,71.8637927 64.607548,71.9855213 64.1551206,72 L40.5241891,72 C40.0827835,71.9912413 39.7608401,71.8725515 39.5389818,71.6369594 C39.285658,71.3679412 39.1724179,70.9469857 39.1928615,70.3496043 C39.2668143,68.1906657 39.5400484,65.9300186 39.8042163,63.7437314 C40.0477626,61.7276139 40.299842,59.6426777 40.3949496,57.6417539 L38.0010842,45.6885845 L40.5094341,45.2129317 L40.5218781,45.2787115 L42.5916667,56.2973776 L49.8955692,56.2973776 L49.895747,38.7791947 C49.8982358,38.7328986 49.9265014,38.6835636 49.9624111,38.6210013 C50.0146758,38.5300177 50.0783179,38.4191929 50.0594741,38.3196293 C47.7667606,37.9458637 45.678306,37.2112026 43.8511748,36.1354871 L43.7951705,36.1008008 C43.4528604,35.8870841 41.6643805,34.7506646 41.733388,34.4391527 L41.737299,34.4216352 L43.3470161,32.636641 L43.3962586,32.6781109 C45.2500554,34.2493205 47.8167142,35.4590983 49.9348566,35.7602915 C50.9997054,35.9116925 51.078458,35.7858527 51.3380037,35.3677572 C51.4494662,35.1881138 51.5884832,34.9646767 51.8405626,34.6935135 C52.2807237,34.2196481 52.8638129,33.6812541 53.4813896,33.1112214 C54.4594861,32.208178 55.4708257,31.2743897 55.9982725,30.5163124 C56.8371742,29.3110033 57.4983048,27.5472803 58.1377474,25.841651 C58.7485688,24.2123477 59.3801895,22.527632 60.1803371,21.2667319 C61.1035023,19.8129608 62.5610473,18.7611977 64.1830306,18.3779584 L64.2784937,18.2322774 C64.3289807,17.905523 64.3814232,17.5805561 64.4336879,17.2575555 C64.915803,14.2804797 65.370897,11.4687473 63.7933564,8.66327124 C62.9181894,7.10689784 60.5833441,5.4121722 58.6516836,6.41799661 C56.9546324,7.3019029 57.2765229,9.25149865 57.788481,11.1396905 L57.8965155,11.529105 C57.933031,11.6583714 57.9698507,11.7869759 58.0063746,11.914549 C58.2029894,12.601484 58.3889379,13.2505241 58.4705349,13.808938 C58.9290065,16.9484973 58.4900897,20.4042647 57.3251558,22.8273952 L57.3168006,22.844734 C56.9306818,23.6485712 56.5657178,24.4068273 55.4295828,24.0416418 C55.1200834,23.9418994 54.9053359,23.764401 54.7913847,23.513794 C54.4932626,22.8588552 54.9346681,21.8174596 55.2893214,20.9809111 C55.4233608,20.6645242 55.5501116,20.3656548 55.6160647,20.1354252 C56.0732919,18.5370456 56.249463,16.9066699 56.1397783,15.2897003 C56.0693809,14.2550972 55.7794363,13.1829567 55.4989135,12.1462086 C54.8811591,9.86250278 54.2424276,7.50157712 55.9239642,5.41413845 C55.7138388,5.13296521 55.5259348,4.82873327 55.3438972,4.53433256 C54.762408,3.59285804 54.2132731,2.70375717 52.9998078,2.56397493 C51.6931903,2.4134677 50.6891393,2.64226728 50.0957394,3.22534871 C49.5762924,3.73567903 49.359945,4.5150276 49.453097,5.54158696 C49.6090022,7.26276756 49.9302346,8.92746325 50.2703106,10.6897563 C50.6843395,12.8356461 51.11259,15.0546445 51.2155195,17.3846465 L51.2196082,17.4788476 C51.2860946,18.9792723 51.4098232,21.7725934 51.2075198,23.0735335 C51.0989016,23.7726235 50.5220345,24.1027742 49.9986764,24.1195766 C49.4772739,24.1372728 48.8863628,23.8600321 48.7407683,23.2041995 C48.553042,22.3585349 48.6129509,21.0020036 48.6707265,19.6901597 C48.7062807,18.885965 48.7397017,18.1264576 48.7137471,17.5324725 C48.6780151,16.7168377 48.3198064,9.50536094 46.7644872,7.4270385 C45.9351852,6.31861179 44.1441416,5.2214463 42.7596604,6.25318941 C41.5230848,7.17410772 42.1218178,9.13284662 42.6499757,10.8608197 C43.0332501,12.1142124 43.3950142,13.298429 43.0222283,13.9608753 C42.8999218,14.1782349 42.6391316,14.3948795 42.4156734,14.4649493 C41.2670945,14.8247724 40.5339665,14.2062986 39.8248377,13.6078447 C39.0378452,12.9432534 38.2942287,12.3149483 37.0137437,13.0124295 L36.9613012,13.0408507 L35.6159297,11.0985568 L35.6637501,11.0592318 C36.8436168,10.0904086 38.6012394,9.91845143 39.9675879,10.6289814 C39.9718544,10.4248493 39.8047496,9.8244291 39.7002202,9.44780355 C39.6093792,9.12158539 39.5309821,8.83987591 39.5153383,8.69937867 C39.2917022,6.69380735 40.0804725,4.92865434 41.6251254,3.97752733 C43.2019549,3.00620162 45.2303228,3.08663897 46.941725,4.18165946 Z M21.4683385,0.0358825679 C23.0665005,-0.148944593 24.5380895,0.542459138 25.8411515,2.09311254 C27.0105296,1.49823363 28.3928775,1.44979247 29.7400267,1.95887154 C32.2970859,2.92501352 32.7251587,5.70331967 33.1027444,8.15451392 C33.1971409,8.76691029 33.2863819,9.34516548 33.4044219,9.88820699 L33.4065552,9.89803822 L32.5246329,21.1060002 L35.1975988,17.1922761 C36.0500111,16.3410701 37.2593877,15.9401346 38.4417432,16.1094106 C39.5860556,16.2735028 40.5602411,16.9432778 41.1143535,17.9469572 C41.8860578,19.3447796 41.4489187,22.7281534 41.1875952,24.7498122 C41.1541743,25.0075692 41.1235976,25.2449488 41.0983541,25.4549797 C40.2855848,32.2127898 38.655424,39.0842847 36.2530257,45.8787384 C36.0205011,46.536716 35.5778511,47.5418254 35.1096021,48.6057434 C34.3709633,50.2838454 33.5336615,52.1855631 33.4026442,53.0171066 C32.9343952,55.9898924 33.4463759,59.9624251 33.9414684,63.8039343 C34.2401238,66.1230325 34.5224242,68.313431 34.5821553,70.2054963 C34.6029545,70.8691938 34.6226871,71.4958902 33.9158693,71.8725157 L33.9012921,71.8803807 L5.41258819,71.8725157 C4.75199087,71.5214514 4.71625889,70.9278237 4.73634702,70.3495685 C4.82256599,67.8613731 5.10433315,65.312224 5.37703398,62.8469085 C5.82501709,58.7955472 6.28811075,54.6061912 5.91834691,50.4758225 C5.17757483,46.9440865 4.20161162,43.3379906 3.2576472,39.8507633 C2.22515279,36.0358878 1.15728193,32.0907037 0.392688529,28.2198796 C-0.128358497,25.5824282 -0.238932107,23.4991008 0.736853333,20.6537635 C1.28492156,19.0555627 4.30080788,13.7116625 5.68813336,13.002205 C5.92545775,12.8806552 6.26926701,12.7993241 6.6018767,12.7204955 C6.92097578,12.6448844 7.2509189,12.5667708 7.36718118,12.4698885 C7.52237533,12.3404737 8.03328941,11.4131204 8.44411837,10.6679131 C8.74224046,10.1268378 9.02382985,9.61597124 9.17866846,9.38431166 L9.36728357,9.10117218 C10.7796748,6.97834108 12.3787256,4.57415799 15.2993266,5.39301024 C16.4555497,3.10680193 18.7528853,0.35101824 21.4683385,0.0358825679 Z M30.9650472,59.1401766 C28.7539306,59.713248 26.488416,60.2233996 24.2966764,60.7169275 C22.2027109,61.1882903 20.0371036,61.6759194 17.925361,62.2171735 C17.668304,62.2831321 17.4076916,62.3422982 17.1476125,62.4012856 C15.6516689,62.7407312 14.2385666,63.0614082 13.5267712,64.5881091 C13.071144,65.5655123 13.1209199,66.7466901 13.659744,67.7480458 C14.169947,68.6961341 15.0339144,69.3217579 16.0301435,69.4647577 L31.9182557,69.4647577 Z M21.0621316,58.8255772 L8.2896353,58.8255772 L7.4094907,69.4647577 L11.6882627,69.4647577 C11.6308427,69.3417779 11.5720005,69.2187981 11.5129805,69.0956396 C11.197259,68.4356958 10.8706936,67.753587 10.7537202,67.0062347 C10.3213809,64.2422285 11.8217688,61.5781434 14.4024715,60.5278103 L21.0621316,58.8255772 Z M61.9304933,58.8254342 L42.7461498,58.8254342 L41.866183,69.4647934 L62.8125934,69.4647934 L62.672332,67.2046826 L45.1430372,67.2046826 L45.1430372,64.6766259 L62.3660325,64.6766259 L61.9304933,58.8254342 Z M52.4051635,51.1511745 L52.4051635,56.2973776 L61.7772547,56.2973776 L61.7772547,53.186597 C58.7327472,54.860409 55.0822181,54.0660454 52.4051635,51.1511745 Z M21.8713456,2.5230055 C21.0580429,2.5230055 20.2321185,3.03619581 19.1916244,4.18680745 C15.5282424,8.23811514 14.6975218,13.376051 14.1639339,18.4823075 L14.077319,19.3328651 C14.0490746,19.6161587 14.0213126,19.8991628 13.9935981,20.1816856 C13.8131604,22.0211985 13.6265008,23.9236312 13.3223345,25.7549216 C13.3063351,25.8519827 13.2922912,25.9527975 13.2780695,26.0552211 C13.1785177,26.7709348 13.0658108,27.5821008 12.1590006,27.6990031 C11.7250614,27.7544154 11.3355649,27.6412669 11.0625086,27.3785049 C10.7729195,27.0998342 10.6351469,26.6842412 10.6746121,26.2082308 C11.0317542,24.1720933 11.2489904,22.0673159 11.4589381,20.0317146 C11.8827443,15.9258347 12.3205945,11.6814237 13.9219563,7.79737207 C13.5953909,7.80595206 13.3349562,8.09945902 13.1031427,8.36114854 C13.0517669,8.41924218 13.0018132,8.47554833 12.9525706,8.52720698 C10.8100736,10.7830278 7.50264274,17.1424049 7.25731866,20.0873058 C7.16185559,21.2327337 7.21963119,22.5000688 7.27562908,23.7255766 C7.33749341,25.0803204 7.40131323,26.4811815 7.25802974,27.7213468 C7.16434439,28.5319765 6.56898905,28.9055633 6.02056528,28.9162883 C5.49080747,28.9318395 4.8698531,28.6007951 4.75519075,27.8614865 C4.79305599,26.7569923 4.76799027,25.6365893 4.74363563,24.5528301 C4.69421527,22.3490254 4.64319497,20.073542 5.12299911,17.8906511 C3.19684949,20.4163839 2.29235026,23.1821776 2.50478669,25.9072163 L8.13213013,49.11518 L16.7604271,49.11518 L16.7604271,51.6434154 L8.44340728,51.6434154 L8.44340728,56.2973418 L30.8850502,56.2973418 L30.8850502,53.6255705 C30.6415039,53.4044571 30.2968058,53.2507324 29.9325528,53.0884277 C29.2456454,52.7820508 28.5350944,52.4653063 28.4998957,51.6521741 L28.4993624,51.6418066 L28.502029,51.6319754 C30.3888912,44.5272122 31.0903758,37.7397296 30.5869281,31.4579299 C30.5165308,30.5806265 30.3327155,29.5638984 30.1549444,28.5805964 C29.9195755,27.2792988 29.6763847,25.93385 29.6852732,24.8645695 C29.7060725,22.3692241 29.9958393,19.7332027 30.2763621,17.1844111 C30.5511962,14.6842394 30.8356299,12.0991617 30.8683398,9.6356337 C30.7111901,9.1724933 30.6180381,8.56563816 30.5195529,7.92339059 C30.3211604,6.62852797 30.0959244,5.16081441 29.2694667,4.58363172 C28.5942921,4.11226884 27.8513868,4.01377777 27.1211032,4.29888349 C25.8644395,4.78955134 24.9375411,6.23903243 24.6717733,7.41735027 L21.4909155,26.6506362 L18.9921652,26.346583 L19.0037203,26.2772282 L22.3152399,6.49571696 C22.7331797,5.24411176 23.2424939,4.30567598 23.8734034,3.61981349 C23.1957401,2.88247109 22.5404759,2.5230055 21.8713456,2.5230055 Z M67.375977,21.5586301 C66.7361789,20.8874251 65.8149691,20.6505817 64.6384801,20.8545351 C64.1650758,20.9369387 63.6946935,21.2581519 63.3819942,21.4930289 C62.0504888,22.4927759 61.0131946,25.1738422 60.0100324,27.7666062 C59.3814339,29.3914407 58.7875007,30.9261854 58.1631687,31.9118111 C57.6294999,32.7542583 56.7040237,33.5768643 55.724505,34.4479114 C54.5373498,35.5030707 53.3100183,36.59398 52.8167035,37.7335091 C52.2158373,39.1216791 52.2522804,44.0900262 52.3996526,45.8151393 C52.5672907,47.7778107 54.096122,49.3937077 55.3488748,50.4034646 C56.4791433,51.3145517 57.9247777,51.6811673 59.3149475,51.4108978 C60.7004953,51.1409858 61.8997389,50.2631461 62.6051346,49.002246 C63.2575544,46.5612404 64.0100594,44.0567788 64.7376764,41.6347207 C65.9285649,37.6716617 67.1596296,33.5738255 68.036041,29.5113817 C68.3355852,28.1226755 69.1732425,23.4446179 67.375977,21.5586301 Z M37.9131753,18.5815171 L37.7838124,18.5856298 C37.4698687,18.6122635 37.1966346,18.7570507 37.0144192,18.9930003 L32.3882825,25.96388 C33.8484941,34.3483121 33.4307321,42.9812063 31.180328,50.9357454 L31.4384516,51.0320915 C34.7149503,43.794696 37.0830388,35.6160048 38.2870823,27.3763599 L38.2957931,27.3159425 C38.5290288,25.7202442 38.7702641,24.0700272 38.9048368,22.4671789 C38.9149698,22.3450929 38.9304359,22.1965519 38.9478574,22.0297785 C39.0520313,21.0312828 39.2264247,19.3603309 38.73151,18.9048767 L38.6333544,18.8240609 C38.3938978,18.6479185 38.0851122,18.5599792 37.7838124,18.5856298 Z" id="Forma-combinada"></path>
        </g>
    </g>
</svg>