<?xml version="1.0" encoding="UTF-8"?>
<svg width="200px" height="200px" viewBox="0 0 200 200" version="1.1" xmlns="http://www.w3.org/2000/svg" xmlns:xlink="http://www.w3.org/1999/xlink">
    <title>z copy 4</title>
    <g id="z-copy-4" stroke="none" stroke-width="1" fill="none" fill-rule="evenodd">
        <path d="M102.977539,36 L102.980065,87.8980496 L109.772613,79.688907 L109.668409,79.3257321 C109.112336,78.9414166 108.227546,78.6552309 108.648153,77.834222 L119.260266,62.4739089 C120.699234,60.4276972 123.183404,59.76256 125.400432,61.0836839 C137.163214,69.8421641 150.403173,77.3684998 162.053857,86.1812512 C163.551243,87.3136881 164.489398,87.9551605 165,89.9136549 L165,91.1732504 C164.662441,91.8598436 164.484978,92.470394 164.096264,93.1673996 C162.082277,96.7792709 156.412926,105.228532 153.758871,108.281599 C153.585197,108.48133 153.247638,108.9846 153.026598,109.000061 L151.4689,108.077767 L112.312043,162.349864 C110.895495,163.901956 109.043182,164.948884 106.896256,165 L54.9386768,164.998422 C50.3776816,164.536802 46.7286328,160.973207 46.0715135,156.475328 L36,78.1488054 L46.9471463,49.419804 L47.0058797,36 L102.977539,36 Z M98.9435651,51.8717872 L95.9178482,51.8717872 L95.9178482,57.5402827 C94.8941188,58.3354181 93.1557999,57.7425373 91.8838746,57.9182875 L91.8838746,51.8717872 L50.0600161,51.9017626 L39.9926075,78.2649204 C43.4512464,104.726839 46.4387551,131.331693 50.4089429,157.683807 C51.0581679,159.302791 53.45108,161.210485 55.1998193,161.210485 L91.8838746,161.210485 L91.8838746,155.667886 L95.5398704,155.667886 L95.9178482,156.045576 L95.9178482,161.210485 L99.9521375,161.210485 C99.7238351,160.26074 98.9435651,158.753769 98.9435651,157.809073 L98.9435651,51.8717872 Z M113.382506,81.8884663 L112.808119,81.9660866 L103.113636,93.9546469 L102.967118,157.567692 C103.12753,161.342377 107.730838,162.351126 109.77735,159.313204 L148.102151,105.5428 L113.382506,81.8884663 Z M95.5398388,143.826963 C95.8995019,144.048149 95.8878183,144.329286 95.9307632,144.695932 C96.0611766,145.805651 96.1028583,149.996835 95.9178166,151.006847 C95.8660301,151.28893 95.7896136,151.478248 95.5398388,151.63696 L91.8841588,151.63696 L91.8841588,143.826963 Z M95.9181008,132.238021 L95.9181008,139.79591 L91.8841272,139.79591 L91.8841272,132.238021 L95.9181008,132.238021 Z M95.5398388,120.397318 C95.8995019,120.618505 95.8878183,120.899642 95.9307632,121.266288 C96.0611766,122.376007 96.1028583,126.567191 95.9178166,127.577202 C95.8660301,127.859286 95.7896136,128.048604 95.5398388,128.207315 L91.8841588,128.207315 L91.8841588,120.397318 Z M95.9181008,108.808661 L95.9181008,116.366549 L91.8841272,116.366549 L91.8841272,108.808661 L95.9181008,108.808661 Z M95.5398388,96.9676738 C95.7896136,97.1263854 95.8660301,97.3153878 95.9178166,97.5977871 C96.1028583,98.6077985 96.0611766,102.798983 95.9307632,103.908702 C95.8878183,104.275347 95.8995019,104.556485 95.5398388,104.777671 L91.8841588,104.777671 L91.8841588,96.9676738 Z M123.020151,64.3093465 C122.807953,64.3216522 122.622595,64.398326 122.464394,64.5399989 L113.928474,77.5698079 L152.0155,103.765735 L160.933818,90.7381346 L160.853612,90.1676565 Z M83.0598141,67.9953042 L83.0598141,90.2915966 C83.0598141,91.2498611 81.6420027,94.415573 81.0852985,95.3728908 C75.3521617,105.226891 60.7183899,104.819542 55.4475416,94.7045984 C55.0007258,93.8473036 53.8131113,90.8563952 53.8131113,90.0394882 L53.8131113,67.9953042 L83.0598141,67.9953042 Z M79.2778258,79.5844035 L57.5950997,79.5844035 L57.5950997,88.5280998 C57.5950997,93.820168 63.1905604,98.6966833 68.3227852,98.7402264 C73.4098547,98.7831385 79.2778258,94.0931014 79.2778258,88.7798927 L79.2778258,79.5844035 Z M95.9181008,85.3786692 L95.9181008,92.9368735 L91.8841272,92.9368735 L91.8841272,85.3786692 L95.9181008,85.3786692 Z M95.5398388,73.5380294 C95.8995019,73.7592159 95.8878183,74.0400376 95.9307632,74.4069989 C96.0611766,75.5164022 96.1028583,79.7079019 95.9178166,80.7179133 C95.8660301,80.9999971 95.7896136,81.189315 95.5398388,81.3477111 L91.8841588,81.3477111 L91.8841588,73.5380294 Z M79.2778258,72.0265148 L57.5950997,72.0265148 L57.5950997,75.8056169 L79.2778258,75.8056169 L79.2778258,72.0265148 Z M95.9181008,61.9489932 L95.9181008,69.5071975 L91.8841272,69.5071975 L91.8841272,61.9489932 L95.9181008,61.9489932 Z M98.9435651,39.7791021 L50.787868,39.7791021 L50.787868,47.8408922 L98.9435651,47.8408922 L98.9435651,39.7791021 Z M88.8585366,42.0464056 L88.8585366,45.6996113 C87.9478532,46.3183656 85.7049324,46.3107928 84.8245631,45.6996113 L84.8245631,42.0464056 L88.8585366,42.0464056 Z M65.5368962,42.0465319 C66.2549593,42.9618842 65.8918228,44.6897262 65.8053015,45.8414105 C65.556474,46.1985904 62.3343476,46.3175452 61.8812163,45.6997375 L61.8812163,42.0465319 Z M58.0994806,42.0466265 L58.0994806,46.0775215 L54.3174922,46.0775215 L54.3174922,42.0466265 L58.0994806,42.0466265 Z M73.4791033,42.0466265 L73.4791033,46.0775215 L69.697115,46.0775215 L69.697115,42.0466265 L73.4791033,42.0466265 Z M81.0427642,42.0466265 L81.0427642,46.0775215 L77.2607759,46.0775215 L77.2607759,42.0466265 L81.0427642,42.0466265 Z M96.4223869,42.0466265 L96.4223869,46.0775215 L92.6403986,46.0775215 L92.6403986,42.0466265 L96.4223869,42.0466265 Z" id="Combined-Shape" fill="#000000"></path>
    </g>
</svg>