<?xml version="1.0" encoding="UTF-8"?>
<svg width="200px" height="200px" viewBox="0 0 200 200" version="1.1" xmlns="http://www.w3.org/2000/svg" xmlns:xlink="http://www.w3.org/1999/xlink">
    <title>z copy</title>
    <g id="z-copy" stroke="none" stroke-width="1" fill="none" fill-rule="evenodd">
        <path d="M81.8185337,39 L118.457311,39.0212199 C120.057706,39.2740906 121.936244,42.7354124 123.316323,43.7076382 L145.051317,49.3203057 L145.782865,49.9307319 L168,87.1872441 L168,89.8344285 C167.117672,91.7643797 166.473754,92.9466827 164.466077,93.8566634 C159.34595,96.1763538 152.285199,97.1927877 146.891895,99.1177876 C143.81829,99.2533641 141.790526,96.7522058 139.917306,94.2423021 L139.567671,93.7722343 C138.697022,92.6000165 137.848091,91.4619671 136.929076,90.6287606 L136.929076,150.855477 C136.929076,154.644647 131.235632,157.253989 128.221455,158.323473 C114.22306,163.289994 82.6345184,163.459753 69.0316986,157.387321 C67.3876668,156.653465 62.8369556,153.892401 62.8369556,151.914351 L62.8369556,90.364219 C59.043691,93.6787698 57.7700453,99.8555334 51.5831074,98.8030256 C46.370739,97.9163868 40.3924093,94.9678796 35.1335653,93.7579908 C32.6040127,92.4041602 31.4109012,89.5490206 32.2840048,86.777346 L54.4294749,49.6856419 C54.7544497,49.39599 55.1443485,49.2340114 55.5495026,49.08335 C61.9443393,46.7035365 70.1251181,45.903192 76.7154363,43.7076382 C78.2235889,42.6049099 79.97157,39.2153821 81.8185337,39 Z M123.822233,48.2929081 L123.365282,48.914298 C121.14261,54.6369554 119.995975,61.4619874 117.669709,67.0615693 C117.030757,68.5996595 115.671256,69.7080464 113.98607,68.8903723 L108.646692,62.8426965 L102.140455,68.5236215 L102.140455,157.605886 C108.940801,157.383077 115.982039,157.09484 122.643313,155.674874 C124.649216,155.247292 132.029975,153.364732 132.625289,151.329742 L133.213508,81.2329359 C134.062487,71.1697449 137.61131,61.729712 141.4436,52.5103662 L123.822233,48.2929081 Z M76.4780912,48.2907861 L58.848919,52.6440517 C58.9679232,52.94519 59.0873157,53.2464078 59.2069543,53.5477337 L59.9266007,55.3572149 C62.327679,61.3946653 64.7133965,67.4981921 65.9458573,73.8961503 C66.7331051,77.9820449 67.018345,82.1071964 67.3642516,86.2482628 L67.4064699,151.329742 C67.9634682,153.234583 74.4661567,154.967543 76.3312139,155.405027 C83.4160898,157.067961 90.8976052,157.371052 98.1570309,157.605886 L98.1570309,68.2590799 L91.6504398,62.5721426 L86.1971786,68.7771994 C85.3450067,69.4523464 84.2618757,69.2012441 83.4089943,68.6654412 L76.4780912,48.2907861 Z M91.8577709,143.765621 C89.7220196,141.640446 93.2580716,138.5579 95.0965206,140.670696 C96.8625953,142.699674 93.8179081,145.716084 91.8577709,143.765621 Z M91.8577709,126.971543 C93.8179081,125.021079 96.8625953,128.037137 95.0965206,130.066468 C93.2580716,132.179264 89.7220196,129.096718 91.8577709,126.971543 Z M92.7731638,112.918478 C95.7351883,112.273392 96.3507246,116.125868 94.641414,116.906053 C91.2125044,118.470668 90.0076852,113.52077 92.7731638,112.918478 Z M109.165055,80.5563743 C114.495918,80.0824629 120.513628,80.9464671 125.922188,80.5553133 C127.039022,80.6999624 127.288075,81.2714854 127.385284,82.2734191 C127.904321,87.6250817 126.953876,93.8014916 127.382446,99.2461681 C127.365062,100.191869 126.442289,100.667549 125.69655,101.007067 C123.17977,102.152943 119.963725,102.714563 117.368185,103.789706 C115.492129,102.893872 108.677593,101.572224 107.534505,100.342177 C107.214497,99.9980604 106.967573,99.1888744 106.913647,98.7089506 C106.499268,95.0184537 106.61457,87.134548 106.909389,83.3375978 C107.045623,81.5823572 107.189662,80.7317923 109.165055,80.5563743 Z M92.7731283,99.1523407 C95.7355076,98.5072553 96.3506891,102.359731 94.6413785,103.139916 C91.2128237,104.704532 90.0080045,99.7546327 92.7731283,99.1523407 Z M123.38554,84.8046013 L111.434911,84.8046013 L111.434911,97.5117937 L117.410048,99.5131854 L123.38554,97.5117937 L123.38554,84.8046013 Z M144.497867,56.4837953 C140.684735,64.9682247 137.87278,73.9927009 137.19303,83.3280489 L145.54481,94.0833628 L146.884444,94.7394118 L163.342856,89.5613989 L163.729917,88.6436376 Z M55.5338925,56.2189001 L36.3114215,88.371669 L36.6935152,89.5575086 L53.1473146,94.7394118 L54.4865938,94.0833628 L62.836246,83.0603243 C62.1682029,73.7186103 59.463391,64.6658409 55.5338925,56.2189001 Z M92.7694032,85.6560857 C96.7904339,84.7362024 96.2103752,91.2726436 92.3809235,89.6344661 C90.6811919,88.9073304 90.9245682,86.0780084 92.7694032,85.6560857 Z M92.7694032,71.8899134 C96.7904339,70.9700301 96.2103752,77.5064713 92.3809235,75.8682938 C90.6811919,75.1411581 90.9245682,72.3118361 92.7694032,71.8899134 Z M113.825002,43.241861 L86.2067575,43.241861 L95.3567843,55.6940608 C96.1997319,57.7760882 94.0778169,58.9163049 94.2885539,59.39057 L100.105106,64.3747744 L105.735755,59.6597093 C106.073147,58.9131219 103.688698,58.2255967 104.689166,55.9773467 L113.825002,43.241861 Z M118.20542,44.566691 L109.609199,56.6715916 L109.699312,57.2639809 L114.619345,62.8317329 L119.622041,46.7435007 C119.801912,46.0473199 119.333217,45.6059457 118.84085,45.1768408 L118.614198,44.9787804 C118.46501,44.8461434 118.322683,44.7111354 118.20542,44.566691 Z M81.825984,44.566691 L80.4877691,45.8993017 L85.4127689,62.5668376 L90.2086303,57.4149959 L90.4225602,56.6715916 L81.825984,44.566691 Z" id="Combined-Shape" fill="#000000"></path>
    </g>
</svg>