<?xml version="1.0" encoding="UTF-8"?>
<svg width="200px" height="200px" viewBox="0 0 200 200" version="1.1" xmlns="http://www.w3.org/2000/svg" xmlns:xlink="http://www.w3.org/1999/xlink">
    <title>z copy 3</title>
    <g id="z-copy-3" stroke="none" stroke-width="1" fill="none" fill-rule="evenodd">
        <g id="Group-6" transform="translate(47.0001, 35.9998)" fill="#000000">
            <path d="M23.1115747,35.7745949 L47.7154403,35.7745949 L47.7154403,31.4917823 L23.1115747,31.4917823 L23.1115747,35.7745949 Z M22.2402081,50.633683 C21.2735881,49.900304 19.9296443,50.2335051 19.3785837,51.3014316 C18.9234472,52.1832366 18.9734217,57.316217 19.1226742,58.5467053 C19.3416898,60.3567616 20.1050579,61.413918 21.6331359,62.3256774 C23.4657561,63.4188464 32.5134799,68.0695266 34.1435191,68.4145076 C34.9759795,68.590532 35.8463399,68.625535 36.6767879,68.4074397 C38.9313401,67.8157552 46.7240008,63.7210834 48.975199,62.3583244 C50.3721359,61.512532 51.1921865,60.8444469 51.4873376,59.0848756 L51.4870022,31.1084327 C51.288446,29.4508412 49.5500729,27.7454571 47.8536247,27.7003572 C39.853352,28.2021783 31.1403563,27.0763623 23.226952,27.7023766 C20.8426004,27.8911906 19.4134652,29.2122153 19.1226742,31.6459299 C18.8228275,34.1540258 18.7755362,41.48748 19.1176432,43.9397058 C19.5607053,47.1185793 23.1115747,46.0503162 23.1115747,44.2143443 L23.1115747,39.5535671 L47.7154403,39.5535671 L47.7154403,58.5746403 L35.0967231,64.7048682 L23.2339954,58.703882 C22.658786,56.7194841 23.9366563,51.9203779 22.2402081,50.633683 L22.2402081,50.633683 Z" id="Fill-4"></path>
            <path d="M102.868555,87.597907 L99.4333982,90.5782061 L74.1946223,61.4719084 L77.9678613,58.188026 L78.4816925,58.4337198 L103.149955,86.8312078 L102.868555,87.597907 Z M67.0469339,122.43964 L67.0469339,111.73244 L91.7762387,87.6773368 L96.654282,93.5585052 L67.0469339,122.43964 Z M67.0469339,68.4001362 L71.0653495,64.6060185 L71.5640879,64.6060185 L89.0792952,84.77916 L67.0469339,106.31607 L67.0469339,68.4001362 Z M106.661247,85.333149 C98.5157465,75.0722366 89.4458863,65.4679661 80.9431859,55.4631812 C79.7558734,54.5127165 78.4974563,54.1909586 76.979105,54.434633 C74.3998865,54.8489467 69.5480044,61.4227697 67.0469339,62.98343 L67.0469339,4.15727323 C67.0469339,2.40005792 64.8309526,0.500474846 63.2810738,0 L25.8733508,0 C24.2412992,1.07499439 24.2745037,3.22801227 26.2657677,3.76349007 L62.866856,4.01053011 C62.9735129,4.08693077 63.2810738,4.82603149 63.2810738,4.91286572 L63.2810738,14.4861721 L62.9044207,14.8644732 L58.6364682,14.8644732 C58.2209088,14.8644732 57.4629071,16.3877745 57.5514524,16.9525336 C57.6282588,17.4432481 58.7407773,18.6434453 59.1385605,18.6434453 L63.2810738,18.6434453 L63.2810738,125.210931 L56.2514458,125.210931 L56.2514458,69.4078172 C56.2514458,68.4916824 54.435931,67.716569 53.4941305,68.1530962 C53.3643311,68.213005 52.4855857,69.0847131 52.4855857,69.1560652 L52.4855857,125.210931 L18.7182836,125.210931 C18.6669676,125.210931 18.2215577,124.965574 18.1554841,124.892202 L3.79906464,45.1817383 L12.8078822,18.7588877 L51.5927535,18.6289729 C54.1303824,18.2267756 53.5417572,14.8644732 52.1089326,14.8644732 L13.3203719,14.8644732 L13.3203719,4.40902521 C13.3203719,3.37610167 17.8254515,3.88936605 18.7226438,3.78402064 C20.8876445,3.52923957 21.0694307,1.0881205 19.3458152,0 L13.0694934,0 C11.7044194,0.63510157 9.99556145,1.93963452 9.66619962,3.51342093 C8.89243409,7.2109439 10.0609643,12.5623562 9.49447532,16.4416252 L0.127451626,43.5722758 L0,45.2318867 L14.1427703,125.015722 C14.6136705,127.043874 16.2655106,128.938745 18.4570078,129.000337 L64.1698812,129.000337 C66.7531244,128.768105 69.9820107,125.075968 71.9491259,123.2023 C83.4445918,112.253109 94.4651326,100.76743 105.960934,89.8138629 C106.963442,88.461874 107.329362,86.9459771 106.661247,85.333149 L106.661247,85.333149 Z" id="Fill-1"></path>
        </g>
    </g>
</svg>