<?xml version="1.0" encoding="UTF-8"?>
<svg width="29px" height="38px" viewBox="0 0 29 38" version="1.1" xmlns="http://www.w3.org/2000/svg" xmlns:xlink="http://www.w3.org/1999/xlink">
    <title>Group 6 2</title>
    <g id="Page-1" stroke="none" stroke-width="1" fill="none" fill-rule="evenodd">
        <g id="Group-6" fill="#FF4604">
            <path d="M15.5293709,0 C28.7933836,1.68423249 32.8598603,14.895594 25.0403027,25.3372407 C21.9064419,29.5218497 18.4471882,33.4745917 15.3073289,37.657218 C14.8258773,38.1140128 14.1683063,38.1145085 13.6864613,37.657218 C10.5498471,33.4724108 7.08134985,29.525914 3.9534875,25.3372407 C-3.78789315,14.9701404 0.0980392106,1.73022919 13.3472031,0.0686976526 L13.464321,0 L15.5293709,0 Z M13.5229291,2.24789029 C8.14534227,2.62181171 3.31705877,6.69787243 2.3512054,12.0814686 C1.54573757,16.5702109 3.08262643,20.4751718 5.72353033,24.0015522 C8.4995475,27.7084497 11.565655,31.2090561 14.3495391,34.9122858 L14.5268383,35.0210323 L23.2702599,24.0015522 C30.8544018,15.3130339 25.6490008,1.40478273 13.5229291,2.24789029 Z M14.5,8 C18.6421356,8 22,11.3578644 22,15.5 C22,19.6421356 18.6421356,23 14.5,23 C10.3578644,23 7,19.6421356 7,15.5 C7,11.3578644 10.3578644,8 14.5,8 Z M14.5,10 C11.4624339,10 9,12.4624339 9,15.5 C9,18.5375661 11.4624339,21 14.5,21 C17.5375661,21 20,18.5375661 20,15.5 C20,12.4624339 17.5375661,10 14.5,10 Z" id="Combined-Shape"></path>
        </g>
    </g>
</svg>