<?xml version="1.0" encoding="UTF-8"?>
<svg width="23px" height="23px" viewBox="0 0 23 23" version="1.1" xmlns="http://www.w3.org/2000/svg" xmlns:xlink="http://www.w3.org/1999/xlink">
    <title>Group 3</title>
    <g id="Page-1" stroke="none" stroke-width="1" fill="none" fill-rule="evenodd">
        <g id="5_Vip" transform="translate(-811, -337)" fill="#FF4604">
            <g id="Grupo" transform="translate(44, 179)">
                <g transform="translate(759, 151)" id="Group-3">
                    <g transform="translate(8, 7)">
                        <path d="M21.0233765,6.67713245 C19.4743635,5.13328604 17.9127923,3.57698819 16.3690009,2.03841222 C15.8730867,2.53179217 15.3638212,3.03841222 14.8266635,3.57283771 C14.8828446,3.61757065 14.959978,3.6680352 15.0239584,3.73154412 C15.7309815,4.43356799 16.4389959,5.13473541 17.1405331,5.84222738 C17.5642049,6.26952907 17.4536272,6.9244483 16.9283006,7.15246112 C16.6150081,7.28843871 16.284597,7.21531123 16.0057403,6.93867851 C15.2924381,6.23125243 14.5818459,5.52105936 13.8696013,4.81264507 C13.8138168,4.75710771 13.7534055,4.70611611 13.7199612,4.67561338 C13.2164461,5.17610844 12.7280668,5.66158272 12.2273937,6.15924491 C12.6687131,6.59735103 13.1260275,7.04757917 13.5787813,7.5022872 C13.8157335,7.74037976 13.8848694,8.02742161 13.7663602,8.3415404 C13.651949,8.64472301 13.4193591,8.81706671 13.0954253,8.84888705 C12.8220545,8.87570046 12.6016262,8.76238579 12.4118661,8.56975087 C11.9744464,8.1257155 11.532334,7.68622589 11.1177172,7.27051919 C10.6095093,7.77700938 10.1213943,8.26334011 9.59957074,8.78333583 C9.65343854,8.82549943 9.73077022,8.87458049 9.79415576,8.93756236 C10.4896121,9.62792536 11.1841431,10.3192107 11.8762947,11.0128018 C12.2560792,11.3933283 12.2832444,11.8566667 11.9520401,12.1934484 C11.6211662,12.5299666 11.1345054,12.5026262 10.7496316,12.1220338 C10.3339573,11.7109388 9.92079464,11.2972085 9.50697102,10.8842688 C9.16367124,10.5417554 8.82096632,10.1985833 8.52023201,9.8980359 C8.01294941,10.3998486 7.51967905,10.8878922 7.00558863,11.3964906 C7.05231811,11.4356237 7.12641111,11.4893164 7.1905898,11.5528912 C7.58233754,11.9413892 7.97600206,12.3281084 8.36067759,12.723458 C8.61765671,12.9876393 8.66055265,13.3507074 8.49062125,13.6561299 C8.32485385,13.9539762 8.00177928,14.1223012 7.65444768,14.0395551 C7.48861419,14.0000267 7.3198725,13.8963965 7.19455553,13.7776138 C6.74193387,13.3487968 6.30715798,12.901138 5.88150327,12.4764057 C5.37494773,12.9801948 4.88689891,13.4656032 4.35053431,13.9990385 C4.43559916,14.0637333 4.54333475,14.1287575 4.63031636,14.2145999 C5.32187308,14.897189 6.01263665,15.5806345 6.69692287,16.2704705 C7.05595336,16.6324186 7.03268776,17.1623623 6.65918236,17.4643591 C6.33088625,17.729858 5.89663913,17.6984329 5.56477387,17.3710062 C4.84962107,16.6654907 4.1399542,15.9544412 3.42757742,15.2460928 C3.36624084,15.1850873 3.3014673,15.1275735 3.27879656,15.1062941 C2.82643928,15.5559293 2.39655446,15.9833628 1.98253255,16.3949849 C3.52434116,17.9305303 5.08657327,19.4864329 6.6338678,21.0274464 C11.4224833,16.2518922 16.2247145,11.4627006 21.0233765,6.67713245 M16.3619286,0 C16.5841416,0.124250847 16.7986874,0.191251436 16.940396,0.331445392 C18.8775216,2.24764906 20.8060547,4.17254898 22.7328032,6.09916179 C23.1116623,6.47797534 23.0835718,6.92392125 22.6743748,7.33185404 C18.0457764,11.9466596 13.4169136,16.5612675 8.78811688,21.1759414 C8.27508398,21.6874385 7.76343908,22.2001873 7.2487538,22.7099716 C6.86103787,23.0939897 6.41786787,23.0986672 6.02922661,22.7120139 C4.11510231,20.8076687 2.20322526,18.9010836 0.292802312,16.9930491 C-0.112759382,16.5879492 -0.0951118967,16.1512266 0.333913683,15.7234637 C5.03838968,11.033159 9.74313007,6.3431836 14.4478044,1.65314236 C14.8850258,1.21721031 15.312399,0.770737357 15.7650867,0.35140722 C15.9235836,0.204625201 16.1444746,0.124777892 16.3619286,0" id="Fill-1"></path>
                    </g>
                </g>
            </g>
        </g>
    </g>
</svg>