<?xml version="1.0" encoding="UTF-8"?>
<svg width="30px" height="36px" viewBox="0 0 30 36" version="1.1" xmlns="http://www.w3.org/2000/svg" xmlns:xlink="http://www.w3.org/1999/xlink">
    <title>Fill 4</title>
    <g id="Page-1" stroke="none" stroke-width="1" fill="none" fill-rule="evenodd">
        <g id="Frame-4-Copia" transform="translate(-7, -4)" fill="#FF4604">
            <path d="M12.8137537,18.2657698 C11.0215887,18.4899302 9.67220085,19.8535483 9.5207091,21.6587828 C9.18380081,25.6668522 9.76929595,30.1270319 9.5207091,34.1823237 C9.68857834,36.0341975 11.0596079,37.4517423 12.9406792,37.5989478 C19.2214452,37.5211184 25.5335039,37.7426553 31.7964302,37.4861388 C33.2736209,37.0829999 34.3653559,35.7852599 34.5019324,34.2572381 C34.8604824,30.2442132 34.2337511,25.7216534 34.5057343,21.6549933 C34.3375726,19.7614356 32.9019105,18.3841172 31.0068014,18.2421586 L12.8137537,18.2657698 Z M28.5580747,15.8448959 C28.5522256,13.5062238 28.7902841,11.2526685 27.4017072,9.234642 C24.832489,5.50116176 19.3083044,5.44548603 16.6823499,9.14573573 C15.2314801,11.1899969 15.4622272,13.4549205 15.4642744,15.8448959 L28.5580747,15.8448959 Z M30.9766785,15.8341105 C31.240473,15.9690731 31.5340979,15.8921182 31.8110529,15.940215 C34.7054812,16.4427541 36.7172799,18.7446977 36.9141022,21.6547018 C36.6979779,25.7747057 37.1928119,30.1698818 36.9103003,34.2578211 C36.7023647,37.2686829 34.3858277,39.7991593 31.3083226,40 L12.5683838,39.9953361 C9.63973833,39.6878078 7.33022031,37.3456378 7.11234125,34.40765 C6.78830098,30.0390001 7.27523874,25.1774305 7.2070967,20.777882 C7.66625123,18.4639871 9.44759533,16.5427372 11.7761229,16.0314533 C12.20223,15.9378831 12.6242428,15.9250573 13.0480102,15.8370255 C13.0164251,13.1459348 12.9377546,10.7005752 14.3500204,8.32138516 C17.489526,3.0313165 25.0249245,2.5045833 28.9321248,7.25917389 C31.0135278,9.79198227 31.0535942,12.6926586 30.9766785,15.8341105 L30.9766785,15.8341105 Z" id="Fill-4"></path>
        </g>
    </g>
</svg>