<?xml version="1.0" encoding="UTF-8"?>
<svg width="46px" height="46px" viewBox="0 0 46 46" version="1.1" xmlns="http://www.w3.org/2000/svg" xmlns:xlink="http://www.w3.org/1999/xlink">
    <title>Artboard Copy 3</title>
    <g id="Artboard-Copy-3" stroke="none" stroke-width="1" fill="none" fill-rule="evenodd">
        <g id="Group-8" transform="translate(5, 5)" stroke="#000000" stroke-width="2">
            <path d="M18.4756088,0 C13.216265,0.0259564695 8.9862235,4.27999145 9,9.52904247 C9.01399086,14.78426 13.2653354,19.0120138 18.5237976,19 C23.7794685,18.9877881 28.0149459,14.7331658 28,9.48088469 C27.9851217,4.23109956 23.7086544,-0.0255782263 18.4756088,0" id="Path"></path>
            <path d="M36.4152459,33.7699313 C37.0088366,33.4447991 37.0806316,33.1323834 36.936309,32.6041025 C34.7602982,24.6354602 26.4718234,19.4269089 16.9331634,20.0504845 C8.70036625,20.5884989 1.70127076,25.8560795 0.0373486745,32.7496348 C-0.0718090099,33.2014602 0.049802907,33.4532767 0.515005119,33.710745 C6.00036191,36.7460444 30.9562628,36.7601738 36.4152459,33.7699313 Z" id="Path"></path>
        </g>
    </g>
</svg>