<?xml version="1.0" encoding="UTF-8"?>
<svg width="27px" height="31px" viewBox="0 0 27 31" version="1.1" xmlns="http://www.w3.org/2000/svg" xmlns:xlink="http://www.w3.org/1999/xlink">
    <title>Combined Shape 2</title>
    <g id="Page-1" stroke="none" stroke-width="1" fill="none" fill-rule="evenodd">
        <g id="5_Vip" transform="translate(-145, -975)" fill="#262626">
            <g id="Grupo" transform="translate(44, 179)">
                <g transform="translate(6, 796)" fill-rule="nonzero" id="Combined-Shape-2">
                    <g transform="translate(95.6863, 0)">
                        <path d="M20.3645354,0 C23.6501824,0 26.3137255,2.62442539 26.3137255,5.86181818 C26.3137255,9.09921097 23.6501824,11.7236364 20.3645354,11.7236364 C18.9612144,11.7236364 17.6713776,11.2448889 16.654079,10.4441122 L11.4418633,13.7513859 C11.7359613,14.4457781 11.8983802,15.2078365 11.8983802,16.0072727 C11.8983802,17.0824079 11.6046186,18.089939 11.0918674,18.9561921 L15.5055917,21.755052 C16.5831068,20.2553511 18.3577896,19.2763636 20.3645354,19.2763636 C23.6501824,19.2763636 26.3137255,21.900789 26.3137255,25.1381818 C26.3137255,28.3755746 23.6501824,31 20.3645354,31 C17.0788884,31 14.4153453,28.3755746 14.4153453,25.1381818 C14.4153453,24.6085723 14.4866274,24.0953672 14.620254,23.6073726 L9.74978226,20.5171895 C8.71905243,21.3614114 7.39429242,21.8690909 5.94919011,21.8690909 C2.66354314,21.8690909 0,19.2446655 0,16.0072727 C0,12.7698799 2.66354314,10.1454545 5.94919011,10.1454545 C7.68339074,10.1454545 9.24428291,10.8765787 10.3316935,12.0430622 L15.2780318,8.90365698 C14.7306187,8.01687396 14.4153453,6.97562338 14.4153453,5.86181818 C14.4153453,2.62442539 17.0788884,0 20.3645354,0 Z M20.3645354,21.08 C18.0898567,21.08 16.2458653,22.8969099 16.2458653,25.1381818 C16.2458653,27.3794537 18.0898567,29.1963636 20.3645354,29.1963636 C22.6392141,29.1963636 24.4832055,27.3794537 24.4832055,25.1381818 C24.4832055,22.8969099 22.6392141,21.08 20.3645354,21.08 Z M5.94919011,11.9490909 C3.67451144,11.9490909 1.83052003,13.7660008 1.83052003,16.0072727 C1.83052003,18.2485447 3.67451144,20.0654545 5.94919011,20.0654545 C8.22386878,20.0654545 10.0678602,18.2485447 10.0678602,16.0072727 C10.0678602,13.7660008 8.22386878,11.9490909 5.94919011,11.9490909 Z M20.3645354,1.80363636 C18.0898567,1.80363636 16.2458653,3.62054625 16.2458653,5.86181818 C16.2458653,8.10309011 18.0898567,9.92 20.3645354,9.92 C22.6392141,9.92 24.4832055,8.10309011 24.4832055,5.86181818 C24.4832055,3.62054625 22.6392141,1.80363636 20.3645354,1.80363636 Z" id="Combined-Shape"></path>
                    </g>
                </g>
            </g>
        </g>
    </g>
</svg>