<?xml version="1.0" encoding="UTF-8"?>
<svg width="46px" height="46px" viewBox="0 0 46 46" version="1.1" xmlns="http://www.w3.org/2000/svg" xmlns:xlink="http://www.w3.org/1999/xlink">
    <title>Artboard Copy 20</title>
    <g id="Artboard-Copy-20" stroke="none" stroke-width="1" fill="none" fill-rule="evenodd">
        <g id="Group-7" transform="translate(3, 8)" fill="#243D8B">
            <path d="M1.91555691,0 C2.05861551,0.155426072 2.1488633,0.261228158 2.2470914,0.359188717 C7.50376133,5.60294605 12.760666,10.8464693 18.0188615,16.0888222 C19.1166221,17.1833588 20.3615487,17.1814862 21.4625953,16.0836725 C26.7206735,10.8412026 31.9775782,5.59756232 37.2341307,0.353570907 C37.3310679,0.256780725 37.4186165,0.150510489 37.5545163,0 L1.91555691,0 Z" id="Path"></path>
            <path d="M0.192868534,1.81841482 C0.135598153,1.86359138 0.0782104139,1.90876793 0.0208226751,1.95394449 C0.0138985921,2.10679573 0.000989284847,2.25976401 0.000989284847,2.41273229 C0,12.0494999 0,17.0704174 0.000402498151,26.7073021 C0.00051985549,28.2375701 0.901706862,29.1323233 2.44824188,29.1324403 C13.9734367,29.1336107 25.4986316,29.1336107 37.0238264,29.1325574 C38.5694225,29.1323233 39.472722,28.2362826 39.4728393,26.7077702 C39.4733333,17.0710026 39.4733333,12.049968 39.4723699,2.41320044 C39.4723699,2.26058327 39.4588738,2.10808314 39.4518324,1.95546598 C39.3952661,1.91181091 39.3389346,1.86803881 39.2824857,1.82426671 C39.1955239,1.97395793 39.1361411,2.15103598 39.0177276,2.2693611 C33.8156288,7.4667715 28.6130606,12.6637138 23.393593,17.8435685 C22.9361341,18.2974407 22.408026,18.7246283 21.8356743,19.0109026 C19.9083147,19.9751762 17.7780443,19.5482227 16.1633247,17.9390713 C10.9237889,12.7174341 5.686835,7.49333906 0.453871256,2.26514774 C0.335809773,2.1470567 0.278539392,1.9685742 0.192868534,1.81841482 L0.192868534,1.81841482 Z" id="Path"></path>
        </g>
    </g>
</svg>