<?xml version="1.0" encoding="UTF-8"?>
<svg width="200px" height="200px" viewBox="0 0 200 200" version="1.1" xmlns="http://www.w3.org/2000/svg" xmlns:xlink="http://www.w3.org/1999/xlink">
    <title>z</title>
    <g id="z" stroke="none" stroke-width="1" fill="none" fill-rule="evenodd">
        <path d="M133.784139,120.760443 C133.555072,124.121194 133.628599,127.636927 133.751935,131.176183 L133.898369,135.160837 C134.039156,139.14155 134.123005,143.089642 133.789993,146.817938 C133.397768,151.207816 125.506444,156.95627 121.900319,159.162231 C107.931407,167.707751 94.6753182,168.387038 80.2487536,160.388876 C76.3020582,158.200826 66.770553,151.752418 66.2440285,147.066299 C66.0356914,145.21307 65.6011107,140.164228 68.6335337,140.792534 C71.0643619,141.296144 69.7712949,144.989856 70.1655857,146.753179 C70.7578827,149.403158 79.2700861,155.356913 81.795613,156.778869 C94.3919109,163.871085 105.829097,163.818382 118.390271,156.682763 C122.636214,154.270466 126.989253,150.959801 129.795432,146.947802 L129.907348,120.75941 C129.899428,119.94957 130.590212,119.011243 131.393256,118.870701 C132.409115,118.692612 133.8506,119.58788 133.784139,120.760443 Z M99.6924527,144.659134 C102.354346,144.22924 102.826461,148.099318 100.861895,148.686633 C97.6703782,149.64046 96.8105145,145.124508 99.6924527,144.659134 Z M67.3917072,60.0553251 C68.9637048,61.7449321 70.001602,70.5422561 70.123505,73.0513484 C71.1162912,93.4764757 69.350764,114.701109 70.1162735,135.209253 C69.7901658,138.014586 66.2446483,136.815844 66.2446483,135.462436 L66.2446483,103.876257 L52.9534345,141.763068 C51.6180113,143.539825 49.7904995,144.273194 47.5593993,144.097516 C45.9288607,143.96903 37.5860818,141.482673 36.3608535,140.602561 C34.8508404,139.517837 33.9172839,137.590204 34.0057841,135.716652 L53.3508244,67.9008888 C54.7137963,66.1155201 56.9142486,67.3428534 56.8526083,69.3352463 L40.9924784,124.913501 L41.4249929,125.48187 L53.6121927,128.888641 L66.2229537,91.0910468 C66.0287354,83.0191688 66.8737917,74.658628 65.3899499,66.699046 C65.1619845,65.4751573 63.8871684,61.884441 63.930902,61.2178987 C64.039375,59.5620494 66.3197185,58.9030854 67.3917072,60.0553251 Z M137.625185,51.4252395 C140.923797,53.477225 143.200697,56.571221 144.610846,60.166071 L166,134.560106 L166,137.138436 C165.456258,138.625497 164.72174,139.931369 163.343617,140.798046 C161.872516,141.723282 155.23879,143.594079 153.329321,143.930967 C150.010047,144.516215 147.386722,143.225155 146.213492,140.042287 L133.779387,103.876085 L133.779387,114.318924 C133.779387,114.380928 133.255962,115.346122 133.193633,115.408126 C132.140584,116.453237 130.098536,115.864889 129.928423,114.303767 C130.436008,100.628457 129.200793,86.4071668 129.902252,72.7952378 C130.012791,70.6492129 130.369202,68.0471147 130.767625,65.925547 C131.000756,64.685124 131.928114,60.4292432 132.902994,59.8105818 C134.236007,58.9645727 136.156151,59.8174711 136.090034,61.4354292 C136.050777,62.3930454 134.903374,65.2738168 134.634085,66.6988738 C133.131992,74.6505331 134.007697,83.0255414 133.801426,91.0908746 L146.412187,128.888469 L159.022259,125.117941 L140.938949,61.5184456 C139.87798,58.7375694 137.785656,56.1251372 135.240845,54.5839951 C133.738064,53.6739153 130.783122,53.2312761 131.246973,50.949876 C131.851322,47.9771321 136.169925,50.5196377 137.625185,51.4252395 Z M160.327034,129.144752 L147.955947,132.49882 C147.751742,132.723757 149.482834,137.672014 149.75591,138.303766 C150.270382,139.495619 150.532095,140.480792 152.135773,140.176629 C153.826575,139.327519 160.515054,138.34958 161.546064,137.324104 C162.367313,136.507253 161.964466,134.758809 161.410146,133.01365 L161.240378,132.491136 C160.809962,131.189772 160.354676,129.942843 160.327034,129.144752 Z M39.6970008,129.144924 C39.6298509,131.110793 36.9586602,135.813102 38.4783153,137.323931 C38.8195748,137.663575 46.7418917,139.995612 47.6761369,140.122031 C48.3868934,140.218137 48.8603866,140.360746 49.480921,139.83509 C49.9289317,139.455489 52.3308339,132.787311 52.0680882,132.498648 L39.6970008,129.144924 Z M99.6924527,125.320591 C102.354346,124.890697 102.826461,128.760775 100.861895,129.34809 C97.6703782,130.302262 96.8105145,125.786309 99.6924527,125.320591 Z M99.6924527,105.982186 C102.354346,105.552292 102.826461,109.42237 100.861895,110.009685 C97.6703782,110.963512 96.8105145,106.44756 99.6924527,105.982186 Z M99.6924527,86.6436429 C102.354346,86.2137489 102.826461,90.0838275 100.861895,90.6711424 C97.6703782,91.625314 96.8105145,87.1093612 99.6924527,86.6436429 Z M99.6924527,67.3052722 C102.354346,66.8753783 102.826461,70.7454568 100.861895,71.3327718 C97.6703782,72.2865989 96.8105145,67.7706461 99.6924527,67.3052722 Z M104.909591,34 C108.708212,34.7261349 115.867085,34.9018127 118.109205,38.7164321 C118.910184,40.0794851 119.381611,43.0766861 120.229422,44.073227 C121.525588,45.5964569 127.24332,46.5103259 127.589057,48.3194627 C127.811512,49.4837587 127.104199,50.6749231 125.921327,50.7830855 C124.329701,50.9287947 122.24392,49.2316094 120.634732,48.9563808 C120.08548,53.9997115 116.670474,59.1956406 113.290593,62.8824631 C111.089452,65.2837374 108.917582,67.4969332 105.802857,64.6926333 L100.26488,56.434399 L99.7328459,56.5942314 L93.9527847,64.9396156 C90.8528674,67.4352737 88.6754872,65.0298658 86.6151889,62.7429543 C83.2821408,59.043731 79.9287755,53.9831771 79.3895097,48.9563808 C75.4445361,50.8309663 71.0157385,51.7916827 67.0225547,53.4716447 C63.0751706,55.132661 61.2387055,57.2676629 59.3216604,60.9813538 C59.1775414,61.2606273 59.0502799,61.6026731 58.9143555,61.9533448 L58.8103891,62.21712 C58.3671051,63.315872 57.7769164,64.3666698 56.261,63.7171049 C53.5667374,62.5621095 56.0657486,58.3988902 57.1146653,56.7110055 C61.3619859,49.8774836 68.0618293,49.3800744 74.8202137,46.5747411 C76.1439287,46.0253174 79.4786986,44.7711157 80.1037097,43.6088865 C80.8068902,42.3026704 81.1161244,39.9234419 81.8592505,38.6606286 C83.8313929,35.3096607 91.1493603,34.4106038 94.7052085,34.2387151 L95.114651,34 L104.909591,34 Z M83.6395851,45.3405184 C81.0741126,49.5771091 88.0480656,58.9465915 91.1390295,61.8373524 L97.1766711,53.6004751 C94.043351,52.074834 90.9565194,50.3511248 88.0738925,48.3914562 C86.7780706,47.5106559 85.5735037,46.3081242 84.2852577,45.4762382 C84.0448953,45.3208839 83.9367667,44.8499985 83.6395851,45.3405184 Z M115.73864,45.4762382 C114.450394,46.3081242 113.246171,47.5106559 111.950349,48.3914562 C109.067722,50.3511248 105.980891,52.074834 102.847571,53.6004751 L108.885212,61.8373524 C111.975832,58.9465915 118.950129,49.5771091 116.384657,45.3405184 C116.087475,44.8499985 115.979002,45.3208839 115.73864,45.4762382 Z M96.6081348,37.9434498 C92.8129573,38.1594302 88.5890531,38.5145749 85.3283203,40.5720719 C88.9750793,45.3077941 94.8398528,47.8213645 99.9253425,50.700758 C105.142033,47.9343494 110.969271,45.3656645 114.651499,40.5710385 C114.576085,39.6475244 109.308773,38.564867 108.354555,38.4181243 C104.646845,37.8487216 100.354758,37.7298807 96.6081348,37.9434498 Z" id="Combined-Shape" fill="#000000"></path>
    </g>
</svg>