<?xml version="1.0" encoding="UTF-8"?>
<svg width="38px" height="38px" viewBox="0 0 38 38" version="1.1" xmlns="http://www.w3.org/2000/svg" xmlns:xlink="http://www.w3.org/1999/xlink">
    <title>Group 6 Copia</title>
    <g id="Page-1" stroke="none" stroke-width="1" fill="none" fill-rule="evenodd">
        <g id="Group-6-Copia" fill="#FF4604">
            <path d="M17.9354888,1.80413202 C5.05421857,2.58322736 -2.51543916,17.0047752 4.34100552,28.0648932 C10.8328111,38.5369942 25.9163944,39.0318531 33.0428723,28.9542108 C41.386632,17.1550782 32.2669854,0.937235921 17.9354888,1.80413202 L17.9354888,1.80413202 Z M20.1768739,0 L22.1216488,0.244353983 C30.2190762,1.5804137 36.7621514,8.30118992 37.8264176,16.459716 C37.884629,16.9061606 37.871638,17.3949677 37.9853832,17.8229592 C37.9515671,18.6088009 38.0311986,19.4158734 37.9853832,20.1994332 C37.0129462,36.8303855 16.1603896,44.2179514 4.88930293,31.7491521 C-5.75881317,19.9695638 2.0879187,0.920469448 17.802406,0 L20.1768739,0 Z" id="Fill-1"></path>
            <path d="M21.7,29.475 C21.2,29.6083333 20.5708333,29.725 19.8125,29.825 C19.0541667,29.925 18.3166667,29.975 17.6,29.975 C16.2666667,29.975 15.0541667,29.7875 13.9625,29.4125 C12.8708333,29.0375 11.9333333,28.4958333 11.15,27.7875 C10.3666667,27.0791667 9.7625,26.2125 9.3375,25.1875 C8.9125,24.1625 8.7,22.9916667 8.7,21.675 C8.7,19.7583333 9.025,17.975 9.675,16.325 C10.325,14.675 11.2291667,13.2458333 12.3875,12.0375 C13.5458333,10.8291667 14.9166667,9.88333333 16.5,9.2 C18.0833333,8.51666667 19.8,8.175 21.65,8.175 C22.9,8.175 24.05,8.34166667 25.1,8.675 C26.15,9.00833333 27.0583333,9.5125 27.825,10.1875 C28.5916667,10.8625 29.1916667,11.7 29.625,12.7 C30.0583333,13.7 30.275,14.875 30.275,16.225 C30.275,16.8583333 30.225,17.5166667 30.125,18.2 C30.025,18.8833333 29.8666667,19.5541667 29.65,20.2125 C29.4333333,20.8708333 29.1458333,21.5 28.7875,22.1 C28.4291667,22.7 28,23.2208333 27.5,23.6625 C27,24.1041667 26.4125,24.4583333 25.7375,24.725 C25.0625,24.9916667 24.2916667,25.125 23.425,25.125 C22.425,25.125 21.6916667,24.8166667 21.225,24.2 C20.7416667,24.4833333 20.2291667,24.7 19.6875,24.85 C19.1458333,25 18.575,25.075 17.975,25.075 C16.6916667,25.075 15.6791667,24.6791667 14.9375,23.8875 C14.1958333,23.0958333 13.825,21.9916667 13.825,20.575 C13.825,19.6916667 13.9875,18.8083333 14.3125,17.925 C14.6375,17.0416667 15.1208333,16.25 15.7625,15.55 C16.4041667,14.85 17.1916667,14.2791667 18.125,13.8375 C19.0583333,13.3958333 20.125,13.175 21.325,13.175 C22.2416667,13.175 23.025,13.2541667 23.675,13.4125 C24.325,13.5708333 24.85,13.7333333 25.25,13.9 L23.45,21.4 C23.4166667,21.5 23.3916667,21.6 23.375,21.7 C23.3583333,21.8 23.35,21.8916667 23.35,21.975 C23.35,22.4916667 23.65,22.75 24.25,22.75 C24.8166667,22.75 25.3166667,22.5708333 25.75,22.2125 C26.1833333,21.8541667 26.55,21.3791667 26.85,20.7875 C27.15,20.1958333 27.3791667,19.525 27.5375,18.775 C27.6958333,18.025 27.775,17.25 27.775,16.45 C27.775,14.4833333 27.225,12.975 26.125,11.925 C25.025,10.875 23.425,10.35 21.325,10.35 C19.9916667,10.35 18.7166667,10.6208333 17.5,11.1625 C16.2833333,11.7041667 15.2083333,12.4666667 14.275,13.45 C13.3416667,14.4333333 12.6,15.6083333 12.05,16.975 C11.5,18.3416667 11.225,19.8583333 11.225,21.525 C11.225,22.675 11.4,23.6458333 11.75,24.4375 C12.1,25.2291667 12.5791667,25.8708333 13.1875,26.3625 C13.7958333,26.8541667 14.5166667,27.2125 15.35,27.4375 C16.1833333,27.6625 17.0833333,27.775 18.05,27.775 C18.8333333,27.775 19.5666667,27.7208333 20.25,27.6125 C20.9333333,27.5041667 21.4666667,27.4083333 21.85,27.325 L21.7,29.475 Z M20.6,22.275 C20.6,22.075 20.6166667,21.8791667 20.65,21.6875 C20.6833333,21.4958333 20.725,21.3 20.775,21.1 L22.1,15.6 C21.8166667,15.5166667 21.4,15.475 20.85,15.475 C20.15,15.475 19.5375,15.6166667 19.0125,15.9 C18.4875,16.1833333 18.0458333,16.5541667 17.6875,17.0125 C17.3291667,17.4708333 17.0583333,17.9916667 16.875,18.575 C16.6916667,19.1583333 16.6,19.7416667 16.6,20.325 C16.6,21.9583333 17.2583333,22.775 18.575,22.775 C19.2583333,22.775 19.9333333,22.6083333 20.6,22.275 Z" id="Forma" fill-rule="nonzero"></path>
        </g>
    </g>
</svg>