<?xml version="1.0" encoding="UTF-8"?>
<svg width="80px" height="80px" viewBox="0 0 80 80" version="1.1" xmlns="http://www.w3.org/2000/svg" xmlns:xlink="http://www.w3.org/1999/xlink">
    <title>Artboard Copy 15</title>
    <g id="Artboard-Copy-15" stroke="none" stroke-width="1" fill="none" fill-rule="evenodd">
        <g id="Group-24" transform="translate(18, 13)" fill="#000000">
            <path d="M20.6212235,14.0180567 C10.4821958,14.7759297 5.07801589,26.3210026 10.9908135,34.6425078 C16.42941,42.2965742 28.1780742,41.7117869 32.8618421,33.5927859 C38.0875542,24.5342651 31.0348051,13.2396375 20.6212235,14.0180567 M21.1969613,0.0300145242 C22.9254206,-0.249849049 23.4837165,1.49206043 24.4314958,2.56668675 C27.7808042,6.36430158 33.695782,8.66142428 38.6558169,9.2051192 C39.5114035,9.29897779 40.5049678,9.23500452 41.3362603,9.32248134 C42.2717369,9.42085386 42.9994682,10.1656521 43.0309259,11.1238502 C42.7051365,17.7289729 43.4504654,24.7249397 43.0250081,31.2839892 C42.3819945,41.1956425 33.2591121,50.1495647 24.2871331,53.3346861 C22.5490185,53.9518491 21.9355938,54.2483675 20.0892461,53.7445197 C10.6527214,51.1692456 0.730159876,41.2568141 0.123275858,31.1736315 C-0.270256581,24.6334159 0.431934858,17.7050024 0.123431589,11.1238502 C0.329308077,8.79217256 2.81493184,9.38972332 4.49854055,9.2051192 C9.47648451,8.6594008 15.3620292,6.37722076 18.7228616,2.56668675 C19.4009148,1.79791801 20.1619726,0.197652493 21.1969613,0.0300145242" id="Fill-7"></path>
            <path d="M16.4494993,29.4790093 L26.1289646,19.8725909 C27.9032088,18.7766402 29.8945421,20.8264307 28.6888721,22.5477941 L17.0253929,34.1924847 C16.1638885,34.7106525 15.1620705,34.5691642 14.5221715,33.7927685 C14.1674161,33.3623888 12.3185767,29.653029 12.2608005,29.1768874 C12.112233,27.9523675 13.0452179,26.9398466 14.2890421,27.0293469 C15.5675942,27.1214933 16.0456887,28.4593284 16.4494993,29.4790093" id="Fill-9"></path>
        </g>
    </g>
</svg>