<?xml version="1.0" encoding="UTF-8"?>
<svg width="80px" height="80px" viewBox="0 0 80 80" version="1.1" xmlns="http://www.w3.org/2000/svg" xmlns:xlink="http://www.w3.org/1999/xlink">
    <title>Artboard Copy 16</title>
    <g id="Artboard-Copy-16" stroke="none" stroke-width="1" fill="none" fill-rule="evenodd">
        <g id="Group-25" transform="translate(14, 15)" fill="#000000">
            <path d="M22.6869547,31.4937582 C21.0213173,31.7338862 19.4224972,33.4009469 19.1696035,35.0476533 C18.30697,40.6622595 25.9522108,42.3193426 27.7399025,37.541127 C29.0135547,34.1370292 26.252888,30.9797112 22.6869547,31.4937582 L22.6869547,31.4937582 Z M11.5883848,28.4465931 C11.7285412,28.587078 12.0076559,28.6836613 12.1788249,28.8027276 L34.6143501,28.8789566 C36.6610582,28.503532 36.2440499,25.8993733 34.2139795,25.8929876 L12.9954052,25.8876662 C11.6007633,25.7470483 10.5635001,27.4194304 11.5883848,28.4465931 L11.5883848,28.4465931 Z M26.7600063,15.7686303 C22.5466652,11.5607354 16.2553372,18.0209117 20.3660566,22.1110706 C24.5796638,26.3037995 30.9118542,19.915196 26.7600063,15.7686303 L26.7600063,15.7686303 Z M39.8215631,6.10231225 C34.3498766,6.76362889 35.0050042,15.2225219 40.5862336,15.0382685 C46.6960106,14.8364545 46.1284641,5.34015514 39.8215631,6.10231225 L39.8215631,6.10231225 Z M46.1188807,0 C46.6562131,0.136626873 47.1936787,0.236802176 47.7109127,0.449791099 C49.7107689,1.27301125 50.8590391,3.20787127 51.0037209,5.32352577 C51.3463252,10.3297632 50.7359198,15.7198065 51.0035878,20.7666196 C50.853715,22.0649075 50.4751732,23.3022654 49.7455085,24.3884956 C41.3607536,33.1723929 32.6741235,41.7335898 23.979108,50.212305 C22.4851722,51.2394677 20.5936609,51.252239 19.0558014,50.3080901 C12.8053356,44.3058202 6.59772867,38.162001 0.644080151,31.8695818 L0,30.2728966 L0,28.7790474 C0.2924249,27.8031031 0.689068597,26.9842731 1.39184669,26.237149 C9.83330304,17.9516005 17.9977743,9.3523556 26.6046763,1.25385422 C27.1712912,0.888141195 27.7711815,0.591074195 28.4100707,0.370103176 L29.7830169,0 L46.1188807,0 Z" id="Fill-1"></path>
            <path d="M22.4467589,19.9813543 C21.0183092,18.4213867 23.6358914,16.2636932 24.8476512,18.1287099 C25.8633519,19.6918703 23.6492016,21.2944091 22.4467589,19.9813543" id="Fill-3"></path>
            <path d="M23.384981,34.3747892 C25.0017699,34.1519557 25.8183502,36.4738143 24.2593275,37.2479446 C22.1277004,38.3063705 21.0741987,34.6932748 23.384981,34.3747892" id="Fill-5"></path>
        </g>
    </g>
</svg>