<?xml version="1.0" encoding="UTF-8"?>
<svg width="46px" height="46px" viewBox="0 0 46 46" version="1.1" xmlns="http://www.w3.org/2000/svg" xmlns:xlink="http://www.w3.org/1999/xlink">
    <title>Artboard Copy 4</title>
    <g id="Artboard-Copy-4" stroke="none" stroke-width="1" fill="none" fill-rule="evenodd">
        <g id="Group" transform="translate(1.7813, 7.7813)" stroke="#000000" stroke-width="2">
            <path d="M28.4147419,24.0773355 C29.2153321,23.2676741 30.2952488,22.805168 31.38202,22.805168 C31.3918346,22.805168 31.4014934,22.805168 31.411308,22.8053256 C33.6766092,22.8223446 35.5868714,24.7829921 35.5829886,27.0863825 C35.5790821,29.3885123 33.6576032,31.3378138 31.3870052,31.3428565 L31.3782812,31.3428565 C29.1059696,31.3426989 27.1737413,29.4045858 27.1572279,27.1060804 C27.149127,25.9976417 27.6076086,24.8936153 28.4147419,24.0773355 Z" id="Path"></path>
            <path d="M14.8567933,24.0710321 C15.6575393,23.2654679 16.7355865,22.8056408 17.8204883,22.8056408 C17.8335744,22.8056408 17.8466606,22.8057984 17.8595909,22.8059559 C20.1261384,22.8289631 22.0326617,24.7951259 22.0231587,27.0994619 C22.0136557,29.4001735 20.0851664,31.3430141 17.8116085,31.3430141 C15.5335327,31.341911 13.6019277,29.3957611 13.5919573,27.0931586 C13.5869721,25.9861381 14.0479463,24.8844755 14.8567933,24.0710321 Z" id="Path"></path>
            <path d="M6.69593974,4.17462737 L23.2206688,4.17462737 C35.0371551,4.25836736 40.9407252,4.31940298 40.9313792,4.35773422 C40.6751218,5.39887849 40.4176626,6.43955302 40.1600177,7.48032149 C39.9872637,8.17855143 39.8145098,8.87678137 39.6421273,9.57510526 C39.5809204,9.82331887 39.5191562,10.0712506 39.4572991,10.3192763 C39.3795598,10.6315632 39.3017276,10.9437562 39.2251029,11.2561371 L36.7893646,21.1461621 L36.7783121,21.1896605 C36.7671666,21.2340985 36.7559283,21.2784425 36.7440399,21.3226925 C36.5165805,22.1685165 36.4507296,22.2186854 35.5711704,22.2188878 C27.6873659,22.2188878 19.8036542,22.2188878 11.9198497,22.2188878 C10.9822414,22.2188878 10.9250283,22.1735898 10.6954327,21.2507275 C10.383361,19.9971329 9.05019664,14.3050995 6.69593974,4.17462737 Z" id="Path"></path>
            <path d="M0,0 C0,0 1.84890929,0 5.54672786,0 L6.69593974,4.17462737" id="Path-2"></path>
        </g>
    </g>
</svg>