<?xml version="1.0" encoding="UTF-8"?>
<svg width="200px" height="200px" viewBox="0 0 200 200" version="1.1" xmlns="http://www.w3.org/2000/svg" xmlns:xlink="http://www.w3.org/1999/xlink">
    <title>z copy 2</title>
    <g id="z-copy-2" stroke="none" stroke-width="1" fill="none" fill-rule="evenodd">
        <path d="M83.3525462,35.0006968 C86.3826104,34.9674562 90.8364397,36.1338028 94.1826666,36.2946304 C102.030251,36.6710502 110.112029,36.1802487 117.860769,35.0145953 C121.847931,35.2041917 124.631747,41.6272434 126.803557,44.4580169 C138.719582,48.1064462 145.576317,50.5510949 151.842743,61.8083328 C156.751874,70.6278542 160.961177,79.8896516 165.799705,88.7538859 C166.376237,90.5621564 165.687774,92.4799561 163.997096,93.3295001 L140.747776,102.751778 C140.750187,105.193654 140.841454,107.668805 140.973361,110.108601 C141.882931,126.921323 143.757176,144.161069 144.065417,160.960273 C144.073683,161.394924 144.325442,161.826108 144.324753,162.263878 C144.322343,163.626407 143.130017,165.60313 141.696608,165.845411 L59.9155263,166 C58.1601004,165.899136 56.6715874,163.954647 56.6677989,162.263878 C56.6615997,159.273663 57.2739496,155.712927 57.4409854,152.658589 C58.3488337,136.082949 59.3916882,119.488246 60.2892044,102.891809 L35.9429587,92.5725012 C34.6128714,90.9406558 34.8567092,89.4585464 35.6491823,87.6579013 C39.4328019,79.0636771 45.2408268,70.650384 49.05992,61.9771324 C53.6280914,51.158011 63.8675594,47.670756 74.1889955,44.4580169 C76.421765,41.5523754 79.1794059,35.04787 83.3525462,35.0006968 Z M126.536644,47.7123493 C124.946876,52.224187 121.757698,56.9824653 118.416981,60.4298601 C115.640742,63.2946015 112.654762,65.1063381 108.737858,62.8991181 C108.04354,62.5081407 107.680538,61.8426473 106.941104,61.723413 L106.941104,69.3772811 C106.941104,70.8015064 103.847669,70.6361729 103.847669,69.3772811 L103.847669,58.6098048 C101.644863,57.5044617 99.3621546,57.4971829 97.1448833,58.6098048 L97.1448833,71.1935237 C97.1448833,72.4638537 102.866463,71.3969844 103.932737,72.0811949 C104.834386,72.6600356 104.740364,74.5993251 103.404766,74.8987972 C102.495196,75.1026046 98.004515,75.091513 97.0742805,74.8967175 C96.0923854,74.6904839 94.0514488,72.9276194 94.0514488,71.9716658 L94.0514488,61.723413 C93.3120139,61.8426473 92.9490123,62.5081407 92.2546944,62.8991181 C86.476977,66.154837 81.6374155,59.8329957 78.6307707,55.5783434 C76.9810767,53.2439171 75.3399928,50.4398327 74.4545308,47.7123493 C66.4943268,50.5656525 58.9412081,52.1371876 53.9859269,59.670435 L38.1409434,89.9212723 L38.7002551,90.5770607 L60.5357975,99.3428574 L60.7644816,96.782094 L41.0170592,88.7632444 C39.1576233,87.6398775 40.5149185,85.2073603 42.559988,85.9137539 L61.0513699,93.3752527 L62.396611,70.4701461 C62.7644342,68.9353518 64.8656415,68.8521652 65.3219765,70.2698049 C65.5572042,71.0004612 65.4583603,72.2066682 65.4325301,73.00734 C64.9827388,86.9802765 63.6963907,101.527894 62.8550124,115.556982 L60.0216027,162.909615 L140.970605,162.909615 C141.180347,161.288861 140.794271,159.640031 140.715747,158.10697 C139.355007,131.551008 137.529667,105.010643 136.06974,78.4605737 C135.975718,76.7500475 135.614438,74.7050415 135.560022,73.00734 C135.534192,72.2066682 135.435348,71.0004612 135.670576,70.2698049 C136.126911,68.8521652 138.228118,68.9353518 138.595597,70.4701461 L139.941182,93.3752527 L158.432564,85.9137539 C160.088113,85.3941837 161.354486,86.7425012 160.536527,88.29116 L140.236336,96.7872932 L140.456066,99.3449371 L162.465877,90.4900613 L162.852298,89.9219656 L147.52392,60.446844 C142.590336,52.359712 134.899456,50.6308154 126.536644,47.7123493 Z M136.729411,156.151286 C139.546289,156.262202 139.546289,159.4382 136.729411,159.549115 L64.2630727,159.549115 C62.0092945,159.605613 61.3842017,156.96097 63.5577338,156.219915 Z M99.9060715,60.4777271 C102.267648,59.755736 103.258842,63.3428151 101.086343,64.0069221 C98.7247666,64.7289132 97.7335726,61.1418341 99.9060715,60.4777271 Z M84.3823134,38.3767238 C83.8440103,38.3535008 83.1321278,38.2768998 82.6313647,38.4266358 C81.816161,38.6703035 77.3516552,44.8892012 77.2734755,45.7650877 C77.1481125,47.1664367 79.4377087,51.026992 80.2808091,52.3614451 C81.5668127,54.3967459 84.9199276,58.760234 86.8451446,60.0246716 C89.2708664,61.6182165 90.9598439,60.1193615 92.5740428,58.546662 L92.9764177,58.1536955 C93.3780009,57.7626844 93.7783581,57.3827796 94.1878326,57.061146 C98.5686484,53.6189504 102.431136,53.625536 106.80472,57.061146 C107.400637,57.5291702 107.959358,58.1100905 108.526389,58.6680193 L108.810808,58.9444386 C110.143293,60.2195827 111.562313,61.246245 113.645956,60.2981479 C115.922809,59.262127 120.399025,53.0498149 121.680207,50.7413844 C122.539838,49.192379 124.192976,46.6777149 123.458363,44.9685752 C123.091918,44.1166049 120.537131,40.6484135 119.825592,39.8054551 C119.453292,39.3638724 118.704903,38.489719 118.150757,38.3798433 C114.613386,38.46303 111.126642,39.2609289 107.597882,39.4227963 C103.14853,39.6269503 97.5815872,39.641508 93.1384344,39.4214099 C90.2871157,39.2799925 87.1561412,38.4966513 84.3823134,38.3767238 Z M83.9283892,39.1977764 C84.3754253,39.1024583 84.7969755,39.0684904 85.1716868,39.3970778 C87.6190199,42.3706551 90.327411,44.9085422 93.4545971,47.1459173 L93.8644491,47.4418368 C94.0696584,47.5910613 94.2753401,47.7418048 94.4817072,47.8923674 L94.8954181,48.1927473 C97.3147987,49.9376778 99.8467881,51.5036864 102.829612,50.1908965 C105.148827,49.1701266 109.644329,45.7268911 111.585388,43.9546682 C111.952385,43.6194259 112.639374,42.8457897 113.366799,42.0217202 L113.915581,41.4002738 C114.828294,40.3689755 115.694986,39.4104223 115.969648,39.2823495 C117.045221,38.7808031 118.361188,39.6095504 118.28163,40.8199167 C118.157645,42.708601 111.079804,48.4925017 109.342631,49.7406486 C106.595322,51.7139061 103.111678,54.3114102 99.5915275,53.9405363 C95.6388057,53.5242562 86.7173708,46.2045214 84.1229774,43.0458537 C83.2764329,42.0157252 81.556825,39.7031355 83.9283892,39.1977764 Z" id="Combined-Shape" fill="#000000"></path>
    </g>
</svg>