<?xml version="1.0" encoding="UTF-8"?>
<svg width="80px" height="80px" viewBox="0 0 80 80" version="1.1" xmlns="http://www.w3.org/2000/svg" xmlns:xlink="http://www.w3.org/1999/xlink">
    <title>Artboard</title>
    <g id="Artboard" stroke="none" stroke-width="1" fill="none" fill-rule="evenodd">
        <g id="Group-19" transform="translate(6, 20)" fill="#000000">
            <path d="M54.6251145,28.8278443 C50.0180318,29.4551119 50.7682513,36.3663044 55.3858573,36.05717 C60.2733398,35.730038 59.5597522,28.1559798 54.6251145,28.8278443 L54.6251145,28.8278443 Z M19.3942392,28.8278443 C14.7871565,29.4551119 15.5372427,36.3663044 20.1549819,36.05717 C25.0424645,35.730038 24.3288768,28.1559798 19.3942392,28.8278443 L19.3942392,28.8278443 Z M68.0851064,32.4908756 C67.1935548,34.7583025 64.5534004,33.6981673 62.6518765,33.9608521 C60.6873459,42.0557807 49.5637974,41.9778354 47.5238718,33.9378258 L27.5976331,33.9350468 L27.3879659,34.0204028 C25.4836447,42.0383125 14.2244919,41.9598378 12.3626635,33.9608521 C10.9037851,33.7136504 7.99974849,34.473253 6.93089891,33.348009 C6.8091481,33.2197764 6.39767298,32.5438095 6.39767298,32.4248404 L6.39767298,26.0191674 L1.54509056,26.0191674 C1.35247384,26.0191674 0.651008005,25.5365419 0.489561632,25.3507436 C-0.473788339,24.2417768 0.0619685172,22.5185111 1.46942922,22.1136986 L20.0251055,22.0571915 C22.5103406,21.7874929 22.5818726,18.5149821 20.1459239,18.1063318 C13.8906762,18.0209757 7.60878719,18.2193458 1.36872505,18.0056249 C-0.706233818,17.1791931 -0.346975677,14.3410056 1.9388492,14.1271523 C5.77906163,13.7677306 10.5695698,14.6239377 14.2962902,14.1205356 C16.3904308,13.8377358 16.6853502,10.6917372 14.5420564,10.3337711 C11.1257073,10.0352235 7.29974793,10.622129 3.93308488,10.3070395 C2.49272215,10.1723225 1.66564251,8.97032421 2.13706059,7.58795338 C2.28691799,7.14846903 3.09081969,6.33963785 3.53932623,6.33963785 L6.39767298,6.33963785 C6.6147997,4.87323433 5.88922347,1.67708075 6.93089891,0.59577192 C7.0743624,0.446895107 7.7751622,0 7.92661808,0 L44.5534984,0 L44.5534984,12.2171621 C44.5534984,12.3373222 45.0044026,13.168915 45.1305493,13.2947655 C45.4177426,13.5811383 46.0723198,13.8241053 46.4808643,13.8684375 C51.3210586,14.3935426 57.101558,13.4746087 62.0407247,13.8632764 C64.3691757,14.0465603 66.8492158,15.522889 67.7111955,17.7396316 L68.0851064,19.0190459 L68.0851064,32.4908756 Z" id="Fill-17"></path>
            <path d="M59.5744681,10.212766 L48.5106383,10.212766 L48.5106383,0.85106383 C52.2450864,1.53163065 55.0566024,3.64511373 57.2557143,6.53113915 C58.1126744,7.65568985 58.9480044,8.95494194 59.5744681,10.212766" id="Fill-20"></path>
        </g>
    </g>
</svg>