<?xml version="1.0" encoding="UTF-8"?>
<svg width="80px" height="80px" viewBox="0 0 80 80" version="1.1" xmlns="http://www.w3.org/2000/svg" xmlns:xlink="http://www.w3.org/1999/xlink">
    <title>Artboard Copy 17</title>
    <g id="Artboard-Copy-17" stroke="none" stroke-width="1" fill="none" fill-rule="evenodd">
        <g id="Group-26" transform="translate(10, 18)" fill="#000000">
            <path d="M7.58501111,26.5663227 C5.7040566,26.9480862 5.76663691,29.7271949 7.68288918,29.9880204 L22.7877107,29.9986506 C24.904035,29.7019288 24.9974431,26.972736 22.8925251,26.5487597 L7.58501111,26.5663227 Z M23.9596272,19.6585298 C23.7496903,19.4480823 23.2045018,19.1924949 22.9053186,19.1555202 C20.6578222,19.4061777 17.6835619,18.8250591 15.5257743,19.1655342 C13.6785762,19.4570179 13.5617391,22.2803421 15.6640367,22.58754 C17.0717855,22.7932116 21.333258,22.7758027 22.7744548,22.6049489 C24.2480207,22.4302436 25.0376733,20.7394227 23.9596272,19.6585298 L23.9596272,19.6585298 Z M7.58501111,19.1858703 C5.96840446,19.4570179 5.65103289,21.8278646 7.27103059,22.4427225 C8.54252069,22.925242 10.6984586,22.6351449 10.7393054,20.9454024 C10.7824642,19.1586015 8.98227839,18.9513892 7.58501111,19.1858703 L7.58501111,19.1858703 Z M0,10.9704065 L56.5356076,10.9704065 L56.5356076,16.9670819 C52.9065662,16.8479927 51.3425208,13.0811981 47.5955632,13.3939422 C45.2751593,13.587597 43.67782,15.7840465 41.5349838,16.5620552 C39.8221946,17.1838459 38.1198869,16.7684971 36.4744563,17.6159874 C34.8744966,18.4400604 33.8423839,20.0805032 33.692407,21.8699233 C33.4810828,24.3878983 33.5470542,28.3093703 33.685779,30.8678635 C33.8442336,33.7899409 34.7154255,36.623125 35.9981677,39.223831 L3.17294507,39.223831 C3.04670547,39.223831 2.15347173,38.8037063 1.97097151,38.6954013 C0.966295488,38.0988766 0.315521912,37.0960927 0,35.9948638 L0,10.9704065 Z" id="Fill-11"></path>
            <path d="M0,3.24385579 C0.527154342,1.56489761 1.73575586,0.291890509 3.52037369,0.0162751497 L52.7906539,0.00995864346 C54.2312341,-0.163514187 56.5356076,1.96915401 56.5356076,3.30147465 L56.5356076,7.62597053 L0,7.62597053 L0,3.24385579 Z" id="Fill-13"></path>
            <path d="M51.5473557,26.7995712 C51.2643571,26.8078905 50.815351,26.9329882 50.5929289,27.1146263 L47.3629525,30.6882282 C47.2444199,30.6886904 46.1088801,29.1357542 45.8081555,28.8998866 C44.21729,27.6510671 42.2202691,29.372084 43.1685303,31.0769244 C43.480507,31.637861 44.9927618,33.2538082 45.515292,33.8055011 C46.3929577,34.7321788 47.3964006,35.6268117 48.6316681,34.4952327 C49.5087173,33.691958 52.331151,30.5296993 52.940153,29.5760609 C53.7219444,28.3518912 53.0039664,26.7564341 51.5473557,26.7995712 M47.6195935,16.8781886 C49.0446057,16.5790019 50.4671517,18.2137446 51.654328,18.9050168 C53.8628272,20.1909651 55.1219862,20.1191726 57.5060494,20.4368466 C58.2944689,20.5419163 59.0431205,21.2758635 59.0796514,22.0930038 C59.1090919,29.1790454 59.9331174,35.5759716 54.6332124,41.0704076 C53.4671532,42.2793253 49.8146826,44.9582943 48.1707934,44.9994286 C46.1227526,45.0505769 42.009099,41.6547615 40.7320599,40.0853408 C36.2362966,34.5599384 37.1938062,28.666484 37.1492601,21.9808473 C37.5242795,20.0743408 39.42296,20.5154178 40.867702,20.2773934 C42.1183834,20.0712596 43.477116,19.5360512 44.5713466,18.9050168 C45.2984188,18.4858165 47.0033469,17.0076 47.6195935,16.8781886" id="Fill-15"></path>
        </g>
    </g>
</svg>