<?xml version="1.0" encoding="UTF-8"?>
<svg width="200px" height="200px" viewBox="0 0 200 200" version="1.1" xmlns="http://www.w3.org/2000/svg" xmlns:xlink="http://www.w3.org/1999/xlink">
    <title>z copy 7</title>
    <g id="z-copy-7" stroke="none" stroke-width="1" fill="none" fill-rule="evenodd">
        <g id="Group-2" transform="translate(32, 39)" fill="#000000">
            <path d="M131.342856,50.5613989 L114.884444,55.7394118 L113.54481,55.0833628 L105.19303,44.3280489 C105.87278,34.9927009 108.684735,25.9682247 112.497867,17.4837953 L131.729917,49.6436376 L131.342856,50.5613989 Z M101.213508,42.2329359 L100.625289,112.329742 C100.029975,114.364732 92.6492161,116.247292 90.6433128,116.674874 C83.9820394,118.09484 76.9408009,118.383077 70.1404554,118.605886 L70.1404554,29.5236215 L76.6466917,23.8426965 L81.9860699,29.8903723 C83.6712557,30.7080464 85.0307571,29.5996595 85.6697086,28.0615693 C87.9959746,22.4619874 89.1426105,15.6369554 91.3652819,9.91429797 L91.8222333,9.29290813 L109.4436,13.5103662 C105.61131,22.729712 102.062487,32.1697449 101.213508,42.2329359 L101.213508,42.2329359 Z M62.2885539,20.39057 C62.0778169,19.9163049 64.1997319,18.7760882 63.3567843,16.6940608 L54.2067575,4.24186102 L81.8250016,4.24186102 L72.6891659,16.9773467 C71.6886977,19.2255967 74.0731469,19.9131219 73.7357549,20.6597093 L68.1051057,25.3747744 L62.2885539,20.39057 Z M66.1570309,118.605886 C58.8976052,118.371052 51.4160898,118.067961 44.3312139,116.405027 C42.4661567,115.967543 35.9634682,114.234583 35.4064699,112.329742 L35.3642516,47.2482628 C35.018345,43.1071964 34.7331051,38.9820449 33.9458573,34.8961503 C32.5285273,27.5384984 29.5860155,20.570232 26.848919,13.6440517 L44.4780912,9.29078614 L51.4089943,29.6654412 C52.2618757,30.2012441 53.3450067,30.4523464 54.1971786,29.7771994 L59.6504398,23.5721426 L66.1570309,29.2590799 L66.1570309,118.605886 Z M22.4865938,55.0833628 L21.1473146,55.7394118 L4.69351518,50.5575086 L4.31142147,49.371669 L23.5338925,17.2189001 C27.463391,25.6658409 30.1682029,34.7186103 30.836246,44.0603243 L22.4865938,55.0833628 Z M49.825984,5.56669105 L58.4225602,17.6715916 L58.2086303,18.4149959 L53.4127689,23.5668376 L48.4877691,6.89930171 L49.825984,5.56669105 Z M87.6220407,7.74350066 L82.6193449,23.8317329 L77.6993119,18.2639809 L77.6091988,17.6715916 L86.2054203,5.56669105 C86.7624186,6.25280163 87.8849297,6.72600574 87.6220407,7.74350066 L87.6220407,7.74350066 Z M113.782865,10.9307319 L113.051317,10.3203057 L91.3163228,4.70763815 C89.9362443,3.73541238 88.0577056,0.274090569 86.4573113,0.021219915 L49.8185337,0 C47.97157,0.215382138 46.2235889,3.6049099 44.7154363,4.70763815 C38.1251181,6.90319203 29.9443393,7.70353649 23.5495026,10.08335 C23.1443485,10.2340114 22.7544497,10.39599 22.4294749,10.6856419 L0.284004787,47.777346 C-0.589098847,50.5490206 0.604012702,53.4041602 3.13356529,54.7579908 C8.39240932,55.9678796 14.370739,58.9163868 19.5831074,59.8030256 C25.7700453,60.8555334 27.043691,54.6787698 30.8369556,51.364219 L30.8369556,112.914351 C30.8369556,114.892401 35.3876668,117.653465 37.0316986,118.387321 C50.6345184,124.459753 82.2230602,124.289994 96.2214552,119.323473 C99.2356317,118.253989 104.929076,115.644647 104.929076,111.855477 L104.929076,51.6287606 C107.93119,54.3505684 110.185437,60.3253891 114.891895,60.1177876 C120.285199,58.1927877 127.34595,57.1763538 132.466077,54.8566634 C134.473754,53.9466827 135.117672,52.7643797 136,50.8344285 L136,48.1872441 L113.782865,10.9307319 Z" id="Combined-Shape-Copy"></path>
            <path d="M47.3383201,16.9994753 C48.22056,16.9342063 48.22056,15.065269 47.3383201,15 L24.4211167,15.0403852 C23.7403714,15.4764638 23.9361491,17.0327217 24.6420273,16.9994753 L47.3383201,16.9994753 Z" id="Fill-3-Copy-9"></path>
            <polygon id="Fill-3-Copy-17" points="109.33832 16.9994753 110.33832 15 87.4211167 15.0403852 87.6420273 16.9994753"></polygon>
            <polygon id="Fill-3-Copy-6" points="102.95982 61.9994753 102.95982 60.0403852 31.6843806 60.0403852 31.6843806 61.9994753"></polygon>
            <polygon id="Fill-3-Copy-7" points="102.95982 83.9994753 102.95982 82 31.7077561 82.0403852 31.7077561 83.9994753"></polygon>
            <polygon id="Fill-3-Copy-8" points="101.95982 104.999475 102 103.040385 31.6390137 103.040385 31.6390137 104.999475"></polygon>
            <path d="M99.2190712,64.8868148 L99.0804859,61.8878638 L-10.9566961,61.9484363 C-11.3051304,62.6078317 -11.3051304,64.0121852 -10.9566961,64.8868148 L99.2190712,64.8868148 Z" id="Fill-3-Copy-10" transform="translate(44.0005, 63.3873) rotate(-270) translate(-44.0005, -63.3873)"></path>
            <polygon id="Fill-3-Copy-11" transform="translate(92.0409, 62.5014) scale(-1, 1) rotate(-270) translate(-92.0409, -62.5014)" points="148.00682 63.9604804 148.00682 61.0423004 36.075 61.0423004 36.075 63.9604804"></polygon>
            <path d="M97.678447,74.2888537 L97.678447,71.2899027 L6.66297847,71.2899027 C6.66297847,71.8847826 5.89713222,72.7897619 6.66297847,74.2888537 L97.678447,74.2888537 Z" id="Fill-3-Copy-10" transform="translate(52.0005, 72.7894) rotate(-270) translate(-52.0005, -72.7894)"></path>
            <path d="M128.24774,74.8581463 L128.24774,71.8591953 L36.0936858,71.8591953 C36.0936858,72.4540752 35.3278396,73.3590545 36.0936858,74.8581463 L128.24774,74.8581463 Z" id="Fill-3-Copy-12" transform="translate(82.0005, 73.3587) scale(-1, 1) rotate(-270) translate(-82.0005, -73.3587)"></path>
            <polygon id="Fill-3-Copy-5" points="104.050411 37.9994753 104.555511 36.0403852 32.5862393 36.0403852 32.0504106 37.9994753"></polygon>
            <g id="Group" transform="translate(5.7345, 21.2476)">
                <polygon id="Fill-3-Copy-19" points="22.8802757 28.9027517 22.8802757 26.9436616 0.508174844 16.7927844 2.24073368e-17 18.7518745"></polygon>
                <polygon id="Fill-3-Copy-20" points="25.8802757 24.9027517 25.8802757 22.9436616 3.50817484 12.7927844 3 14.7518745"></polygon>
                <polygon id="Fill-3-Copy-21" transform="translate(11.7911, 16.8664) rotate(96) translate(-11.7911, -16.8664)" points="27.828028 25.6417855 27.828028 23.6826954 -3.73764444 8.09092264 -4.24581928 10.0500128"></polygon>
                <polygon id="Fill-3-Copy-22" transform="translate(16.2317, 19.5224) rotate(96) translate(-16.2317, -19.5224)" points="31.5576777 27.8101115 31.5576777 25.8510214 2.77808758 11.2347513 0.905742126 13.0597478"></polygon>
            </g>
            <g id="Group-Copy" transform="translate(116.7725, 39.063) scale(-1, 1) translate(-116.7725, -39.063)translate(103.7345, 21.2476)">
                <polygon id="Fill-3-Copy-19" points="22.8802757 28.9027517 22.8802757 26.9436616 0.508174844 16.7927844 2.24073368e-17 18.7518745"></polygon>
                <polygon id="Fill-3-Copy-20" points="25.8802757 24.9027517 25.8802757 22.9436616 3.50817484 12.7927844 3 14.7518745"></polygon>
                <polygon id="Fill-3-Copy-21" transform="translate(11.7911, 16.8664) rotate(96) translate(-11.7911, -16.8664)" points="27.828028 25.6417855 27.828028 23.6826954 -3.73764444 8.09092264 -4.24581928 10.0500128"></polygon>
                <polygon id="Fill-3-Copy-22" transform="translate(16.2317, 19.5224) rotate(96) translate(-16.2317, -19.5224)" points="31.5576777 27.8101115 31.5576777 25.8510214 2.77808758 11.2347513 0.905742126 13.0597478"></polygon>
            </g>
            <path d="M50.6626444,20.9994753 C51.5448843,20.9342063 51.5448843,19.065269 50.6626444,19 L27.7454411,19.0403852 C27.0646957,19.4764638 27.2604734,21.0327217 27.9663516,20.9994753 L50.6626444,20.9994753 Z" id="Fill-3-Copy-16"></path>
            <path d="M108.716496,20.9994753 L108.716496,19 L86.7283688,19.0403852 L86.9403235,20.9994753 L108.716496,20.9994753 Z" id="Fill-3-Copy-18"></path>
            <polygon id="Fill-3-Copy-13" points="103.04253 65.9994753 103.04253 64 32.5518357 64 32.5518357 65.9994753"></polygon>
            <polygon id="Fill-3-Copy-14" points="102.820965 87.9994753 102.820965 86.0403852 32.7481381 86.0403852 32.7481381 87.9994753"></polygon>
            <polygon id="Fill-3-Copy-15" points="103.04253 108.999475 103.04253 107 32.49488 107 32.49488 108.999475"></polygon>
        </g>
    </g>
</svg>