<?xml version="1.0" encoding="UTF-8"?>
<svg width="38px" height="38px" viewBox="0 0 38 38" version="1.1" xmlns="http://www.w3.org/2000/svg" xmlns:xlink="http://www.w3.org/1999/xlink">
    <title>Group 6</title>
    <g id="Page-1" stroke="none" stroke-width="1" fill="none" fill-rule="evenodd">
        <g id="Group-6" fill="#FF4604">
            <path d="M17.9354888,1.80413202 C5.05421857,2.58322736 -2.51543916,17.0047752 4.34100552,28.0648932 C10.8328111,38.5369942 25.9163944,39.0318531 33.0428723,28.9542108 C41.386632,17.1550782 32.2669854,0.937235921 17.9354888,1.80413202 L17.9354888,1.80413202 Z M20.1768739,0 L22.1216488,0.244353983 C30.2190762,1.5804137 36.7621514,8.30118992 37.8264176,16.459716 C37.884629,16.9061606 37.871638,17.3949677 37.9853832,17.8229592 C37.9515671,18.6088009 38.0311986,19.4158734 37.9853832,20.1994332 C37.0129462,36.8303855 16.1603896,44.2179514 4.88930293,31.7491521 C-5.75881317,19.9695638 2.0879187,0.920469448 17.802406,0 L20.1768739,0 Z" id="Fill-1"></path>
            <path d="M13.3306633,9.74599361 C12.9219938,9.81464686 10.9866398,10.6608081 10.6420326,10.9166704 C9.24456339,11.9542076 9.67772727,14.2769097 10.1783251,15.6877737 C11.804078,20.2700805 17.7843773,26.2317026 22.3645299,27.8497169 C23.838259,28.3703704 26.1616556,28.7616543 27.1664212,27.2317384 C27.4494454,26.8008698 28.0556567,25.3521076 28.1939954,24.8443514 C28.271842,24.5585277 28.3700178,24.259509 28.0784652,24.0619821 C27.0233225,23.4821995 25.9700639,22.7297916 24.9015335,22.1916771 C23.7718167,21.6227083 24.0157689,22.0955427 23.3653289,22.8334659 C21.5474885,24.8956429 19.4430538,23.7143506 17.8013349,22.242671 C15.835834,20.4807032 12.2703638,17.1893155 15.1704197,14.631982 C15.8990038,13.9894986 16.3878006,14.215102 15.8116371,13.0946254 C15.4376763,12.3672184 14.4505625,10.5174498 13.9743599,9.95770754 C13.7557946,9.7007539 13.6779481,9.68765819 13.3306633,9.74599361 M13.5357418,7.91438045 C14.2684908,7.91438045 14.8927506,8.2366142 15.3518964,8.80191221 C15.8394041,9.40193368 17.4186474,12.1297099 17.6899698,12.8485848 C17.9343186,13.4960286 17.917361,14.0864267 17.6342376,14.7212709 C17.1166822,15.8817291 15.2085992,16.0493938 16.0822654,17.725049 C16.5281227,18.5801391 19.4200469,21.4746871 20.2746729,21.9209333 C20.8135494,22.2021933 21.3452858,22.2246148 21.8461811,21.8329341 C22.1430888,21.6007829 22.2908484,21.1799345 22.5494774,20.9029405 C23.1472594,20.2628382 24.0202314,20.0066783 24.8667257,20.2212693 C25.4784903,20.3763343 28.7506229,22.2735253 29.2683767,22.7226485 C30.7830619,24.0365844 29.6874588,26.255513 28.9237695,27.7280855 C25.9380327,33.4855336 17.5453835,27.6065534 14.4984604,24.7313513 C11.4210929,21.8273783 5.56118294,14.4985446 8.83658807,10.2237885 C9.54662776,9.29716803 12.4033475,7.91438045 13.5357418,7.91438045" id="Fill-4"></path>
        </g>
    </g>
</svg>