<?xml version="1.0" encoding="UTF-8"?>
<svg width="32px" height="32px" viewBox="0 0 32 32" version="1.1" xmlns="http://www.w3.org/2000/svg" xmlns:xlink="http://www.w3.org/1999/xlink">
    <title>Frame 2 Copy</title>
    <defs>
        <path d="M0,0 L32,0 L32,32 L0,32 L0,0 Z" id="path-1"></path>
    </defs>
    <g id="Frame-2-Copy" stroke="none" fill="none" xlink:href="#path-1" fill-rule="evenodd" stroke-width="1">
        <g id="svgexport-17-copia" transform="translate(0, 1)" fill="#FF4604">
            <path d="M15.8342174,2.68075344 C20.0649694,2.68075344 20.5659339,2.69820057 22.2297332,2.76797417 C23.7760576,2.831942 24.6110486,3.07618683 25.1678099,3.27971675 C25.903724,3.54719961 26.4357537,3.87284451 26.9861812,4.39039287 C27.5429425,4.91374702 27.8830012,5.40802759 28.1675647,6.1000323 C28.3841164,6.62338644 28.6437976,7.41423833 28.7119601,8.8621858 C28.7861548,10.4322631 28.8047034,10.9032908 28.8047034,14.8749974 C28.8047034,18.8525693 28.7861548,19.3235821 28.7119601,20.8878685 C28.6437976,22.3415473 28.3841164,23.1266678 28.1675647,23.6499327 C27.8830012,24.3420118 27.5367596,24.8420535 26.9861812,25.3596614 C26.4295708,25.8829262 25.903724,26.2028398 25.1678099,26.4703524 C24.6110486,26.6738526 23.7698747,26.9179932 22.2297332,26.9820057 C20.559751,27.0518239 20.0587866,27.0692413 15.8342174,27.0692413 C11.6035105,27.0692413 11.1025159,27.0518239 9.43868649,26.9820057 C7.89236206,26.9179932 7.05735592,26.6738526 6.50068516,26.4703524 C5.76465041,26.2028398 5.23271119,25.8771205 4.68222331,25.3596614 C4.12555255,24.8362477 3.78537324,24.3420118 3.5008399,23.6499327 C3.28436353,23.1266678 3.0245768,22.3357415 2.95654999,20.8878685 C2.88232521,19.3177763 2.86376147,18.8467635 2.86376147,14.8749974 C2.86376147,10.8974701 2.88232521,10.4264573 2.95654999,8.8621858 C3.0245768,7.40841766 3.28436353,6.62338644 3.5008399,6.1000323 C3.78537324,5.40802759 4.13173544,4.90794123 4.68222331,4.39039287 C5.23889408,3.86703872 5.76465041,3.54719961 6.50068516,3.27971675 C7.05735592,3.07618683 7.89856003,2.831942 9.43868649,2.76797417 C11.1025159,2.69820057 11.6035105,2.68075344 15.8342174,2.68075344 Z M15.8342174,0 C11.5354837,0 10.9973616,0.0174451879 9.30878558,0.0872263859 C7.62640753,0.157007733 6.46977073,0.41287158 5.4677513,0.77922246 C4.42245167,1.16301749 3.53795229,1.66892451 2.65965087,2.50049132 C1.77516657,3.32623745 1.23704899,4.15778937 0.828821749,5.13472406 C0.439152216,6.08258517 0.167001228,7.16418771 0.0927785608,8.7458915 C0.0185557423,10.3392217 0,10.8451436 0,14.8866238 C0,18.9280445 0.0185557423,19.4340408 0.0927785608,21.0215504 C0.167001228,22.6032541 0.439152216,23.690722 0.828821749,24.6327476 C1.23704899,25.6154136 1.77516657,26.4469804 2.65965087,27.2727414 C3.53795229,28.0985025 4.42245167,28.6103046 5.46156841,28.988276 C6.46977073,29.3546358 7.62022464,29.610388 9.3026027,29.6802062 C10.9911787,29.7500245 11.5292857,29.7674419 15.8280345,29.7674419 C20.1267983,29.7674419 20.6648601,29.7500245 22.3533908,29.6802062 C24.0358895,29.610388 25.1925414,29.3546358 26.1944704,28.988276 C27.2336474,28.6103046 28.1181016,28.0985025 28.9963728,27.2727414 C29.8746441,26.4469804 30.4190396,25.6154136 30.8210779,24.6385534 C31.2107504,23.690722 31.4829482,22.6090599 31.5571428,21.0273561 C31.6313374,19.4398466 31.6498861,18.9339991 31.6498861,14.8924296 C31.6498861,10.8509494 31.6313374,10.3450424 31.5571428,8.75751795 C31.4829482,7.17581417 31.2107504,6.08839096 30.8210779,5.14635052 C30.4314053,4.15778937 29.8933436,3.32623745 29.0087386,2.50049132 C28.1304674,1.67474518 27.2460132,1.16301749 26.2068361,0.785037175 C25.1987243,0.418686295 24.0482553,0.162822448 22.3659074,0.0930413989 C20.671043,0.0174453367 20.1329812,0 15.8342174,0 Z" id="Shape" fill-rule="nonzero"></path>
            <path d="M15.8327093,7.23978199 C11.342261,7.23978199 7.69915445,10.6648666 7.69915445,14.8866238 C7.69915445,19.1083215 11.342261,22.5334359 15.8327093,22.5334359 C20.3232934,22.5334359 23.9663698,19.1083215 23.9663698,14.8866238 C23.9663698,10.6648666 20.3232934,7.23978199 15.8327093,7.23978199 Z M15.8327093,19.8468469 C12.9194999,19.8468469 10.556733,17.6254649 10.556733,14.8866238 C10.556733,12.1477232 12.9194999,9.9263561 15.8327093,9.9263561 C18.7460545,9.9263561 21.1088214,12.1477232 21.1088214,14.8866238 C21.1088214,17.6254649 18.7460545,19.8468469 15.8327093,19.8468469 Z" id="Shape" fill-rule="nonzero"></path>
            <path d="M26.1882875,6.93731557 C26.1882875,7.92587671 25.3347478,8.72254927 24.2893878,8.72254927 C23.2379958,8.72254927 22.390639,7.92005604 22.390639,6.93731557 C22.390639,5.94873954 23.2441787,5.15208187 24.2893878,5.15208187 C25.3347478,5.15208187 26.1882875,5.95456021 26.1882875,6.93731557 Z" id="Path" fill-rule="nonzero"></path>
        </g>
    </g>
</svg>