<?xml version="1.0" encoding="UTF-8"?>
<svg width="43px" height="31px" viewBox="0 0 43 31" version="1.1" xmlns="http://www.w3.org/2000/svg" xmlns:xlink="http://www.w3.org/1999/xlink">
    <title>Group</title>
    <g id="Page-1" stroke="none" stroke-width="1" fill="none" fill-rule="evenodd">
        <g id="3_MI-CUENTA-MODAL" transform="translate(-1260, -960)" fill="#143991" fill-rule="nonzero">
            <g id="Group-3" transform="translate(537, 391)">
                <g id="Group" transform="translate(723.7833, 569.1535)">
                    <path d="M2.03478918,0 C2.18676425,0.163736433 2.28263695,0.275195578 2.38698734,0.378393919 C7.9712918,5.90252603 13.5558456,11.4264116 19.1417708,16.949064 C20.3079519,18.1021238 21.6304715,18.1001509 22.8001435,16.943639 C28.385944,11.4208633 33.9704978,5.89685443 39.5546776,0.372475746 C39.6576566,0.270510353 39.7506619,0.158558029 39.895032,0 L2.03478918,0 Z" id="Fill-3-path"></path>
                    <path d="M0.204730131,1.91564236 C0.143890231,1.96323442 0.08292567,2.01082651 0.0219611089,2.05841857 C0.0146054524,2.2194425 0.000891551488,2.38058975 0.000891551488,2.54173698 C0,12.6937662 0,17.9831435 0,28.1352961 C0,29.7473848 0.957748493,30.689979 2.60067501,30.6901023 C14.8442051,30.6913352 27.0877354,30.6913352 39.3312656,30.6902256 C40.9731948,30.689979 41.9327945,29.7460286 41.9332657,28.1357891 C41.9332657,17.98376 41.9332657,12.6942592 41.9324205,2.54223016 C41.9324205,2.3814528 41.9180832,2.22079875 41.9106029,2.06002141 C41.850511,2.01403219 41.7906685,1.96791967 41.7307012,1.92180714 C41.6383193,2.0795021 41.5752354,2.2660482 41.4494414,2.39069996 C35.9231095,7.86600706 30.3962786,13.3408209 24.8514953,18.7976336 C24.3655242,19.2757737 23.8045004,19.7258024 23.1964755,20.0273832 C21.1489887,21.043215 18.885944,20.5934328 17.1705832,18.8982428 C11.6044808,13.3974136 6.04112121,7.89399514 0.482000474,2.38626133 C0.356580524,2.26185616 0.295740624,2.07383051 0.204730131,1.91564236 L0.204730131,1.91564236 Z" id="Fill-3-path"></path>
                </g>
            </g>
        </g>
    </g>
</svg>