<?xml version="1.0" encoding="UTF-8"?>
<svg width="37px" height="48px" viewBox="0 0 37 48" version="1.1" xmlns="http://www.w3.org/2000/svg" xmlns:xlink="http://www.w3.org/1999/xlink">
    <title>Group-3</title>
    <g id="Page-1" stroke="none" stroke-width="1" fill="none" fill-rule="evenodd">
        <g id="3_MI-CUENTA-MODAL" transform="translate(-1261, -1056)" fill="#143991" fill-rule="nonzero">
            <g id="Group-3" transform="translate(537, 391)">
                <g transform="translate(742.875, 688.826) scale(-1, 1) translate(-742.875, -688.826)translate(724.75, 665.0823)" id="Combined-Shape">
                    <path d="M19.0103414,0 C19.8112048,0.202930022 20.6362088,0.334886809 21.409038,0.620638299 C25.2474866,2.03975454 27.6914607,5.6747226 27.7118187,9.94299028 C27.7228322,12.2459614 27.7138212,14.5489326 27.7138212,16.8519038 L27.7138212,17.4363004 C27.8824709,17.4363004 28.0373259,17.4333964 28.1921811,17.4367651 C29.3745087,17.4624362 30.5688509,17.3873974 31.7368277,17.5370104 C34.2353124,17.8573773 36.1638814,20.148268 36.229517,22.7770656 C36.2668957,24.2754022 36.2416428,25.7753653 36.2418652,27.2746313 C36.2425328,32.1278765 36.2489851,36.9811217 36.2393066,41.8343667 C36.2339668,44.543314 34.5696081,46.7412773 32.0745721,47.3408908 C31.6467181,47.4436917 31.1953912,47.4798173 30.7549662,47.4801657 C22.3322726,47.4880645 13.9096902,47.4895746 5.48699647,47.4842312 C2.31413555,47.4822566 0.00599353298,45.0612676 0.00343486388,41.7392325 C-0.00123748838,35.5567783 -0.00101499542,29.3743241 0.00332361739,23.1918697 C0.00565979352,19.8463704 2.31491427,17.4443154 5.52304034,17.4366489 C6.51057537,17.4343257 7.49811038,17.4363004 8.52769659,17.4363004 L8.52769659,16.8924433 C8.52769659,14.6358196 8.52625037,12.379196 8.52803032,10.1225723 C8.5315902,5.58562854 11.0107181,1.95031201 15.1242792,0.503782202 C15.8045515,0.264610526 16.5295448,0.164481346 17.2338463,0 L19.0103414,0 Z M18.1838091,25.8176657 C16.4568643,26.1883847 15.2524999,27.5438194 15.2630842,29.2184781 C15.3118135,30.1335571 15.7727542,30.9920703 16.6983833,31.6337861 C16.9445543,31.8043845 17.0237683,31.9731801 17.0209254,32.2348244 C17.0078739,33.4326189 16.9976651,34.6309766 17.0249314,35.8285459 C17.0450902,36.7133137 17.7450947,37.3997638 18.7200873,37.5639393 C19.6228436,37.7159454 20.5886611,37.283252 20.9459645,36.5222073 C21.0720868,36.2536896 21.1280407,35.9435928 21.1333388,35.6511865 C21.1542731,34.5134509 21.1497502,33.3751516 21.1361817,32.2371907 C21.1330804,31.9776872 21.2059625,31.805962 21.4538135,31.6338989 C22.8549855,30.6610147 23.2871094,28.9856799 22.5160318,27.6286679 C21.6977877,26.1887229 19.918895,25.4450311 18.1838091,25.8176657 Z M17.5522337,3.73428411 C14.3589034,4.09728144 12.0954825,6.65243409 12.0829117,9.92486946 C12.0737895,12.2888242 12.0805755,14.6528951 12.0820217,17.0169659 C12.0821329,17.1496197 12.0984862,17.2821572 12.1072746,17.414811 L24.1480378,17.414811 C24.1480378,14.7187573 24.1529325,12.0771822 24.1416967,9.43560715 C24.1403617,9.11570488 24.0745037,8.79057543 24.0016374,8.47729423 C23.2977808,5.45343942 20.4992643,3.39916498 17.5522337,3.73428411 Z"></path>
                </g>
            </g>
        </g>
    </g>
</svg>