<?xml version="1.0" encoding="UTF-8"?>
<svg width="27px" height="27px" viewBox="0 0 27 27" version="1.1" xmlns="http://www.w3.org/2000/svg" xmlns:xlink="http://www.w3.org/1999/xlink">
    <title>Artboard Copy 8</title>
    <g id="Page-1" stroke="none" stroke-width="1" fill="none" fill-rule="evenodd">
        <g id="1_HOME" transform="translate(-830, -5363)" fill="#243D8B" fill-rule="nonzero">
            <g id="Group-10" transform="translate(192, 5358)">
                <g id="Artboard-Copy-8" transform="translate(638, 5)">
                    <path d="M20.7657292,8.30769239 C21.9039577,8.30748857 22.8279854,7.39346326 22.8459118,6.2505243 C22.8636346,5.11929578 21.9055874,4.1543555 20.7644051,4.15384595 C19.6331026,4.15333721 18.7010284,5.08243334 18.6923707,6.21926251 C18.6835093,7.37482838 19.6099816,8.30799772 20.7657292,8.30769239 M8.30769158,13.5007181 C8.30906437,16.3523456 10.6201337,18.6682122 13.4884956,18.6921288 C16.3276787,18.7159691 18.6945916,16.3538689 18.6923094,13.4989663 C18.6900205,10.6466533 16.378875,8.33109127 13.5111225,8.30786026 C10.6695777,8.28478156 8.30616935,10.6433019 8.30769158,13.5007181 M20.778302,27 L6.22576206,27 C5.72061742,26.8932875 5.20094576,26.8311418 4.71263929,26.6723523 C1.87342933,25.7494918 0.0156196374,23.2014325 0.00728310017,20.2060557 C-0.00493281569,15.7334582 0.000762442385,11.2608607 0.00604500059,6.78818065 C0.00777834,5.35164766 0.405125766,4.02793443 1.25570018,2.86449622 C2.65467017,0.951017126 4.55713398,0.00513039073 6.92396768,0.00281952531 C11.2731639,-0.001389551 15.6224426,-0.00130702009 19.9716388,0.0059556998 C20.4265166,0.00669847797 20.8887404,0.0265884268 21.3349516,0.107881371 C23.8289794,0.56221402 25.5700775,1.97836187 26.5211856,4.3205065 C26.7649261,4.9207538 26.8449073,5.58760354 27,6.2238343 L27,20.7777472 C26.9666539,20.9661653 26.9349584,21.1549961 26.8996315,21.3431665 C26.4327028,23.8215697 25.0294406,25.5570296 22.7059405,26.5122423 C22.0991067,26.7617333 21.4227742,26.8420358 20.778302,27" id="Fill-1"></path>
                </g>
            </g>
        </g>
    </g>
</svg>