<?xml version="1.0" encoding="UTF-8"?>
<svg width="73px" height="73px" viewBox="0 0 73 73" version="1.1" xmlns="http://www.w3.org/2000/svg" xmlns:xlink="http://www.w3.org/1999/xlink">
    <title>Frame 4 Copy 3</title>
    <defs>
        <path d="M0,0 L73,0 L73,73 L0,73 L0,0 Z" id="path-1"></path>
    </defs>
    <g id="Frame-4-Copy-3" stroke="none" fill="none" xlink:href="#path-1" fill-rule="evenodd" stroke-width="1">
        <g id="Grupo" transform="translate(0, 1)" fill="#FF4604">
            <path d="M48.2786311,1.41103224 C50.5971837,-0.630015237 52.9469841,-0.196116972 54.1503802,1.06928621 C55.336732,2.31672148 55.6016283,4.54847783 53.8126907,6.40023963 L30.0638162,31.5462363 L68.5320109,31.569897 L68.5795928,31.5786141 C70.9070227,32.0021941 72.5276481,33.8222897 72.7075006,36.2155793 C72.9210399,39.0594211 72.994042,44.448312 72.9996452,50.2015685 L72.9993013,51.9963456 C72.9927851,57.0009197 72.9418032,62.1086283 72.8932121,65.9224 L72.8878858,66.3303249 C72.8653376,68.1927607 72.3147724,69.6476274 71.2514588,70.6538302 C70.3209485,71.5342576 69.0561221,72 67.5935111,72 L67.3804578,72 C67.2869433,72 67.1923671,71.9999908 67.0967682,71.9999726 L65.5909461,71.9990547 C63.8084422,71.9973141 61.7866002,71.9932986 59.7165745,71.9880904 L58.9842878,71.9862045 C58.7397328,71.9855605 58.4948222,71.9849018 58.2498673,71.9842301 L57.1483208,71.9811257 C51.6495961,71.9652253 46.3647718,71.9440904 44.8393295,71.9377942 L44.6585262,71.9370444 C44.6322091,71.9369347 44.6078262,71.9368328 44.5854166,71.9367388 L44.4137051,71.9360087 L44.4021262,71.935956 L44.2913384,71.9356002 L44.1896055,71.8905915 L4.7946289,54.5396421 C2.18081992,53.462813 0.410524496,50.963317 0.180249381,48.018893 C-0.0628089316,44.9132915 -0.059613132,39.5241648 0.187173614,36.4861653 C0.411057129,33.7287143 2.09542106,31.8780199 4.69236331,31.5352065 L4.745094,31.5312927 L15.2514627,31.5373413 Z M67.4456166,34.06032 L5.31465651,34.062099 C4.06989257,34.1647474 3.34710923,34.6703393 2.90910714,35.7482359 C2.98136772,37.5270586 2.90182782,39.4403739 2.82477354,41.2912462 C2.72605884,43.6713712 2.62379325,46.130128 2.84075254,48.3175872 C2.99876707,49.9065906 4.09297334,51.3931236 5.62873259,52.1050797 L44.5198381,69.2681666 L45.988312,69.2680055 C46.0593394,69.2679932 46.1325197,69.2679799 46.2077825,69.2679656 L49.3534905,69.2670511 C49.4660314,69.2670074 49.5798788,69.2669619 49.6949621,69.2669147 L51.5050883,69.2660661 C51.6307673,69.2659997 51.7573295,69.2659311 51.8847044,69.2658605 L53.0511155,69.2651644 C53.1827315,69.2650802 53.3149485,69.2649937 53.447696,69.2649048 L54.6548422,69.2640375 C54.7901377,69.2639336 54.9257522,69.263827 55.0616149,69.2637177 L55.8792069,69.2630297 C56.2889285,69.2626691 56.6996151,69.2622834 57.1093622,69.2618707 L57.9270392,69.2610089 C61.5958692,69.2569644 65.0857406,69.2506434 67.0081472,69.24077 C67.9303129,69.2359667 68.6140365,68.9942005 69.0987327,68.5010615 C69.7671875,67.8209495 70.0704334,66.6727825 70.0526789,64.8875553 C70.0508557,64.7055225 70.0497936,64.5016522 70.0494151,64.2776835 L70.0495468,63.8034639 C70.0530377,62.0535104 70.0874981,59.3755544 70.1263598,56.3661421 C70.2144219,49.5221486 70.3239668,41.0046491 70.175007,36.547363 C70.1229865,34.9946512 69.1537715,34.1111994 67.4456166,34.06032 Z M53.159066,38.88 C60.1530982,38.88 65.8431373,44.5324042 65.8431373,51.48 C65.8431373,58.4275958 60.1530982,64.08 53.159066,64.08 C48.6679887,64.08 44.4880895,61.6926316 42.2124655,57.8392421 L31.6334755,57.7923789 L26.7815525,51.3471916 C26.7525354,51.3447158 26.7192457,51.3425937 26.6850659,51.3404716 C26.6355765,51.3376421 26.5880453,51.3346358 26.5405141,51.3302147 C25.3424425,51.2200421 24.0669324,51.2861811 22.8327228,51.3500211 C21.8562855,51.4002442 20.8597321,51.4515284 19.8916617,51.4205811 C15.8356642,51.2920168 13.8162104,48.4469811 13.6141582,45.6845305 C13.4188707,43.0149221 14.987579,39.8257516 18.89315,39.132 L19.0028101,39.1222737 L50.7082708,39.1166147 C51.5122071,38.9595789 52.3366156,38.88 53.159066,38.88 Z M53.1558616,41.5172463 C47.624082,41.5172463 43.1237476,45.9879916 43.1237476,51.4830063 C43.1237476,56.9781979 47.624082,61.4487663 53.1558616,61.4487663 C58.6894215,61.4487663 63.191358,56.9766063 63.191358,51.4796463 C63.191358,45.9864 58.6894215,41.5172463 53.1558616,41.5172463 Z M45.0344315,41.8141642 L19.1347226,41.8141642 C18.9266177,41.8212379 17.873098,42.324 17.5393113,42.6000505 C16.4888179,43.46976 16.0873838,44.8477137 16.4913102,46.1959579 C16.8950586,47.5429642 17.9920151,48.4779284 19.3542207,48.6356716 C20.6514492,48.7861642 22.1085392,48.7251537 23.517386,48.6657347 C25.0366049,48.6029558 26.6013968,48.5373474 28.0659636,48.7186105 L28.3324589,48.7515032 L33.0341334,55.1280758 L41.0177763,55.1280758 C40.6574647,53.9485389 40.4751727,52.7232 40.4751727,51.48 C40.4751727,47.7624253 42.1661805,44.2043621 45.0344315,41.8141642 Z M52.3507899,2.78762296 C51.9266363,2.34144959 51.0158334,2.31725518 49.936896,3.26635204 L19.2272149,31.2788525 L26.8944708,31.2788525 L52.0168289,4.67834488 C52.7596747,3.90928288 52.7195497,3.17491141 52.3507899,2.78762296 Z" id="Forma-combinada"></path>
        </g>
    </g>
</svg>