<?xml version="1.0" encoding="UTF-8"?>
<svg width="105px" height="38px" viewBox="0 0 105 38" version="1.1" xmlns="http://www.w3.org/2000/svg" xmlns:xlink="http://www.w3.org/1999/xlink">
    <title>Frame 3</title>
    <defs>
        <path d="M0,0 L105,0 L105,38 L0,38 L0,0 Z" id="path-1"></path>
    </defs>
    <g id="Frame-3" stroke="none" fill="none" xlink:href="#path-1" fill-rule="evenodd">
        <path d="M71.4167782,14.9260633 L69.5101014,14.9260633 C69.2164939,14.9260633 68.9790768,15.165162 68.9790768,15.4607565 L68.9790768,16.2184068 C68.9790768,16.5140014 69.2172532,16.7531001 69.5101014,16.7531001 L71.4167782,16.7531001 C71.7103857,16.7531001 71.9478027,16.5140014 71.9478027,16.2184068 L71.9478027,15.4607565 C71.9478027,15.165162 71.7096263,14.9260633 71.4167782,14.9260633 M34.8946914,17.4968786 L33.0009232,17.4968786 C32.9310649,17.4968786 32.8619659,17.5097415 32.7971698,17.5364762 C32.7328798,17.5632109 32.6744115,17.6035651 32.6253081,17.6535034 C32.5764579,17.703694 32.5387446,17.7634686 32.5131805,17.828792 C32.4873632,17.8941154 32.4762264,17.964483 32.4785044,18.0348507 L32.4785044,23.766914 C31.8553478,24.3757581 31.0707072,24.9397082 30.234179,24.9397082 C29.2723614,24.9397082 28.6107322,24.3467535 28.6107322,22.8952631 L28.6107322,18.0209789 C28.6107322,17.9516201 28.5985829,17.883018 28.5722594,17.8184513 C28.5456829,17.7536323 28.5072102,17.6956231 28.45836,17.6471981 C28.4092567,17.5980164 28.3507883,17.5599321 28.2864984,17.5339541 C28.2224616,17.5082283 28.1536157,17.496122 28.085276,17.4968786 L26.182649,17.4968786 C26.11355,17.4951131 26.0454634,17.5074716 25.9811735,17.5331974 C25.9171367,17.5591755 25.8584152,17.5970075 25.809565,17.6461892 C25.7607148,17.6956231 25.7222421,17.7536323 25.6964249,17.8184513 C25.6708608,17.883018 25.6579522,17.9516201 25.6586798,18.0209789 L25.6586798,22.8977852 C25.6586798,25.7916865 27.2672248,26.991972 29.538633,26.991972 C30.8213939,26.991972 31.6933575,26.4539999 32.4833135,25.7942086 C32.4858446,25.8370849 32.4858446,25.8807179 32.4833135,25.9233421 L32.4833135,26.4734204 C32.4810355,26.543788 32.4931848,26.6139035 32.5177364,26.6794791 C32.5427943,26.7448024 32.581267,26.8045771 32.6301172,26.8547677 C32.6792205,26.904706 32.7376889,26.9450602 32.8017257,26.9717949 C32.8660156,26.9985295 32.935874,27.0121491 33.0054792,27.0114223 L34.8954508,27.0114223 C34.9653091,27.0114223 35.0333956,26.9975207 35.0976856,26.9710382 C35.1617224,26.9435469 35.2194314,26.9039494 35.2675223,26.8537588 C35.3158663,26.8038205 35.3533265,26.7440458 35.3783844,26.6787224 C35.4031892,26.6131468 35.414326,26.543788 35.412048,26.4734204 L35.412048,18.0315719 C35.414326,17.9622131 35.4024299,17.8926021 35.3776251,17.8272787 C35.3525672,17.762712 35.3148538,17.7029373 35.2660036,17.6535034 C35.2179128,17.6035651 35.1602037,17.5639675 35.0961669,17.5372329 C35.031877,17.5104982 34.9635373,17.4968786 34.8946914,17.4968786 M39.8687058,21.2744867 L43.7655856,21.2744867 C43.7131919,19.9667581 43.0956038,19.2666125 41.8242328,19.2666125 C40.5528618,19.2666125 39.9367923,19.9667581 39.8661747,21.2744867 L39.8687058,21.2744867 Z M39.885411,23.0707534 C40.005132,24.4697834 40.6219608,25.0778709 42.0305173,25.0778709 C42.7523867,25.0778709 43.3869332,24.8695423 43.678769,24.5035801 C43.7926684,24.3575483 43.9387128,24.2395122 44.1065247,24.1610737 C44.2733241,24.0818786 44.4568288,24.0440465 44.6413459,24.0495952 L45.8927212,24.0495952 C45.9610608,24.0488386 46.0291474,24.0609448 46.0924249,24.0866707 C46.1559555,24.1126487 46.2136645,24.1512374 46.2617554,24.1999147 C46.3098463,24.2490963 46.3475596,24.3073577 46.3731237,24.3711678 C46.398941,24.4347257 46.4108371,24.5035801 46.4093185,24.5721822 C46.4093185,26.3878695 44.5717406,27.0138641 41.8249921,27.0138641 C38.768184,27.0138641 36.9321248,25.3396689 36.9321248,22.183213 C36.9321248,19.0267572 38.7874203,17.3296104 41.8249921,17.3296104 C44.862817,17.3296104 46.7158345,18.9871596 46.7158345,22.058115 L46.7158345,22.5474098 C46.7173532,22.6160119 46.7052039,22.6848663 46.6803992,22.7484242 C46.6555944,22.8122343 46.617881,22.8704957 46.5697901,22.9196774 C46.5216992,22.968859 46.4644964,23.0069433 46.4012189,23.0326691 C46.3379415,23.0586472 46.2703611,23.0715101 46.2015152,23.0697446 L39.885411,23.0697446 L39.885411,23.0707534 Z M52.3980503,27.0137885 C49.6419367,27.0137885 47.8916818,26.3860283 47.8916818,24.5710977 C47.8891507,24.5035044 47.9005407,24.4356589 47.9253455,24.3715966 C47.9493909,24.3080387 47.9863449,24.2507862 48.0336765,24.2013523 C48.081008,24.1521706 48.1369453,24.1133297 48.1997166,24.0876038 C48.2622347,24.0608692 48.3288026,24.0477541 48.3968892,24.0477541 L49.6257377,24.0477541 C49.8069644,24.042962 49.9869255,24.0818029 50.1506876,24.1609981 C50.3141966,24.2401932 50.4569506,24.3574726 50.566041,24.5017389 C50.8515489,24.8677012 51.4749586,25.076282 52.1950562,25.076282 C53.6076625,25.076282 54.0794594,24.7458819 54.0794594,24.2530561 C54.0794594,22.805601 47.8802919,23.607641 47.8802919,20.082953 C47.8802919,18.1116498 49.7776036,17.3239861 52.1492433,17.3239861 C54.9048507,17.3239861 56.6533338,17.9532595 56.6533338,19.7697034 C56.6558649,19.8375489 56.6437157,19.9053944 56.6196702,19.9692045 C56.5956248,20.0330146 56.5586707,20.0902672 56.5113392,20.1394488 C56.4642608,20.1888828 56.4080704,20.2274715 56.3452991,20.2534495 C56.282781,20.2801842 56.2162131,20.2938037 56.1488858,20.2938037 L54.9200373,20.2938037 C54.7385575,20.2996046 54.5591026,20.2607637 54.3953405,20.1815686 C54.2318315,20.1023734 54.0898369,19.9853462 53.9807465,19.8398188 C53.6944792,19.4715867 53.0733475,19.2632581 52.3507188,19.2632581 C51.1907162,19.2632581 50.7206911,19.5936582 50.7206911,20.082953 C50.7206911,21.5336868 56.9198586,20.6953281 56.9198586,24.2530561 C56.9188461,26.2286469 55.0202688,27.0127796 52.3990628,27.0127796 L52.3980503,27.0137885 Z M18.0681737,21.3995595 C19.0596051,21.3995595 19.5369704,20.9844156 19.8779094,20.2527433 L20.6807739,18.4330206 C20.7842959,18.1997229 20.9510953,18.0009784 21.1619359,17.8587298 C21.3730295,17.7172379 21.6200648,17.6390516 21.8734278,17.6332507 L23.4391655,17.6332507 C23.8828672,17.6332507 23.9367796,17.9808013 23.7287233,18.432264 L22.6540187,20.8262775 C22.2994117,21.5902331 21.616015,22.1993295 20.8827556,22.3549454 C21.5848825,22.5627696 22.1462802,23.0505511 22.6540187,23.8841177 L24.0681436,26.2125556 C24.3392243,26.6665405 24.2220344,27.0130823 23.7770672,27.0130823 L22.2143668,27.0130823 C21.6681556,27.0130823 21.2085081,26.6665405 20.9374274,26.2125556 L19.8786687,24.4566431 C19.4212991,23.6949574 18.8373746,23.3292474 18.068933,23.3292474 L18.068933,26.4920085 C18.0704516,26.5608629 18.0585555,26.6284562 18.03451,26.6915097 C18.0097053,26.7553198 17.9727512,26.8125723 17.9246603,26.8620062 C17.8773288,26.9104313 17.8203791,26.9492722 17.7578609,26.974998 C17.6950897,27.000976 17.6280156,27.0145956 17.5604352,27.0138688 L15.6175637,27.0138688 C15.5494771,27.0138688 15.4821499,27.0017327 15.4196317,26.974998 C15.3568605,26.9492722 15.3001639,26.9104313 15.2518199,26.8620062 C15.203729,26.8135812 15.166775,26.7553198 15.1412109,26.6915097 C15.116153,26.6276996 15.1042568,26.5598541 15.1057755,26.4912519 L15.1057755,15.5156635 C15.1042568,15.4470613 15.1153937,15.3792158 15.1412109,15.3154057 C15.1660156,15.2515956 15.203729,15.1933342 15.2518199,15.1449092 C15.3001639,15.0964841 15.3568605,15.0576432 15.4196317,15.0319174 C15.4829092,15.0059394 15.5502365,14.9930765 15.618323,14.9938016 L17.5611945,14.9938016 C17.6295342,14.9938016 17.6961021,15.0059394 17.7593796,15.032674 C17.8218977,15.0586521 17.8788475,15.0972408 17.926179,15.1456658 C17.9735106,15.1940909 18.0112239,15.2523523 18.0352694,15.3161624 C18.0600741,15.3799725 18.0714641,15.447818 18.0699454,15.5156635 L18.0699454,21.3995595 L18.0681737,21.3995595 Z M61.4261511,21.3738841 C62.4183419,21.3738841 62.8949478,20.9554614 63.2356337,20.2205104 L64.0387514,18.3909514 C64.141514,18.156897 64.3083135,17.9573958 64.519154,17.8151473 C64.7299945,17.6731509 64.9770298,17.5947124 65.2314052,17.5881548 L66.797143,17.5881548 C67.2408447,17.5881548 67.2947571,17.9379754 67.0884725,18.3909514 L66.0127555,20.7973234 C65.6566298,21.5645578 64.9739925,22.1766807 64.2409862,22.3325488 C64.9436193,22.5426429 65.5042577,23.0319377 66.0127555,23.8702964 L67.4301709,26.207814 C67.7012515,26.664321 67.5840617,27.0131327 67.1388414,27.0131327 L65.5723443,27.0131327 C65.0261331,27.0131327 64.5664855,26.664321 64.2898364,26.207814 L63.2308247,24.443074 C62.7737082,23.6781095 62.1897837,23.3098773 61.421342,23.3098773 L61.421342,26.4872669 C61.42362,26.5561213 61.4117239,26.6237146 61.3876784,26.6875247 C61.3628737,26.7513348 61.3259196,26.8095962 61.2785881,26.8587779 C61.2312565,26.9079596 61.1743068,26.9468005 61.1117886,26.9735352 C61.0492705,27.0002698 60.9816902,27.0131327 60.9136036,27.0131327 L58.9755412,27.0131327 C58.9074546,27.0131327 58.8401274,27.0002698 58.7765968,26.9742918 C58.7140786,26.9478093 58.6563696,26.9089684 58.609038,26.8605434 C58.5617065,26.8111095 58.5239931,26.7531003 58.4991883,26.689038 C58.4741305,26.6254801 58.4622343,26.5568779 58.463753,26.4880236 L58.463753,15.4599747 C58.4622343,15.3913725 58.4741305,15.323527 58.4991883,15.2597169 C58.5239931,15.1959068 58.5617065,15.1376454 58.6097974,15.0892204 C58.6581414,15.0407953 58.714838,15.0019544 58.7776092,14.975472 C58.8408867,14.9494939 58.9082139,14.936631 58.9763005,14.9373561 L60.919172,14.9373561 C60.9872586,14.9373561 61.0548389,14.9494939 61.1173571,14.9762286 C61.1798752,15.0019544 61.2368249,15.0407953 61.2841565,15.089977 C61.331488,15.1386543 61.3692014,15.1966635 61.3932468,15.2604736 C61.4180516,15.3242837 61.4294416,15.3921292 61.4269105,15.4607313 L61.4269105,21.3746408 L61.4261511,21.3738841 Z M69.5116454,27.0139146 C69.4410277,27.0139146 69.37041,27.000295 69.3053608,26.9725515 C69.2405647,26.9453124 69.1810838,26.9049582 69.1314743,26.854011 C69.0816117,26.8030638 69.0423796,26.7432892 69.0158031,26.6772091 C68.9894797,26.6108769 68.976571,26.5405093 68.9775835,26.469385 L68.9775835,18.0898333 C68.976571,18.018709 68.9894797,17.9475847 69.0158031,17.8822613 C69.0423796,17.816938 69.0816117,17.7561544 69.1314743,17.7052073 C69.1810838,17.6545123 69.2405647,17.6149147 69.3053608,17.5874234 C69.37041,17.5599321 69.4410277,17.5462585 69.5116454,17.5462585 L71.4497078,17.5462585 C71.5203255,17.5453037 71.59069,17.5584188 71.6564986,17.5849013 C71.7223071,17.6116359 71.7825473,17.6519901 71.83241,17.7029373 C71.8820195,17.7538845 71.9212515,17.8144158 71.9478281,17.8804959 C71.9741515,17.9468281 71.9863008,18.018709 71.9840228,18.0898333 L71.9840228,26.469385 C71.9863008,26.5405093 71.9733922,26.6123902 71.9478281,26.6787224 C71.9212515,26.7448024 71.8827788,26.805586 71.83241,26.8565332 C71.7825473,26.9072281 71.7223071,26.9475824 71.6564986,26.974317 C71.59069,27.0010517 71.5203255,27.0146712 71.4497078,27.0129057 L69.5116454,27.0129057 L69.5116454,27.0139146 Z M11.5379909,19.4273736 C11.5379909,19.6848839 11.0487023,24.1473029 10.8168537,26.3292045 C10.7495265,26.9728542 10.1046025,27.0147217 9.93122218,27.0147217 L2.47941387,27.0147217 C1.70388517,27.0147217 1.42774227,26.6722153 1.35231553,26.2636289 C1.27309213,25.8346132 0.861535448,21.6387843 0.656010216,20.1777097 L0.584886337,19.4515861 C0.584886337,19.0899115 0.837490008,18.7786797 1.18880654,18.7786797 L10.8953178,18.7786797 C10.9806158,18.7786797 11.0646483,18.7958302 11.1433654,18.8288702 C11.2218295,18.8619102 11.2932065,18.9095786 11.3526873,18.9703622 C11.4126744,19.0308935 11.4594997,19.1025222 11.4913915,19.1817173 C11.5235365,19.2609125 11.5387231,19.3456563 11.5379909,19.4306524 L11.5379909,19.426617 L11.5379909,19.4273736 Z M3.0145388,9.7851135 C3.01757612,9.32154451 3.35294673,9.2683274 3.79335794,9.48321357 L6.03692402,10.6131314 C6.77878911,10.9901911 7.36676338,11.7074872 7.51128913,12.4732083 L7.57005765,12.2940597 C7.80560848,11.6473692 8.26378484,11.1109174 9.00716859,10.6244811 L11.2755394,9.15180462 C11.714432,8.86680301 12.0498026,8.99114442 12.0498026,9.45723554 L12.0498026,11.0968775 C12.0401844,11.3667463 11.9637452,11.6308142 11.8275721,11.8633553 C11.6911459,12.0961486 11.4985292,12.2913621 11.2684524,12.4303319 L9.55844193,13.5327585 C8.83226965,13.998093 8.47715648,14.2291208 8.45538903,14.9963553 L11.5435828,14.9963553 C11.6093914,14.9963553 11.6752,15.0084615 11.7361994,15.0334307 C11.7969458,15.0586521 11.8523769,15.0947186 11.8997084,15.1418826 C11.94704,15.1885422 11.983994,15.2435248 12.0095581,15.3048127 C12.0353753,15.3663529 12.0490433,15.4316763 12.0490433,15.4980085 L12.0490433,17.4985685 C12.0490433,17.5649007 12.0353753,17.6302241 12.0095581,17.691512 C11.983994,17.7520434 11.94704,17.8077826 11.8997084,17.8539377 C11.8531362,17.9000929 11.7969458,17.9361594 11.7361994,17.9613808 C11.6744406,17.98635 11.6093914,17.9984563 11.5435828,17.997733 L0.502170024,17.997733 C0.437120782,17.997733 0.37232465,17.9855933 0.311325166,17.9606242 C0.250325682,17.9354028 0.194894616,17.8983274 0.148322396,17.8521722 C0.102003286,17.8062693 0.065049242,17.7505301 0.0392320331,17.6899988 C0.0136679341,17.6284586 0,17.5638919 0,17.4978118 L0,15.4972519 C0,15.4309197 0.0129086045,15.3655963 0.0384727035,15.3040561 C0.0642899124,15.2427682 0.101243956,15.1877855 0.147563067,15.1408738 C0.194135287,15.0947186 0.249566353,15.0578954 0.310565837,15.032674 C0.37131221,15.0077049 0.436361452,14.9955986 0.502170024,14.9955986 L6.5816165,14.9955986 C6.56642991,14.0036417 6.16525073,13.8704728 5.46970475,13.5176257 L3.78298043,12.6767448 C3.5518911,12.5604743 3.35699649,12.3819069 3.22057026,12.1607154 C3.08338469,11.9392717 3.01048905,11.6847879 3.00871728,11.4247555 Z M75.8285089,24.1569626 L75.8285089,20.6105842 C76.3651019,19.2930193 77.5225734,18.5162008 78.8807611,18.5162008 C80.8426159,18.5162008 82.1342356,20.0362934 82.1342356,22.3833951 C82.1342356,24.7304968 80.8426159,26.2505895 78.8807611,26.2505895 C77.5218141,26.2505895 76.3651019,25.4566204 75.8285089,24.156206 L75.8285089,24.1569626 Z M79.0483198,17.5711556 C77.623058,17.5711556 76.4992501,18.2455753 75.8285089,19.2922627 L75.8285089,17.5582927 L74.755323,17.5582927 L74.755323,30 L75.8285089,30 L75.8285089,25.5244659 C76.4992501,26.5542549 77.6397633,27.1963913 79.0483198,27.1963913 C81.5300623,27.1963913 83.2243799,25.2876372 83.2243799,22.3833951 C83.2243799,19.4789009 81.5300623,17.570399 79.0483198,17.570399 L79.0483198,17.5711556 Z M85.9506266,24.5286501 C85.9506266,23.2113374 86.9731905,22.4514172 88.8014033,22.4514172 L91.0988818,22.4514172 L91.0988818,24.0383465 C90.3944769,25.4396464 89.3045857,26.250766 87.8950168,26.250766 C86.6879357,26.250766 85.9498672,25.6424263 85.9498672,24.5276413 L85.9506266,24.5286501 Z M91.1236865,27.0477617 L92.1720677,27.0477617 L92.1720677,21.1177106 C92.1720677,18.9055432 90.7306069,17.5713322 88.4156638,17.5713322 C86.1007207,17.5713322 84.7091226,18.7706088 84.5749743,20.7461996 L85.6651186,20.7461996 C85.7491511,19.3280014 86.7889265,18.4661868 88.3820002,18.4661868 C90.0760647,18.4661868 91.0988818,19.4629357 91.0988818,21.0839139 L91.0988818,21.5563104 L88.8512659,21.5563104 C86.3021962,21.5563104 84.8597229,22.6539449 84.8597229,24.562699 C84.8597229,26.2343721 86.0004892,27.1973245 87.7611216,27.1973245 C89.3541953,27.1973245 90.4780032,26.4543026 91.1158401,25.1876848 L91.1229272,27.0477617 L91.1236865,27.0477617 Z M96.9584011,23.1772633 L94.69408,17.5702981 L93.5533137,17.5702981 L97.2264444,26.6391501 L96.9746001,27.2810342 C96.4040904,28.6492942 95.9846873,29.1047923 95.180051,29.1047923 L93.6705036,29.1047923 L93.6705036,29.9996469 L95.1970093,29.9996469 C96.4040904,29.9996469 97.1092545,29.5943393 97.796701,27.922414 L102.02313,17.5702981 L100.899322,17.5702981 L98.6517062,23.1772633 L97.796701,25.4234795 L96.9584011,23.1772633 Z M103.279314,25.4815391 L103.596208,25.4815391 C103.747061,25.4815391 103.860708,25.4048661 103.860708,25.2515201 C103.860708,25.0979219 103.755667,25.0300764 103.596208,25.0300764 L103.279314,25.0300764 L103.279314,25.4815391 Z M103.656954,24.7927432 C103.933857,24.7927432 104.156087,24.9526468 104.156087,25.2361351 C104.159124,25.3337418 104.12951,25.4305919 104.072561,25.5097871 C104.014852,25.5889822 103.933097,25.6462348 103.839193,25.6729694 L104.201647,26.2772737 L103.869567,26.2772737 L103.537486,25.6956687 L103.280074,25.6956687 L103.280074,26.2772737 L102.999375,26.2772737 L102.999375,24.7934999 L103.658726,24.7934999 L103.656954,24.7927432 Z M104.723053,25.5350085 C104.722294,25.2949009 104.650917,25.0616031 104.51854,24.8628587 C104.385405,24.6641142 104.19785,24.5092549 103.977138,24.4187101 C103.757186,24.3274087 103.51496,24.3039529 103.281845,24.3516213 C103.048225,24.3992897 102.834094,24.5148036 102.666535,24.6845435 C102.498977,24.8540312 102.384065,25.0704306 102.338505,25.3054939 C102.292692,25.5405572 102.316737,25.7844479 102.40811,26.0048828 C102.499736,26.2263265 102.654386,26.4152347 102.851812,26.5476469 C103.049744,26.6800592 103.282605,26.7511835 103.520528,26.7511835 C103.679481,26.7537056 103.837422,26.7239444 103.985238,26.6631608 C104.132801,26.6026295 104.266696,26.5130936 104.379077,26.3998496 C104.491458,26.2868578 104.580299,26.1519234 104.63978,26.0033695 C104.699767,25.8548156 104.728875,25.6956687 104.726344,25.5355129 L104.722294,25.5355129 L104.723053,25.5350085 Z M104.999955,25.5350085 C105.002233,25.8295942 104.917188,26.1181268 104.755957,26.3635308 C104.594726,26.6091871 104.365409,26.801374 104.095847,26.9161313 C103.826538,27.0298797 103.528628,27.0614064 103.241601,27.0049106 C102.954321,26.9491713 102.690328,26.8079316 102.482778,26.6001074 C102.275227,26.3927876 102.133739,26.1277109 102.07603,25.8384217 C102.018321,25.5493846 102.047175,25.2505113 102.158797,24.9783726 C102.270165,24.7062339 102.459491,24.4734405 102.703489,24.3097538 C102.946475,24.1458148 103.232742,24.0585488 103.524831,24.0593055 C103.717954,24.0567833 103.91057,24.0931021 104.089519,24.1667485 C104.268974,24.2401428 104.431977,24.3483425 104.569162,24.485799 C104.706348,24.6230033 104.815438,24.7869423 104.889093,24.967023 C104.962748,25.1471036 105.000715,25.3400472 104.999196,25.5355129 L104.999955,25.5350085 Z" id="Forma-combinada-Copy-2" fill="#FFFFFF"></path>
    </g>
</svg>