<?xml version="1.0" encoding="UTF-8"?>
<svg width="73px" height="73px" viewBox="0 0 73 73" version="1.1" xmlns="http://www.w3.org/2000/svg" xmlns:xlink="http://www.w3.org/1999/xlink">
    <title>Frame 4 Copy 4</title>
    <defs>
        <path d="M0,0 L73,0 L73,73 L0,73 L0,0 Z" id="path-1"></path>
    </defs>
    <g id="Frame-4-Copy-4" stroke="none" fill="none" xlink:href="#path-1" fill-rule="evenodd" stroke-width="1">
        <g id="kit-limpieza" transform="translate(0, 1)" fill="#FF4604">
            <path d="M51.5597708,0 C51.9774268,0.271659926 52.2959308,0.464456469 52.3808188,1.0109169 C52.2322648,3.44573659 52.627829,6.1827496 52.4152611,8.5804058 C52.3715994,9.0736509 51.9226323,9.81831664 51.410695,9.81971245 L47.2235242,9.83175133 C47.3148484,11.7440139 47.4992363,13.5214061 48.0336133,15.3617843 C48.2082599,15.9632048 48.8744916,17.3625065 48.8932783,17.8241713 C48.9665116,19.6193601 45.9917782,18.8985976 45.0086081,18.5320225 C42.9921699,17.7800287 41.5575973,16.2823224 40.6939313,14.3419691 C40.4314395,13.7522385 40.2941923,13.0457831 40.04753,12.5026377 C39.9998675,12.3977774 39.9995195,12.1425182 39.8015635,12.337583 C39.3305046,12.8013415 39.3494652,17.6688872 39.407043,20.1820469 C41.4060861,21.4949826 42.8469209,23.0049023 43.8852335,25.2216264 C44.0684038,25.6128027 44.2220024,26.445928 44.3969969,26.6945571 C44.4857118,26.8205291 45.0540092,27.0520594 45.2749268,27.233166 C46.0693603,27.8846613 46.4842331,28.7493669 46.6559226,29.7578411 L46.6576621,33.4593603 C46.7354181,33.1952029 46.8133481,32.8977204 46.8989319,32.7150435 C47.8097385,30.7701539 49.0877554,29.4716997 50.8844937,28.3339383 C51.0629672,26.3258882 50.7075856,24.0653705 50.8964963,22.0887262 C50.9582488,21.4419417 51.2316995,21.0580934 51.9038456,20.9780087 C53.2166526,20.8213288 57.0467023,20.8209798 58.3589875,20.9780087 C58.9492027,21.0484972 59.2925817,21.3908201 59.3635536,21.9854361 L59.3785134,28.3339383 C60.8764041,29.3251394 62.1394612,30.4058469 63.0109549,32.0085881 C63.2217834,32.3961005 63.7358081,33.8993901 63.8286979,33.9993651 C63.9076715,34.0841607 64.3456798,34.2532284 64.5326769,34.4064188 C65.2448317,34.9900427 65.6209134,35.8107802 65.7091065,36.7262585 L65.710672,70.8863164 C65.703888,71.5413013 65.2590957,71.9924975 64.6005178,72 L45.6624893,72 C45.5275034,71.9984297 45.4019109,71.9773181 45.2864076,71.9405035 L22.8338762,71.9405035 C22.0507495,71.9316052 21.5215911,71.3950899 21.5135893,70.6160523 L21.5153288,29.9919886 C21.6203952,28.9032552 22.0676228,27.9270591 22.9144155,27.233166 C23.1368986,27.0510126 23.6577074,26.8498412 23.7516409,26.7489937 C23.8622736,26.6301752 24.4735369,24.8424889 24.7242001,24.381522 C25.7308536,22.5301517 27.1776028,21.2650225 28.8922363,20.1136521 C28.8866201,19.5347889 28.8786184,18.8779738 28.8676671,18.2082974 L28.8557117,17.5367445 C28.8275877,16.0828712 28.7847346,14.6704751 28.7214165,13.9616103 C28.5662524,12.2234753 27.4239172,10.6158488 25.7315494,10.0964322 C24.636181,9.76004149 22.9429434,10.2262427 22.9211996,8.54167202 C22.8676227,4.38459469 26.5033693,0.535468409 30.5651215,0.0596709664 Z M63.5905591,42.1920841 L46.672274,42.1920841 L46.672274,63.3712642 L46.675579,69.8733058 L63.5905591,69.8733058 L63.5905591,65.631084 L51.6949306,65.631084 C51.3722518,65.631084 50.9591186,65.0532178 50.9086728,64.7227592 C50.8770138,64.5149577 50.8563136,64.0473607 50.847964,63.5097986 L50.8317865,63.5097986 L50.8317865,49.9210445 C50.8305689,49.7088811 50.8305689,49.4941005 50.8317865,49.2829839 L50.8335751,49.0703636 C50.8417416,48.2999203 50.8675334,47.6122987 50.9086728,47.3428051 C50.9591186,47.0121722 51.3722518,46.4344804 51.6949306,46.4344804 L63.5905591,46.4344804 L63.5905591,42.1920841 Z M44.1545094,36.492111 L24.0348329,36.492111 L24.0348329,41.5372738 L38.1815593,41.5372738 C38.5652948,41.5372738 39.056532,42.2243623 39.1165451,42.6174578 C39.169948,42.9671088 39.2014331,43.908584 39.2078693,44.9240373 L39.2090434,45.3037636 L39.2078693,45.683708 L39.2078693,61.8437224 L39.1889086,61.8437224 C39.1788195,62.4831788 39.1542924,63.0390609 39.1165451,63.2861197 C39.056532,63.6792152 38.5652948,64.3663037 38.1815593,64.3663037 L24.0348329,64.3663037 L24.0348329,69.4114665 L44.1545094,69.4114665 L44.1545094,36.492111 Z M63.5905591,48.5555914 L53.0166092,48.5555914 L53.0166092,63.5097986 L63.5905591,63.5097986 L63.5905591,48.5555914 Z M36.6095655,44.0598551 L24.0348329,44.0598551 L24.0348329,61.8438968 L36.6095655,61.8438968 L36.6095655,44.0598551 Z M62.6689672,35.8248701 L62.5886023,35.8261342 L47.4098255,35.8790005 C47.1509867,35.8997632 46.672274,36.4212735 46.672274,36.6240152 L46.672274,40.0709732 L63.5905591,40.0709732 L63.5905591,36.6240152 C63.5905591,36.3223454 62.9445057,35.7795489 62.5886023,35.8261342 Z M25.2265701,28.9215752 C24.8031738,28.8660917 24.0348329,29.5116548 24.0348329,29.8703785 L24.0348329,33.9695296 L44.1545094,33.9695296 L44.1545094,29.8703785 C44.1545094,29.629252 43.5853423,29.008988 43.2774493,28.9843868 Z M61.4758387,33.7074659 C59.0930601,28.0828666 51.1729042,28.0788537 48.7871683,33.7074659 Z M65.6132248,22.6346806 C66.3514722,22.7882199 66.7960905,23.318454 66.5454274,24.0849293 C66.2538857,24.9766788 64.9809135,24.8090069 64.4070496,25.3849538 C65.2136597,25.5999089 66.7593869,25.9099536 66.624575,27.0199732 C66.5527333,27.6128444 66.09733,27.9610995 65.5158123,27.9410347 C64.3468626,27.9007306 62.0406223,26.4639166 60.7726946,26.2206963 C60.0560171,25.6283486 60.1269891,24.7516041 60.9487329,24.3037229 Z M57.2462239,23.1015623 L53.0166092,23.1015623 L53.0166092,27.5561221 C54.4449195,27.2785299 55.8173917,27.2783555 57.2462239,27.5561221 L57.2462239,23.1015623 Z M41.6395281,26.40196 C38.8022159,19.7081687 29.3834735,19.7128795 26.5498142,26.40196 Z M37.1014985,17.4319481 L31.0861043,17.4490468 L31.0909749,19.2138767 C31.2517055,19.1728747 31.4126101,19.1325706 31.5797768,19.0865088 C33.2789287,18.7563993 34.9111094,18.7563993 36.6097394,19.0865088 C36.7530749,19.0973264 36.9223291,19.1299535 37.1063691,19.1772366 L37.1014985,17.4319481 Z M44.8645768,9.83838144 C44.2881037,9.89543526 43.5947356,9.76579921 43.0363534,9.84361573 C42.7286344,9.88653696 42.2640116,10.1728529 41.9171537,10.205829 C42.3203717,12.1924185 42.9645117,14.5427916 44.7250682,15.7337682 C46.4184797,16.879381 45.6428329,15.8063505 45.4078253,14.6884795 C45.0707085,13.0848659 44.9327655,11.4758435 44.8645768,9.83838144 Z M44.8435287,2.38526837 L30.7488136,2.42539796 C28.2322668,2.71625031 25.8068701,5.01410594 25.4457482,7.53249988 C29.006522,8.26861628 31.4016512,11.420011 31.0787984,15.0836688 L37.0947144,15.0658722 L37.0898438,13.3505936 C37.0828857,10.8896024 40.4434421,7.4848678 42.9118046,7.47788874 L44.8577927,7.47230549 L44.8435287,2.38526837 Z M50.0331782,2.37043786 L47.2024761,2.37863826 L47.2162182,7.28823277 L47.3936481,7.46515195 L50.0476161,7.45764946 L50.0331782,2.37043786 Z M70.1453575,23.1337881 C70.5360511,23.056844 72.4138504,22.2985691 72.659469,22.0501145 C73.4579034,21.2422883 72.7535764,20.1218001 71.5689712,20.3207033 C71.2675144,20.3713015 69.6960425,20.9646961 69.4078059,21.1220739 C68.2101543,21.775314 68.7266144,23.412776 70.1453575,23.1337881 M72.5470098,28.4105684 C72.270428,28.2036393 69.9685364,27.381506 69.669167,27.4204142 C68.7472276,27.5399306 68.4066318,28.7905783 69.1673189,29.3611165 C69.3287452,29.4822032 71.6776035,30.3565049 71.8699931,30.3647053 C72.8618608,30.4076266 73.3875403,29.0393818 72.5470098,28.4105684 M72.2343332,24.2697523 C71.8217218,24.1621003 69.9886278,24.1573894 69.559665,24.2439298 C68.5147423,24.4548719 68.4688192,26.0269052 69.4796476,26.2903648 C69.8966078,26.3988892 71.6162858,26.4029021 72.0662967,26.3338094 C73.2035873,26.1593329 73.2709063,24.5401909 72.2343332,24.2697523 M13.2858883,10.0520454 L8.37369044,13.8268447 L7.91915688,12.995813 L12.4069147,8.79895508 C12.8195261,9.12976254 12.9666885,9.65005149 13.2858883,10.0520454 L13.2858883,10.0520454 Z M14.1711242,11.6676979 L14.7912589,12.9603943 L9.64040049,16.3199395 L9.18882409,15.3249 L13.789476,11.6654297 L14.1711242,11.6676979 Z M15.9489018,16.1930951 L10.5329423,19.0932436 C10.3087196,19.1298837 10.3946513,19.0559057 10.3452493,18.9283633 C10.2347905,18.6430942 10.28628,18.2576756 10.1215485,17.9713597 L15.2539682,14.6147806 L15.9489018,16.1930951 Z M16.7793432,19.5829992 L10.6402699,22.2245736 C10.7502069,21.7395289 10.3353341,21.1714333 10.8211788,20.8404514 L16.3782125,17.9706618 L16.7793432,19.5829992 Z M17.2481407,23.1477288 L10.7503808,25.1903253 C10.8107418,24.7665218 10.5877368,24.1694632 11.0106113,23.9128083 L17.017134,21.3157254 L17.2481407,23.1477288 Z M17.5358554,26.6079469 L10.9485108,28.0752944 C11.0140903,27.7129067 10.6889762,27.2034352 11.0358342,26.9553297 L17.445227,24.7808289 L17.5358554,26.6079469 Z M17.5614261,29.9770883 L11.1288979,30.9461309 C10.9959994,30.8555776 10.9721682,29.8177913 11.3129379,29.7998202 L17.7287669,28.4429164 C17.7004129,28.7984995 17.8607956,29.8031352 17.5614261,29.9770883 L17.5614261,29.9770883 Z M17.5805607,33.2005418 L11.6582303,33.6908208 C11.0278324,33.8331937 10.997565,32.7940116 11.425658,32.6139518 L17.5647312,31.6159462 C17.7449443,31.6534586 17.7129373,33.1117333 17.5805607,33.2005418 L17.5805607,33.2005418 Z M17.2763207,36.3456554 L11.3646013,36.3924151 L11.2880629,35.4854862 L11.4557515,35.3736468 L17.5419437,34.9463538 C17.38504,35.2639011 17.5767338,36.2552766 17.2763207,36.3456554 L17.2763207,36.3456554 Z M12.2267016,42.8300749 C12.4436183,42.8274578 12.9030225,42.7567948 12.9694718,43.0066451 C13.0213091,43.201012 12.4664059,46.2384735 12.4034357,46.7863298 C11.8426182,51.6667867 11.6999785,56.793081 12.2221789,61.6813894 C12.3735162,63.0986621 13.0752339,65.870047 13.0070451,67.0463676 C12.9124159,68.6831318 10.9631227,69.9555889 9.52594083,68.9663071 C5.2660586,66.0340549 7.16647157,58.8302688 7.33450809,54.5114517 C7.39452113,52.9690794 7.42078771,51.2754359 7.34111822,49.7374255 C7.22213584,47.4449786 6.99878296,45.0515098 5.6988483,43.0799253 C7.86888508,43.0022832 10.0550993,42.8574677 12.2267016,42.8300749 L12.2267016,42.8300749 Z M5.39217296,14.9654784 C4.38551942,13.5279664 3.15638275,12.5662519 1.95438242,11.3204896 L2.86536299,9.93915907 C3.31224271,10.1487054 3.47766996,10.5777431 3.7850411,10.9029673 C7.08210541,14.3919741 8.52850669,16.3230801 8.93781302,21.2051073 L9.95751288,41.2241931 L8.64192264,41.2632758 L8.50711073,40.7044276 C7.98125733,34.294684 8.14077025,27.6432905 7.54168355,21.2612888 C7.32424499,18.945462 6.74707609,16.9004229 5.39217296,14.9654784 L5.39217296,14.9654784 Z M8.73707375,4.74045698 L9.51741724,5.28813875 L5.24675005,9.90112319 L4.84596731,9.48168166 L8.73707375,4.74045698 Z M10.6446187,6.46288909 L11.386693,7.25780407 L11.3216354,7.58581991 L7.06279687,11.5396321 C6.81874384,11.7772691 6.43866124,11.4344228 6.40143576,11.1976581 C6.35185977,10.8823791 10.2600134,7.1602717 10.6446187,6.46288909 L10.6446187,6.46288909 Z M10.2447057,3.69848327 C9.663362,3.20994904 8.69567345,2.21281578 7.97847412,2.90880258 L3.71789608,8.30728027 C3.41261235,7.85486268 2.75003358,7.52754475 2.28819409,7.91837213 C2.04135784,8.12704604 0.348468218,10.6056593 0.141292762,10.9989294 C-0.0737104821,11.406332 -0.0448346419,11.696312 0.238183382,12.0700407 C0.849794552,12.8776925 2.25392577,13.8100949 2.99286896,14.5838982 C4.14564121,15.7909267 5.16882007,17.7117386 5.57325579,19.3314041 C6.04361887,26.4530118 6.78899824,33.6904719 6.84031374,40.8415661 C6.84118349,40.9776578 6.87162489,41.1057236 6.96155748,41.2121542 C6.91093778,41.5105091 4.34620653,41.2733955 3.96455838,41.4508381 C2.59312992,42.0888987 3.98908545,43.3332652 4.44031394,44.1684842 C6.0385743,47.1251631 5.7618185,52.4371005 5.58943322,55.7957733 C5.39112925,59.6555427 4.30671969,63.3907358 6.02952885,67.0807395 C7.16734133,69.5176529 9.40904586,71.9332802 12.285497,70.6180763 C16.0148292,68.9127428 14.1874756,64.5876446 13.8573169,61.4650385 C13.1622093,54.8939042 13.7459883,48.3103821 14.7978691,41.8107831 C14.5018047,40.6184107 12.4857145,41.3953546 11.6043055,41.1708033 L11.4870627,38.2069708 C11.549685,38.0494185 11.846793,38.0654704 11.9876932,38.0501164 C13.786171,37.8547027 16.0186561,38.1886508 17.8146986,37.993935 C19.0514891,37.8597626 18.9045006,37.5287806 19.0701018,36.4573204 C19.29589,34.9974754 19.377299,33.0194352 19.4141766,31.5250439 C19.6420522,22.2896533 17.7094583,9.97370542 10.2447057,3.69848327 L10.2447057,3.69848327 Z" id="Forma-combinada"></path>
        </g>
    </g>
</svg>