<?xml version="1.0" encoding="UTF-8"?>
<svg width="38px" height="35px" viewBox="0 0 38 35" version="1.1" xmlns="http://www.w3.org/2000/svg" xmlns:xlink="http://www.w3.org/1999/xlink">
    <title>Artboard Copy 10</title>
    <g id="Artboard-Copy-10" stroke="none" stroke-width="1" fill="none" fill-rule="evenodd">
        <g id="mastercard" transform="translate(1, 4)" fill="#FFFFFF">
            <path d="M18,2.4137931 C17.8095238,2.51034483 17.7142857,2.60689655 17.6190476,2.8 C15.2380952,4.82758621 13.8095238,7.82068966 13.8095238,11.2 C13.8095238,14.5793103 15.3333333,17.5724138 17.6190476,19.6 C17.7142857,19.6965517 17.9047619,19.7931034 18,19.9862069 C18.1904762,19.8896552 18.2857143,19.7931034 18.3809524,19.6 C20.7619048,17.5724138 22.1904762,14.5793103 22.1904762,11.2 C22.1904762,7.82068966 20.6666667,4.82758621 18.3809524,2.8 C18.2857143,2.70344828 18.0952381,2.60689655 18,2.4137931 L18,2.4137931 Z M24.8571429,0 C22.5714286,0 20.4761905,0.675862069 18.6666667,1.83448276 C18.6666667,1.83448276 18.8571429,2.02758621 18.952381,2.02758621 C21.6190476,4.34482759 23.047619,7.62758621 23.047619,11.1034483 C23.047619,14.5793103 21.5238095,17.862069 18.952381,20.1793103 C18.952381,20.1793103 18.7619048,20.3724138 18.6666667,20.3724138 C20.4761905,21.5310345 22.5714286,22.2068966 24.8571429,22.2068966 C31.047619,22.2068966 36,17.1862069 36,11.1034483 C36,5.02068966 31.047619,0 24.8571429,0 L24.8571429,0 Z M17.047619,20.1793103 C17.047619,20.1793103 17.2380952,20.3724138 17.3333333,20.3724138 C15.5238095,21.5310345 13.4285714,22.2068966 11.1428571,22.2068966 C4.95238095,22.2068966 0,17.2827586 0,11.1034483 C0,4.92413793 4.95238095,0 11.1428571,0 C17.3333333,0 15.5238095,0.675862069 17.3333333,1.83448276 C17.3333333,1.83448276 17.1428571,2.02758621 17.047619,2.02758621 C14.3809524,4.34482759 12.952381,7.62758621 12.952381,11.1034483 C12.952381,14.5793103 14.4761905,17.862069 17.047619,20.1793103 L17.047619,20.1793103 Z M34.952381,18.0551724 L34.952381,17.6689655 L35.1428571,17.6689655 C35.1428571,17.6689655 34.7619048,17.6689655 34.7619048,17.6689655 L34.7619048,17.6689655 C34.7619048,17.6689655 34.952381,17.6689655 34.952381,17.6689655 L34.952381,18.0551724 L34.952381,18.0551724 L34.952381,18.0551724 Z M7.80952381,26.3586207 C7.80952381,25.8758621 8.19047619,25.3931034 8.66666667,25.3931034 C9.14285714,25.3931034 9.52380952,25.7793103 9.52380952,26.3586207 C9.52380952,26.937931 9.14285714,27.3241379 8.66666667,27.3241379 C8.19047619,27.3241379 7.80952381,26.937931 7.80952381,26.3586207 L7.80952381,26.3586207 Z M10.1904762,26.3586207 L10.1904762,24.9103448 L9.52380952,24.9103448 L9.52380952,25.2965517 C9.33333333,25.0068966 9.04761905,24.9103448 8.57142857,24.9103448 C7.71428571,24.9103448 7.04761905,25.5862069 7.04761905,26.4551724 C7.04761905,27.3241379 7.71428571,28 8.57142857,28 C9.42857143,28 9.33333333,27.8068966 9.52380952,27.6137931 L9.52380952,28 L10.1904762,28 L10.1904762,26.5517241 L10.1904762,26.3586207 Z M31.9047619,26.3586207 C31.9047619,25.8758621 32.2857143,25.3931034 32.7619048,25.3931034 C33.2380952,25.3931034 33.6190476,25.7793103 33.6190476,26.3586207 C33.6190476,26.937931 33.2380952,27.3241379 32.7619048,27.3241379 C32.2857143,27.3241379 31.9047619,26.937931 31.9047619,26.3586207 L31.9047619,26.3586207 Z M34.2857143,26.3586207 L34.2857143,23.6551724 L33.6190476,23.6551724 L33.6190476,25.2 C33.4285714,24.9103448 33.1428571,24.8137931 32.6666667,24.8137931 C31.8095238,24.8137931 31.1428571,25.4896552 31.1428571,26.3586207 C31.1428571,27.2275862 31.8095238,27.9034483 32.6666667,27.9034483 C33.5238095,27.9034483 33.4285714,27.7103448 33.6190476,27.5172414 L33.6190476,27.9034483 L34.2857143,27.9034483 L34.2857143,26.4551724 L34.2857143,26.3586207 Z M18.1904762,25.3931034 C18.5714286,25.3931034 18.8571429,25.6827586 18.952381,26.0689655 L17.4285714,26.0689655 C17.4285714,25.6827586 17.7142857,25.3931034 18.1904762,25.3931034 L18.1904762,25.3931034 Z M18.1904762,24.8137931 C17.3333333,24.8137931 16.7619048,25.4896552 16.7619048,26.3586207 C16.7619048,27.2275862 17.4285714,27.9034483 18.2857143,27.9034483 C19.1428571,27.9034483 19.1428571,27.8068966 19.5238095,27.5172414 L19.2380952,27.0344828 C18.952381,27.2275862 18.6666667,27.3241379 18.3809524,27.3241379 C18.0952381,27.3241379 17.6190476,27.1310345 17.5238095,26.6482759 L19.7142857,26.6482759 C19.7142857,26.6482759 19.7142857,26.4551724 19.7142857,26.3586207 C19.7142857,25.3931034 19.1428571,24.8137931 18.2857143,24.8137931 L18.2857143,24.8137931 L18.1904762,24.8137931 Z M25.9047619,26.3586207 C25.9047619,25.8758621 26.2857143,25.3931034 26.7619048,25.3931034 C27.2380952,25.3931034 27.6190476,25.7793103 27.6190476,26.3586207 C27.6190476,26.937931 27.2380952,27.3241379 26.7619048,27.3241379 C26.2857143,27.3241379 25.9047619,26.937931 25.9047619,26.3586207 L25.9047619,26.3586207 Z M28.2857143,26.3586207 L28.2857143,24.9103448 L27.6190476,24.9103448 L27.6190476,25.2965517 C27.4285714,25.0068966 27.1428571,24.9103448 26.6666667,24.9103448 C25.8095238,24.9103448 25.1428571,25.5862069 25.1428571,26.4551724 C25.1428571,27.3241379 25.8095238,28 26.6666667,28 C27.5238095,28 27.4285714,27.8068966 27.6190476,27.6137931 L27.6190476,28 L28.2857143,28 L28.2857143,26.5517241 L28.2857143,26.3586207 Z M22.2857143,26.3586207 C22.2857143,27.2275862 22.952381,27.9034483 23.9047619,27.9034483 C24.8571429,27.9034483 24.6666667,27.8068966 24.952381,27.5172414 L24.6666667,27.0344828 C24.3809524,27.2275862 24.1904762,27.3241379 23.9047619,27.3241379 C23.4285714,27.3241379 23.047619,26.937931 23.047619,26.3586207 C23.047619,25.7793103 23.4285714,25.3931034 23.9047619,25.3931034 C24.1904762,25.3931034 24.4761905,25.3931034 24.6666667,25.6827586 L24.952381,25.2 C24.6666667,24.9103448 24.3809524,24.8137931 23.9047619,24.8137931 C22.952381,24.8137931 22.2857143,25.4896552 22.2857143,26.3586207 L22.2857143,26.3586207 L22.2857143,26.3586207 Z M30.5714286,24.8137931 C30.1904762,24.8137931 30,25.0068966 29.8095238,25.2 L29.8095238,24.8137931 L29.1428571,24.8137931 L29.1428571,27.8068966 L29.8095238,27.8068966 L29.8095238,26.1655172 C29.8095238,25.6827586 30,25.3931034 30.4761905,25.3931034 C30.952381,25.3931034 30.7619048,25.3931034 30.8571429,25.3931034 L31.047619,24.8137931 C30.952381,24.8137931 30.7619048,24.8137931 30.5714286,24.8137931 L30.5714286,24.8137931 L30.5714286,24.8137931 Z M13.3333333,25.1034483 C13.047619,24.9103448 12.5714286,24.8137931 12.0952381,24.8137931 C11.3333333,24.8137931 10.8571429,25.2 10.8571429,25.7793103 C10.8571429,26.3586207 11.2380952,26.5517241 11.9047619,26.6482759 L12.1904762,26.6482759 C12.5714286,26.6482759 12.6666667,26.8413793 12.6666667,27.0344828 C12.6666667,27.2275862 12.4761905,27.4206897 12,27.4206897 C11.5238095,27.4206897 11.2380952,27.3241379 11.047619,27.1310345 L10.7619048,27.6137931 C11.1428571,27.9034483 11.5238095,28 12,28 C12.8571429,28 13.3333333,27.6137931 13.3333333,27.0344828 C13.3333333,26.4551724 12.952381,26.262069 12.2857143,26.1655172 L12,26.1655172 C11.7142857,26.1655172 11.5238095,26.0689655 11.5238095,25.8758621 C11.5238095,25.6827586 11.7142857,25.4896552 12.0952381,25.4896552 C12.4761905,25.4896552 12.8571429,25.5862069 13.047619,25.7793103 L13.3333333,25.2965517 L13.3333333,25.1034483 Z M21.6190476,24.8137931 C21.2380952,24.8137931 21.047619,25.0068966 20.8571429,25.2 L20.8571429,24.8137931 L20.1904762,24.8137931 L20.1904762,27.8068966 L20.8571429,27.8068966 L20.8571429,26.1655172 C20.8571429,25.6827586 21.047619,25.3931034 21.5238095,25.3931034 C22,25.3931034 21.8095238,25.3931034 21.9047619,25.3931034 L22.0952381,24.8137931 C22,24.8137931 21.8095238,24.8137931 21.6190476,24.8137931 L21.6190476,24.8137931 L21.6190476,24.8137931 Z M16.1904762,24.9103448 L15.1428571,24.9103448 L15.1428571,24.0413793 L14.4761905,24.0413793 L14.4761905,24.9103448 L13.9047619,24.9103448 L13.9047619,25.4896552 L14.4761905,25.4896552 L14.4761905,26.8413793 C14.4761905,27.5172414 14.7619048,27.9034483 15.5238095,27.9034483 C16.2857143,27.9034483 16.0952381,27.9034483 16.2857143,27.7103448 L16.0952381,27.1310345 C15.9047619,27.2275862 15.7142857,27.3241379 15.5238095,27.3241379 C15.2380952,27.3241379 15.1428571,27.1310345 15.1428571,26.8413793 L15.1428571,25.4896552 L16.1904762,25.4896552 L16.1904762,24.9103448 L16.1904762,24.9103448 Z M6.57142857,27.8068966 L6.57142857,25.9724138 C6.57142857,25.2965517 6.0952381,24.8137931 5.42857143,24.8137931 C5.04761905,24.8137931 4.66666667,24.9103448 4.38095238,25.2965517 C4.19047619,25.0068966 3.80952381,24.8137931 3.42857143,24.8137931 C3.04761905,24.8137931 2.76190476,24.8137931 2.57142857,25.2965517 L2.57142857,24.9103448 L1.9047619,24.9103448 L1.9047619,27.9034483 L2.57142857,27.9034483 L2.57142857,26.262069 C2.57142857,25.7793103 2.85714286,25.4896552 3.33333333,25.4896552 C3.80952381,25.4896552 4,25.7793103 4,26.262069 L4,27.9034483 L4.66666667,27.9034483 L4.66666667,26.262069 C4.66666667,25.7793103 4.95238095,25.4896552 5.42857143,25.4896552 C5.9047619,25.4896552 6.0952381,25.7793103 6.0952381,26.262069 L6.0952381,27.9034483 L6.76190476,27.9034483 L6.57142857,27.8068966 Z" id="Fill-1"></path>
        </g>
    </g>
</svg>