<?xml version="1.0" encoding="UTF-8"?>
<svg width="89px" height="35px" viewBox="0 0 89 35" version="1.1" xmlns="http://www.w3.org/2000/svg" xmlns:xlink="http://www.w3.org/1999/xlink">
    <title>Artboard Copy 12</title>
    <g id="Artboard-Copy-12" stroke="none" stroke-width="1" fill="none" fill-rule="evenodd">
        <g id="mercado_pago" transform="translate(0, 6)" fill="#FFFFFF" fill-rule="nonzero">
            <path d="M87.5484375,3.31893229 C86.9955,2.58168229 86.0739375,2.21305729 84.8759063,2.21305729 C83.677875,2.21305729 82.7563125,2.58168229 82.203375,3.31893229 C81.6504375,4.05618229 81.2818125,4.97774479 81.2818125,5.99146354 C81.2818125,7.00518229 81.5582813,7.92674479 82.203375,8.66399479 C82.7563125,9.40124479 83.677875,9.76986979 84.8759063,9.76986979 C86.0739375,9.76986979 86.9955,9.40124479 87.5484375,8.66399479 C88.101375,7.92674479 88.47,7.00518229 88.47,5.99146354 C88.47,4.97774479 88.1935313,4.05618229 87.5484375,3.31893229 Z M86.0739375,7.65027604 C85.7974688,8.01890104 85.4288438,8.20321354 84.8759063,8.20321354 C84.3229688,8.20321354 83.9543438,8.01890104 83.677875,7.65027604 C83.4014063,7.28165104 83.2170938,6.72871354 83.2170938,5.99146354 C83.2170938,5.25421354 83.4014063,4.70127604 83.677875,4.33265104 C83.9543438,3.96402604 84.415125,3.77971354 84.8759063,3.77971354 C85.3366875,3.77971354 85.7974688,3.96402604 86.0739375,4.33265104 C86.3504063,4.70127604 86.5347188,5.25421354 86.5347188,5.99146354 C86.5347188,6.72871354 86.3504063,7.28165104 86.0739375,7.65027604 Z" id="Shape"></path>
            <path d="M72.5269687,2.67383854 C71.9740312,2.39736979 71.2367812,2.21305729 70.4995312,2.21305729 C69.3015,2.21305729 68.4720937,2.48952604 68.0113125,3.13461979 C67.7348437,3.50324479 67.5505312,4.05618229 67.458375,4.70127604 L69.2093437,4.70127604 C69.2093437,4.42480729 69.3015,4.24049479 69.4858125,4.05618229 C69.670125,3.87186979 69.9465937,3.68755729 70.407375,3.68755729 C70.8681562,3.68755729 71.0524687,3.68755729 71.3289375,3.87186979 C71.51325,3.96402604 71.6054062,4.14833854 71.6054062,4.51696354 C71.6054062,4.88558854 71.51325,4.88558854 71.2367812,5.06990104 C71.0524687,5.06990104 70.8681562,5.16205729 70.4995312,5.25421354 L69.8544375,5.25421354 C69.1171875,5.43852604 68.6564062,5.53068229 68.2877812,5.80715104 C67.6426875,6.17577604 67.2740625,6.82086979 67.2740625,7.65027604 C67.2740625,8.47968229 67.458375,8.84830729 67.9191562,9.21693229 C68.2877812,9.58555729 68.8407187,9.76986979 69.4858125,9.76986979 C73.4485312,9.95418229 73.4485312,7.65027604 73.4485312,7.18949479 L73.4485312,4.51696354 C73.4485312,3.68755729 73.1720625,3.04246354 72.5269687,2.76599479 L72.5269687,2.76599479 L72.5269687,2.67383854 Z M71.6054062,6.72871354 C71.6054062,7.37380729 71.4210937,7.74243229 71.0524687,8.01890104 C70.6838437,8.29536979 70.3152187,8.38752604 69.9465937,8.38752604 C69.5779687,8.38752604 69.4858125,8.38752604 69.3015,8.20321354 C69.1171875,8.01890104 69.0250312,7.83458854 69.0250312,7.55811979 C69.0250312,7.28165104 69.2093437,6.91302604 69.4858125,6.72871354 C69.670125,6.63655729 69.9465937,6.54440104 70.3152187,6.45224479 L70.6838437,6.45224479 C70.8681562,6.36008854 71.0524687,6.26793229 71.144625,6.26793229 C71.2367812,6.26793229 71.4210937,6.17577604 71.51325,6.08361979 L71.51325,6.72871354 L71.51325,6.72871354 L71.6054062,6.72871354 Z" id="Shape1"></path>
            <path d="M63.4956562,3.87186979 C63.9564375,3.87186979 64.3250625,4.05618229 64.509375,4.33265104 C64.6936875,4.51696354 64.7858437,4.79343229 64.7858437,5.06990104 L66.721125,5.06990104 C66.6289687,4.05618229 66.2603437,3.41108854 65.7074062,2.95030729 C65.1544687,2.58168229 64.4172187,2.39736979 63.4956562,2.39736979 C62.5740937,2.39736979 61.560375,2.76599479 60.9152812,3.41108854 C60.2701875,4.05618229 59.9937187,5.06990104 59.9937187,6.26793229 C59.9937187,7.46596354 60.2701875,8.20321354 60.823125,8.84830729 C61.3760625,9.49340104 62.2054687,9.86202604 63.4035,9.86202604 C64.6015312,9.86202604 65.4309375,9.49340104 66.0760312,8.66399479 C66.4446562,8.20321354 66.6289687,7.65027604 66.721125,7.09733854 L64.7858437,7.09733854 C64.7858437,7.46596354 64.6015312,7.74243229 64.4172187,8.01890104 C64.2329062,8.29536979 63.9564375,8.38752604 63.4956562,8.38752604 C63.034875,8.38752604 62.3897812,8.11105729 62.2054687,7.46596354 C62.1133125,7.18949479 62.0211562,6.72871354 62.0211562,6.26793229 C62.0211562,5.80715104 62.0211562,5.25421354 62.2054687,4.97774479 C62.4819375,4.33265104 62.8505625,4.05618229 63.4956562,4.05618229 L63.4956562,3.87186979 Z" id="Path"></path>
            <path d="M59.4407813,4.14833854 C59.4407813,4.14833854 59.6250938,4.14833854 59.71725,4.14833854 L59.71725,2.30521354 C59.71725,2.30521354 59.6250938,2.30521354 59.5329375,2.30521354 C59.5329375,2.30521354 59.5329375,2.30521354 59.5329375,2.30521354 C55.4780625,2.30521354 55.7545313,5.89930729 55.7545313,5.89930729 L55.7545313,9.58555729 L57.5976563,9.58555729 L57.5976563,6.17577604 C57.5976563,5.62283854 57.5976563,5.16205729 57.7819688,4.88558854 C58.0584375,4.42480729 58.5192188,4.14833854 59.2564688,4.14833854 C59.9937188,4.14833854 59.348625,4.14833854 59.4407813,4.14833854 Z" id="Path1"></path>
            <path d="M49.027125,8.84830729 C49.764375,9.40124479 50.501625,9.67771354 51.4231875,9.67771354 C52.34475,9.67771354 53.450625,9.30908854 54.0035625,8.66399479 C54.3721875,8.29536979 54.5565,7.92674479 54.6486563,7.55811979 L52.713375,7.55811979 C52.713375,7.65027604 52.5290625,7.74243229 52.4369063,7.83458854 C52.1604375,8.01890104 51.7918125,8.11105729 51.4231875,8.11105729 C51.0545625,8.11105729 50.6859375,8.11105729 50.4094688,7.83458854 C49.9486875,7.55811979 49.6722188,7.09733854 49.6722188,6.36008854 L54.7408125,6.36008854 C54.7408125,5.71499479 54.7408125,5.25421354 54.7408125,4.97774479 C54.7408125,4.42480729 54.4643438,3.96402604 54.187875,3.50324479 C53.9114063,3.04246354 53.450625,2.67383854 52.9898438,2.48952604 C52.5290625,2.30521354 51.976125,2.12090104 51.3310313,2.12090104 C50.3173125,2.12090104 49.4879063,2.48952604 48.8428125,3.13461979 C48.1977188,3.77971354 47.92125,4.70127604 47.92125,5.89930729 C47.92125,7.09733854 48.289875,8.11105729 48.9349688,8.75615104 L48.9349688,8.75615104 L49.027125,8.84830729 Z M50.3173125,4.24049479 C50.5937813,3.96402604 50.9624063,3.87186979 51.4231875,3.87186979 C51.8839688,3.87186979 52.2525938,3.96402604 52.5290625,4.24049479 C52.8055313,4.51696354 52.9898438,4.88558854 52.9898438,5.34636979 L49.8565313,5.34636979 C49.8565313,4.88558854 50.0408438,4.51696354 50.3173125,4.24049479 L50.3173125,4.24049479 L50.3173125,4.24049479 Z" id="Shape2"></path>
            <path d="M45.5251875,5.34636979 L45.5251875,9.58555729 L47.184,9.58555729 L47.184,5.34636979 C47.184,3.50324479 46.078125,2.21305729 44.3271563,2.21305729 C42.5761875,2.21305729 42.7605,2.58168229 42.2997188,3.22677604 C41.8389375,2.58168229 41.1016875,2.21305729 40.180125,2.21305729 C38.4291563,2.21305729 37.231125,3.50324479 37.231125,5.34636979 L37.231125,9.58555729 L38.8899375,9.58555729 L38.8899375,5.34636979 C38.8899375,4.60911979 39.442875,4.05618229 40.180125,4.05618229 C41.286,4.05618229 41.3781563,4.97774479 41.3781563,5.34636979 L41.3781563,9.58555729 L43.0369688,9.58555729 L43.0369688,5.34636979 C43.0369688,4.60911979 43.5899063,4.05618229 44.3271563,4.05618229 C45.4330313,4.05618229 45.5251875,4.97774479 45.5251875,5.34636979 L45.5251875,5.34636979 L45.5251875,5.34636979 Z" id="Path2"></path>
            <path d="M78.88575,1.38365104 L78.88575,3.41108854 C78.7014375,3.04246354 78.4249687,2.85815104 78.0563437,2.67383854 C77.6877187,2.48952604 77.3190937,2.39736979 76.9504687,2.39736979 C76.0289062,2.39736979 75.2916562,2.76599479 74.7387187,3.41108854 C74.1857812,4.05618229 73.9093125,5.06990104 73.9093125,6.26793229 C73.9093125,7.46596354 74.1857812,8.20321354 74.7387187,8.84830729 C75.2916562,9.49340104 76.3975312,9.76986979 77.3190937,9.76986979 C80.6367187,9.76986979 80.6367187,6.82086979 80.6367187,6.82086979 L80.6367187,0.0934635378 C80.6367187,0.0934635378 78.7935937,-0.0908489622 78.7935937,1.38365104 L78.7935937,1.38365104 L78.88575,1.38365104 Z M78.6092813,7.65027604 C78.3328125,8.01890104 77.9641875,8.20321354 77.41125,8.20321354 C76.8583125,8.20321354 76.4896875,8.01890104 76.305375,7.65027604 C76.0289063,7.28165104 75.93675,6.72871354 75.93675,6.08361979 C75.93675,5.43852604 76.0289063,4.97774479 76.305375,4.60911979 C76.5818438,4.24049479 76.9504688,3.96402604 77.5034063,3.96402604 C78.0563438,3.96402604 78.1485,4.05618229 78.4249688,4.33265104 C78.88575,4.70127604 79.0700625,5.34636979 79.0700625,6.26793229 C79.0700625,7.18949479 78.9779063,7.37380729 78.7014375,7.74243229 L78.7014375,7.74243229 L78.6092813,7.65027604 Z" id="Shape3"></path>
            <path d="M41.1016875,12.442401 C39.6271875,12.442401 38.7977813,12.7188698 38.337,13.0874948 C37.6919063,13.6404323 37.231125,14.3776823 37.231125,15.6678698 L37.231125,22.1188073 L38.1526875,22.1188073 C38.4291563,22.1188073 38.6134688,22.1188073 38.7977813,21.8423385 C38.9820938,21.658026 39.07425,21.4737135 39.07425,21.1972448 L39.07425,18.8011823 C39.2585625,19.1698073 39.5350313,19.446276 39.9036563,19.6305885 C40.2722813,19.814901 40.6409063,19.9070573 41.1016875,19.9070573 C41.9310938,19.9070573 42.6683438,19.5384323 43.129125,18.8933385 C43.6820625,18.1560885 43.9585313,17.234526 43.9585313,16.128651 C43.9585313,15.022776 43.6820625,14.1933698 43.129125,13.4561198 C42.6683438,12.811026 41.9310938,12.5345573 41.1016875,12.442401 L41.1016875,12.442401 L41.1016875,12.442401 Z M41.7467813,17.6953073 C41.4703125,18.0639323 41.1016875,18.2482448 40.6409063,18.2482448 C40.180125,18.2482448 39.7193438,18.0639323 39.442875,17.6953073 C39.1664063,17.3266823 39.07425,16.865901 39.07425,16.128651 C39.07425,15.391401 39.1664063,14.8384635 39.442875,14.4698385 C39.7193438,14.1012135 40.0879688,13.916901 40.54875,13.916901 C41.0095313,13.916901 41.4703125,14.1012135 41.7467813,14.4698385 C42.02325,14.8384635 42.1154063,15.391401 42.1154063,16.128651 C42.1154063,16.865901 42.02325,17.3266823 41.7467813,17.6953073 Z" id="Shape4"></path>
            <path d="M56.76825,13.0874948 C56.1231563,12.6267135 55.4780625,12.3502448 54.4643438,12.3502448 C53.3584688,12.3502448 52.5290625,12.7188698 52.0682813,13.3639635 C51.6075,14.0090573 51.3310313,14.9306198 51.3310313,16.0364948 C51.3310313,17.1423698 51.5153438,17.7874635 51.8839688,18.340401 C52.2525938,18.8933385 52.713375,19.3541198 53.2663125,19.5384323 C53.81925,19.7227448 54.2800313,19.814901 54.8329688,19.6305885 C55.3859063,19.5384323 55.7545313,19.1698073 56.1231563,18.709026 L56.1231563,19.1698073 C56.1231563,19.7227448 55.9388438,20.183526 55.7545313,20.4599948 C55.4780625,20.7364635 55.29375,20.920776 54.925125,21.0129323 C54.6486563,21.0129323 54.3721875,21.0129323 54.0957188,20.920776 C53.81925,20.8286198 53.6349375,20.552151 53.450625,20.3678385 L51.5153438,20.3678385 C51.976125,21.9344948 52.8976875,22.5795885 54.5565,22.6717448 C57.136875,22.8560573 57.9662813,20.6443073 57.9662813,19.446276 L57.9662813,15.6678698 C57.9662813,14.3776823 57.5976563,13.6404323 56.8604063,13.0874948 L56.8604063,13.0874948 L56.76825,13.0874948 Z M56.031,16.7737448 C56.031,17.234526 55.8466875,17.5109948 55.662375,17.6953073 C55.29375,18.1560885 54.8329688,18.340401 54.0957188,18.1560885 C53.3584688,18.0639323 53.082,17.3266823 53.082,16.128651 C53.082,14.9306198 53.1741563,15.022776 53.3584688,14.5619948 C53.5427813,14.1012135 54.0035625,13.916901 54.5565,13.916901 C55.1094375,13.916901 55.29375,14.1012135 55.5702188,14.3776823 C55.7545313,14.7463073 55.9388438,15.022776 56.031,15.4835573 C56.031,15.8521823 56.031,16.3129635 56.031,16.7737448 L56.031,16.7737448 L56.031,16.7737448 Z" id="Shape5"></path>
            <path d="M49.6722187,12.9031823 C49.1192812,12.6267135 48.3820312,12.442401 47.6447812,12.442401 C46.44675,12.442401 45.6173437,12.7188698 45.1565625,13.3639635 C44.8800937,13.7325885 44.6957812,14.285526 44.603625,14.9306198 L46.3545937,14.9306198 C46.3545937,14.654151 46.44675,14.4698385 46.6310625,14.285526 C46.815375,14.1012135 47.0918437,13.916901 47.552625,13.916901 C48.0134062,13.916901 48.1977187,13.916901 48.4741875,14.1012135 C48.6585,14.1933698 48.7506562,14.3776823 48.7506562,14.7463073 C48.7506562,15.1149323 48.6585,15.1149323 48.3820312,15.2992448 C48.1977187,15.2992448 48.0134062,15.391401 47.6447812,15.4835573 L46.9996875,15.4835573 C46.2624375,15.6678698 45.7095,15.760026 45.4330312,16.0364948 C44.7879375,16.4051198 44.4193125,17.0502135 44.4193125,17.8796198 C44.4193125,18.709026 44.603625,19.077651 45.0644062,19.446276 C45.4330312,19.814901 45.9859687,19.9992135 46.6310625,19.9992135 C50.5937812,20.183526 50.5937812,17.8796198 50.5937812,17.4188385 L50.5937812,14.7463073 C50.5937812,13.916901 50.3173125,13.2718073 49.6722187,12.9953385 L49.6722187,12.9953385 L49.6722187,12.9031823 Z M48.7506562,16.865901 C48.7506562,17.5109948 48.5663437,17.8796198 48.1977187,18.1560885 C47.8290937,18.4325573 47.4604687,18.5247135 47.0918437,18.5247135 C46.7232187,18.5247135 46.6310625,18.5247135 46.44675,18.340401 C46.2624375,18.1560885 46.1702812,17.971776 46.1702812,17.6953073 C46.1702812,17.4188385 46.3545937,17.0502135 46.6310625,16.865901 C46.815375,16.7737448 47.0918437,16.6815885 47.4604687,16.5894323 L47.92125,16.5894323 C48.1055625,16.497276 48.289875,16.4051198 48.3820312,16.4051198 C48.4741875,16.4051198 48.6585,16.3129635 48.7506562,16.2208073 L48.7506562,16.865901 L48.7506562,16.865901 L48.7506562,16.865901 Z" id="Shape6"></path>
            <path d="M62.1133125,12.3502448 C60.9152812,12.3502448 59.9937187,12.7188698 59.4407812,13.4561198 C58.8878437,14.1933698 58.5192187,15.1149323 58.5192187,16.128651 C58.5192187,17.1423698 58.7956875,18.0639323 59.4407812,18.8011823 C59.9937187,19.5384323 60.9152812,19.9070573 62.1133125,19.9070573 C63.3113437,19.9070573 64.2329062,19.5384323 64.7858437,18.8011823 C65.3387812,18.0639323 65.7074062,17.1423698 65.7074062,16.128651 C65.7074062,15.1149323 65.4309375,14.1933698 64.7858437,13.4561198 C64.2329062,12.7188698 63.3113437,12.3502448 62.1133125,12.3502448 L62.1133125,12.3502448 Z M63.3113438,17.6953073 C63.034875,18.0639323 62.66625,18.2482448 62.1133125,18.2482448 C61.560375,18.2482448 61.19175,18.0639323 60.9152813,17.6953073 C60.6388125,17.3266823 60.4545,16.7737448 60.4545,16.0364948 C60.4545,15.2992448 60.6388125,14.7463073 60.9152813,14.3776823 C61.19175,14.0090573 61.6525313,13.8247448 62.1133125,13.8247448 C62.5740938,13.8247448 63.034875,14.0090573 63.3113438,14.3776823 C63.5878125,14.7463073 63.772125,15.2992448 63.772125,16.0364948 C63.772125,16.7737448 63.5878125,17.3266823 63.3113438,17.6953073 Z" id="Shape7"></path>
            <path d="M32.2546875,10.599276 C32.2546875,4.70127604 24.9743437,-0.0908489622 16.0351875,0.00130728779 C7.1881875,0.0934635378 0,4.97774479 0,10.8757448 C0,11.0600573 0,11.4286823 0,11.5208385 C0,17.7874635 6.35878125,22.763901 16.2195,22.6717448 C26.0802187,22.6717448 32.2546875,17.4188385 32.2546875,11.2443698 L32.2546875,10.599276 C32.2546875,10.599276 32.2546875,10.599276 32.2546875,10.599276 Z M16.2195,20.8286198 C7.64896875,20.8286198 0.64509375,16.4051198 0.64509375,10.8757448 C0.64509375,10.6914323 0.64509375,10.4149635 0.64509375,10.230651 L0.64509375,9.58555729 C0.73725,9.58555729 0.73725,9.40124479 0.82940625,9.40124479 C1.19803125,9.49340104 1.4745,9.58555729 1.56665625,9.58555729 C5.529375,10.5071198 7.09603125,11.4286823 7.5568125,11.7973073 C7.83328125,11.5208385 8.2940625,11.336526 8.6626875,11.336526 L8.6626875,11.336526 C9.12346875,11.336526 9.58425,11.5208385 9.86071875,11.8894635 C10.3215,11.5208385 10.9665938,11.5208385 11.6116875,11.705151 C11.9803125,11.8894635 12.3489375,12.073776 12.53325,12.442401 C12.901875,12.3502448 13.3626563,12.3502448 13.8234375,12.5345573 C14.745,12.9031823 14.8371563,13.7325885 14.8371563,14.285526 C15.850875,14.285526 16.7724375,15.2070885 16.7724375,16.2208073 C16.7724375,16.497276 16.7724375,16.7737448 16.588125,16.9580573 C16.8645938,17.1423698 17.4175313,17.3266823 17.7861563,17.234526 C18.2469375,17.234526 18.3390938,17.0502135 18.3390938,16.9580573 C18.3390938,16.9580573 18.3390938,16.9580573 18.3390938,16.9580573 L17.1410625,15.6678698 C16.95675,15.4835573 16.8645938,15.2992448 17.0489063,15.1149323 C17.0489063,15.1149323 17.1410625,15.022776 17.2332188,15.022776 C17.325375,15.022776 17.5096875,15.1149323 17.6018438,15.2070885 C18.2469375,15.760026 18.9841875,16.5894323 18.9841875,16.5894323 L18.9841875,16.5894323 C18.9841875,16.5894323 18.9841875,16.5894323 19.1685,16.6815885 C19.1685,16.6815885 19.2606563,16.6815885 19.3528125,16.6815885 C19.4449688,16.6815885 19.8135938,16.6815885 19.9979063,16.497276 C19.9979063,16.497276 19.9979063,16.497276 20.0900625,16.4051198 L20.0900625,16.4051198 C20.274375,16.0364948 20.0900625,15.8521823 20.0900625,15.760026 L18.6155625,14.1012135 C18.6155625,14.1012135 18.6155625,14.1012135 18.5234063,14.0090573 C18.3390938,13.8247448 18.5234063,13.6404323 18.5234063,13.548276 C18.5234063,13.548276 18.6155625,13.548276 18.7077188,13.548276 C18.799875,13.548276 18.9841875,13.548276 19.0763438,13.7325885 C19.4449688,14.1012135 19.9979063,14.5619948 20.4586875,15.1149323 L20.7351563,15.391401 C20.7351563,15.391401 21.011625,15.5757135 21.1959375,15.5757135 C21.38025,15.5757135 21.6567188,15.5757135 21.8410313,15.391401 C22.1175,15.2070885 22.3018125,14.9306198 22.3018125,14.654151 C22.3018125,14.3776823 22.0253438,14.1933698 22.0253438,14.1933698 L19.9979063,12.1659323 C19.8135938,11.9816198 19.7214375,11.7973073 19.8135938,11.6129948 C19.8135938,11.6129948 19.90575,11.5208385 19.9979063,11.5208385 C20.0900625,11.5208385 20.274375,11.5208385 20.3665313,11.705151 C20.7351563,11.9816198 21.4724063,12.7188698 22.5782813,13.7325885 C22.5782813,13.7325885 22.6704375,13.8247448 22.6704375,13.8247448 C22.6704375,13.8247448 22.85475,14.0090573 23.223375,14.0090573 C23.4076875,14.0090573 23.592,14.0090573 23.8684688,13.8247448 C24.0527813,13.6404323 24.2370938,13.4561198 24.2370938,13.2718073 C24.2370938,12.9031823 23.960625,12.6267135 23.960625,12.6267135 C23.4076875,12.1659323 18.8920313,8.11105729 17.8783125,7.28165104 C17.2332188,6.82086979 16.95675,6.72871354 16.588125,6.63655729 C16.588125,6.63655729 16.588125,6.63655729 16.4959688,6.63655729 C16.3116563,6.63655729 16.2195,6.63655729 16.0351875,6.63655729 C15.48225,6.82086979 14.745,7.28165104 14.2842188,7.74243229 C13.639125,8.29536979 12.9940313,8.75615104 12.4410938,8.84830729 C12.2567813,8.84830729 12.0724688,8.84830729 11.796,8.84830729 C11.2430625,8.84830729 10.5979688,8.66399479 10.3215,8.47968229 C10.1371875,8.38752604 9.952875,8.20321354 9.952875,8.01890104 C9.7685625,7.55811979 9.952875,7.28165104 10.1371875,7.09733854 L11.5195313,5.62283854 C11.5195313,5.62283854 11.5195313,5.62283854 11.5195313,5.62283854 C11.3352188,5.62283854 11.1509063,5.71499479 10.9665938,5.80715104 C10.5058125,5.99146354 9.952875,6.08361979 9.49209375,6.08361979 L9.49209375,6.08361979 C9.30778125,6.08361979 9.12346875,6.08361979 9.0313125,6.08361979 L8.847,6.08361979 C8.10975,6.08361979 5.898,5.43852604 3.8705625,4.60911979 C3.8705625,4.60911979 3.8705625,4.60911979 3.8705625,4.60911979 L4.4235,4.14833854 C7.28034375,2.12090104 11.3352188,0.738557288 15.9430313,0.738557288 C20.643,0.738557288 24.8821875,2.02874479 27.7390313,4.14833854 L28.2919688,4.60911979 C28.2919688,4.60911979 28.2919688,4.60911979 28.384125,4.70127604 L28.1998125,4.70127604 C26.6331563,5.53068229 25.1586563,5.89930729 23.6841563,5.89930729 L23.6841563,5.89930729 C22.3018125,5.89930729 20.9194688,5.53068229 19.537125,4.88558854 C19.3528125,4.88558854 17.9704688,4.14833854 16.588125,4.14833854 C16.588125,4.14833854 16.588125,4.14833854 16.4959688,4.14833854 C14.2842188,4.14833854 13.2705,5.16205729 12.2567813,6.26793229 L10.8744375,7.74243229 C10.8744375,7.74243229 10.8744375,7.74243229 10.8744375,7.74243229 C11.05875,7.92674479 11.427375,8.01890104 11.8881563,8.01890104 C12.0724688,8.01890104 12.2567813,8.01890104 12.4410938,8.01890104 C12.8097188,7.92674479 13.4548125,7.46596354 13.9155938,7.00518229 L13.9155938,7.00518229 C14.5606875,6.45224479 15.113625,5.99146354 15.7587188,5.80715104 C16.0351875,5.80715104 16.3116563,5.71499479 16.588125,5.71499479 L16.588125,5.71499479 C16.8645938,5.71499479 17.0489063,5.71499479 17.2332188,5.80715104 C17.6018438,5.89930729 17.9704688,6.17577604 18.5234063,6.54440104 C19.4449688,7.28165104 22.6704375,10.0463385 24.5135625,11.705151 C25.5272813,11.2443698 28.1998125,10.1384948 31.4252813,9.40124479 C31.4252813,9.40124479 31.4252813,9.40124479 31.4252813,9.40124479 C31.4252813,9.40124479 31.4252813,9.40124479 31.4252813,9.40124479 L31.4252813,10.0463385 C31.5174375,10.230651 31.5174375,10.4149635 31.5174375,10.5071198 C31.5174375,16.0364948 24.697875,20.6443073 16.1273438,20.7364635 L16.1273438,20.7364635 L16.2195,20.8286198 Z" id="Shape8"></path>
            <path d="M14.8371563,15.022776 L14.8371563,15.022776 C14.6528438,15.022776 14.4685313,15.022776 14.376375,15.1149323 C14.376375,15.1149323 14.2842188,15.1149323 14.1920625,15.1149323 L14.1920625,15.1149323 C14.1920625,15.1149323 14.1920625,15.1149323 14.1920625,15.022776 C14.1920625,15.022776 14.1920625,14.8384635 14.1920625,14.7463073 C14.1920625,14.7463073 14.376375,14.1933698 14.1920625,13.7325885 C14.1920625,13.548276 13.9155938,13.3639635 13.639125,13.179651 C13.4548125,13.179651 13.2705,13.0874948 13.0861875,13.0874948 C12.7175625,13.0874948 12.4410938,13.2718073 12.3489375,13.3639635 C12.3489375,13.3639635 12.3489375,13.3639635 12.2567813,13.3639635 C12.164625,13.3639635 12.2567813,13.3639635 12.164625,13.3639635 C12.164625,13.3639635 12.164625,13.3639635 12.164625,13.3639635 C12.164625,13.3639635 12.164625,13.179651 12.164625,12.9953385 C12.164625,12.811026 11.8881563,12.5345573 11.5195313,12.442401 C11.3352188,12.442401 11.2430625,12.442401 11.05875,12.442401 C10.3215,12.442401 9.952875,13.0874948 9.952875,13.0874948 L9.7685625,13.2718073 L9.7685625,13.2718073 C9.7685625,13.2718073 9.7685625,13.2718073 9.7685625,13.2718073 C9.7685625,13.2718073 9.7685625,12.9953385 9.7685625,12.9953385 C9.7685625,12.9953385 9.7685625,12.9031823 9.7685625,12.811026 C9.67640625,12.442401 9.30778125,12.1659323 8.847,12.1659323 C8.38621875,12.1659323 7.83328125,12.6267135 7.83328125,13.179651 C7.83328125,13.2718073 7.83328125,13.4561198 7.83328125,13.548276 C8.01759375,13.916901 8.2940625,14.1933698 8.75484375,14.1933698 C9.0313125,14.1933698 9.215625,14.0090573 9.3999375,13.916901 C9.3999375,13.916901 9.49209375,13.916901 9.58425,13.916901 C9.58425,13.916901 9.58425,13.916901 9.58425,13.916901 C9.58425,13.916901 9.58425,13.916901 9.58425,13.916901 C9.58425,14.0090573 9.58425,14.3776823 9.58425,14.654151 C9.67640625,14.9306198 9.86071875,15.2070885 10.3215,15.391401 C10.4136563,15.391401 10.5058125,15.391401 10.690125,15.391401 C10.8744375,15.391401 11.05875,15.391401 11.3352188,15.2070885 C11.3352188,15.2070885 11.3352188,15.2070885 11.427375,15.2070885 C11.427375,15.2070885 11.427375,15.2070885 11.427375,15.2070885 C11.427375,15.2070885 11.427375,15.2070885 11.427375,15.2070885 C11.427375,15.2070885 11.427375,15.2070885 11.427375,15.2992448 C11.427375,15.2992448 11.427375,15.4835573 11.427375,15.6678698 C11.427375,15.8521823 11.7038438,16.128651 12.0724688,16.3129635 C12.2567813,16.3129635 12.3489375,16.3129635 12.4410938,16.3129635 C12.7175625,16.3129635 12.901875,16.128651 13.0861875,16.0364948 C13.0861875,16.0364948 13.1783438,16.0364948 13.2705,16.0364948 C13.2705,16.0364948 13.3626563,16.0364948 13.3626563,16.128651 C13.3626563,16.128651 13.3626563,16.2208073 13.3626563,16.3129635 C13.3626563,16.497276 13.3626563,16.5894323 13.4548125,16.7737448 C13.639125,17.234526 14.0999063,17.5109948 14.5606875,17.5109948 C15.2979375,17.5109948 15.850875,16.9580573 15.850875,16.2208073 C15.850875,16.0364948 15.850875,15.8521823 15.850875,15.760026 C15.6665625,15.2992448 15.2057813,15.022776 14.6528438,15.022776 L14.6528438,15.022776 L14.8371563,15.022776 Z" id="Path3"></path>
        </g>
    </g>
</svg>