<?xml version="1.0" encoding="UTF-8"?>
<svg id="Capa_1" data-name="Capa 1" xmlns="http://www.w3.org/2000/svg" viewBox="0 0 183.6 183.66">
  <defs>
    <style>
      .cls-1 {
        fill: #3f3f3f;
      }
    </style>
  </defs>
  <path class="cls-1" d="M81.78,0c3.12,.46,6.26,.81,9.35,1.41,18.44,3.61,33.51,12.83,45.3,27.43,8,9.91,13.21,21.16,15.47,33.66,3.34,18.43,.44,35.89-8.88,52.21-.56,.98-1.12,1.95-1.91,3.32,.53,.37,1.13,.68,1.59,1.14,11.81,11.78,23.59,23.58,35.39,35.37,4.24,4.24,6.29,9.26,5.23,15.27-1.05,5.99-4.5,10.29-10.08,12.54-5.71,2.3-11.25,1.57-16.26-2.15-1.05-.78-2.01-1.69-2.94-2.62-11.63-11.61-23.26-23.24-34.87-34.88-.46-.46-.77-1.07-.95-1.32-4.74,2.28-8.9,4.7-13.34,6.35-26.65,9.88-51.75,6.78-74.6-10.23C13.72,125.18,4.1,108.36,.82,87.96,.49,85.91,.27,83.84,0,81.78c0-3.35,0-6.7,0-10.04,.35-2.53,.64-5.06,1.04-7.58C5.93,33.47,29.74,8.3,60.08,1.83,63.92,1.01,67.85,.6,71.73,0c3.35,0,6.7,0,10.04,0ZM7.18,74.84c.11,8.56,.98,15.42,3.06,22.08,3.99,12.72,10.92,23.54,21.07,32.26,11.17,9.6,24.09,15.14,38.73,16.51,16.28,1.52,31.29-2.25,44.98-11.23,3.04-2,4.13-1.84,6.71,.73,12.51,12.51,25.02,25.02,37.54,37.53,.67,.67,1.37,1.35,2.13,1.92,4,2.99,9.73,2.25,12.89-1.62,3.31-4.06,2.86-9.3-1.21-13.37-12.5-12.52-25.02-25.02-37.53-37.53-3.08-3.08-3.2-3.84-.81-7.54,5.67-8.75,9.27-18.26,10.66-28.61,1.8-13.44,.11-26.46-5.88-38.58-11.9-24.07-31.34-37.66-58.23-39.93-15.66-1.32-30.22,2.57-43.15,11.41C17.98,32.64,7.95,52.11,7.18,74.84Z"/>
  <path class="cls-1" d="M72.98,132.67c-21.16-.04-43.03-16.37-50.11-40.12-8.51-28.52,7.05-59.01,35.15-68.82,1.02-.36,2.26-.49,3.3-.26,1.45,.33,2.23,1.54,2.33,3.06,.11,1.7-.76,2.84-2.24,3.52-2.98,1.37-6.12,2.46-8.93,4.1-13.54,7.93-21.82,19.64-24.11,35.22-2.31,15.69,2,29.56,13,40.99,11.49,11.94,25.74,16.84,42.17,14.53,15.87-2.23,27.81-10.62,35.74-24.49,5.45-9.53,7.39-19.89,5.65-30.77-2.92-18.2-13.02-30.92-29.85-38.3-2.17-.95-4.51-1.53-6.79-2.24-2.54-.79-3.75-2.48-3.2-4.56,.55-2.08,2.47-2.97,5.04-2.34,22.17,5.44,38.83,23.97,41.93,46.65,3.23,23.56-8.34,46.28-29.29,57.34-8.17,4.31-16.94,6.38-29.77,6.47Z"/>
  <path class="cls-1" d="M81.54,76.46c5.38,5.38,10.49,10.5,15.6,15.61,2.36,2.36,2.71,4.36,1.08,6.06-1.67,1.75-3.76,1.41-6.18-1.02-5.11-5.11-10.21-10.23-15.43-15.47-2.06,2.07-4.03,4.06-6,6.04-3.34,3.34-6.66,6.7-10.02,10.01-1.88,1.85-4.02,2.01-5.54,.49-1.51-1.52-1.35-3.68,.5-5.54,5.27-5.29,10.56-10.56,15.97-15.95-.49-.53-.91-1.01-1.35-1.46-4.73-4.74-9.47-9.47-14.19-14.22-.54-.55-1.08-1.13-1.48-1.78-.82-1.34-.52-3.24,.65-4.26,1.25-1.09,2.68-1.3,4.14-.46,.66,.38,1.23,.94,1.78,1.48,4.7,4.68,9.4,9.37,14.08,14.07,.46,.46,.78,1.06,1.36,1.88,1.86-1.96,3.35-3.59,4.9-5.15,3.79-3.82,7.61-7.61,11.41-11.42,1.15-1.15,2.61-1.86,4.03-1.09,1.01,.55,2.13,1.84,2.21,2.87,.09,1.15-.67,2.65-1.53,3.54-4.68,4.87-9.5,9.6-14.29,14.37-.46,.46-1.01,.85-1.66,1.39Z"/>
  <path class="cls-1" d="M70.7,23.92c.15-1.93,1.86-3.41,3.77-3.27,1.93,.14,3.46,1.87,3.3,3.74-.16,1.95-1.81,3.38-3.77,3.26-1.91-.11-3.45-1.86-3.3-3.73Z"/>
</svg>