<?xml version="1.0" encoding="UTF-8"?>
<svg width="348px" height="348px" viewBox="0 0 348 348" version="1.1" xmlns="http://www.w3.org/2000/svg" xmlns:xlink="http://www.w3.org/1999/xlink">
    <title>Artboard</title>
    <g id="Artboard" stroke="none" stroke-width="1" fill="none" fill-rule="evenodd">
        <g id="?" transform="translate(108, 57)" fill="#243D8B" fill-rule="nonzero">
            <path d="M41.0205078,211.005859 C41.0205078,204.749349 43.1648763,199.451497 47.4536133,195.112305 C51.7423503,190.773112 56.9140625,188.603516 62.96875,188.603516 C67.2070312,188.603516 71.0668945,189.562174 74.5483398,191.479492 C78.0297852,193.39681 80.7543945,196.070964 82.722168,199.501953 C84.6899414,202.932943 85.6738281,206.767578 85.6738281,211.005859 C85.6738281,217.26237 83.4790039,222.509766 79.0893555,226.748047 C74.699707,230.986328 69.3261719,233.105469 62.96875,233.105469 C56.9140625,233.105469 51.7423503,230.986328 47.4536133,226.748047 C43.1648763,222.509766 41.0205078,217.26237 41.0205078,211.005859 Z M0,63.8769531 C0,52.171224 1.9930013,41.9539388 5.97900391,33.2250977 C9.96500651,24.4962565 15.3889974,17.8108724 22.2509766,13.1689453 C29.1129557,8.52701823 36.2524414,5.17171224 43.6694336,3.10302734 C51.0864258,1.03434245 58.8818359,0 67.0556641,0 C78.4586589,0 88.9282227,1.94254557 98.4643555,5.82763672 C108.000488,9.71272786 115.972493,15.9440104 122.380371,24.5214844 C128.788249,33.0989583 131.992188,43.4928385 131.992188,55.703125 C131.992188,61.9596354 131.159668,67.7872721 129.494629,73.1860352 C127.82959,78.5847982 125.205892,83.5294596 121.623535,88.0200195 C118.041178,92.5105794 114.83724,96.1181641 112.011719,98.8427734 C109.186198,101.567383 105.250651,105.048828 100.205078,109.287109 C92.8385417,115.341797 87.6920573,119.781901 84.765625,122.607422 C81.8391927,125.432943 79.4173177,129.065755 77.5,133.505859 C75.5826823,137.945964 74.6240234,143.294271 74.6240234,149.550781 L74.6240234,159.692383 L48.8916016,159.692383 L48.8916016,144.858398 C48.8916016,139.207357 49.6736654,134.010417 51.237793,129.267578 C52.8019206,124.52474 55.4256185,120.008952 59.1088867,115.720215 C62.7921549,111.431478 65.9960938,108.025716 68.7207031,105.50293 C71.4453125,102.980143 75.4313151,99.5996094 80.6787109,95.3613281 C85.320638,91.4257812 88.8020833,88.3984375 91.1230469,86.2792969 C93.4440104,84.1601562 95.9163411,81.4860026 98.5400391,78.2568359 C101.163737,75.0276693 102.980143,71.7732747 103.989258,68.4936523 C104.998372,65.2140299 105.50293,61.3541667 105.50293,56.9140625 C105.50293,45.4101562 101.743978,36.7569987 94.2260742,30.9545898 C86.7081706,25.152181 77.2477214,22.2509766 65.8447266,22.2509766 C52.6253255,22.2509766 42.5089518,26.1360677 35.4956055,33.90625 C28.4822591,41.6764323 24.9755859,51.6666667 24.9755859,63.8769531 L0,63.8769531 Z" id="Shape"></path>
        </g>
    </g>
</svg>