<?xml version="1.0" encoding="UTF-8"?>
<svg width="89px" height="35px" viewBox="0 0 89 35" version="1.1" xmlns="http://www.w3.org/2000/svg" xmlns:xlink="http://www.w3.org/1999/xlink">
    <title>Artboard Copy 11</title>
    <g id="Artboard-Copy-11" stroke="none" stroke-width="1" fill="none" fill-rule="evenodd">
        <g id="paypal" transform="translate(1, 7)" fill="#FFFFFF">
            <path d="M33.0250372,4.07407407 L28.2519911,4.07407407 C27.9048605,4.07407407 27.6445125,4.33833834 27.6445125,4.6026026 L25.7352941,16.8468468 C25.7352941,16.9349349 25.7352941,17.1111111 25.8220768,17.1991992 C25.8220768,17.2872873 25.9956421,17.3753754 26.0824247,17.3753754 L28.3387738,17.3753754 C28.6859044,17.3753754 28.9462524,17.1111111 28.9462524,16.8468468 L29.4669483,13.4994995 C29.4669483,13.1471471 29.8140789,12.970971 30.0744269,12.970971 L31.549732,12.970971 C34.6739076,12.970971 36.4963434,11.4734735 36.9302566,8.39039039 C37.1038219,7.06906907 36.9302566,6.01201201 36.322778,5.30730731 C35.6285168,4.51451451 34.5003423,4.07407407 32.8514718,4.07407407 M33.5457331,8.56656657 C33.2853851,10.2402402 31.9836453,10.2402402 30.7686881,10.2402402 L30.0744269,10.2402402 L30.5951228,7.06906907 C30.5951228,6.89289289 30.7686881,6.71671672 30.9422534,6.71671672 L31.289384,6.71671672 C32.1572106,6.71671672 32.9382545,6.71671672 33.3721678,7.24524525 C33.6325157,7.50950951 33.7192984,7.94994995 33.6325157,8.56656657 M47.1706099,8.47847848 L44.9142609,8.47847848 C44.7406956,8.47847848 44.5671303,8.65465465 44.5671303,8.83083083 L44.5671303,9.44744745 C44.4803476,9.44744745 44.3067823,9.18318318 44.3067823,9.18318318 C43.7860864,8.47847848 42.7446945,8.21421421 41.61652,8.21421421 C39.099823,8.21421421 37.0170393,10.1521522 36.583126,12.7947948 C36.4095607,14.1161161 36.6699087,15.4374374 37.4509526,16.3183183 C38.1452138,17.1111111 39.099823,17.4634635 40.3147802,17.4634635 C42.3107813,17.4634635 43.4389558,16.1421421 43.4389558,16.1421421 L43.4389558,16.7587588 C43.3521731,16.8468468 43.4389558,17.023023 43.4389558,17.1111111 C43.4389558,17.1991992 43.6125211,17.2872873 43.6993037,17.2872873 L45.7820875,17.2872873 C46.1292181,17.2872873 46.389566,17.023023 46.389566,16.7587588 L47.6045232,8.91891892 C47.6045232,8.83083083 47.6045232,8.65465465 47.5177406,8.56656657 C47.5177406,8.47847848 47.3441753,8.39039039 47.2573926,8.39039039 M44.0464344,12.970971 C43.7860864,14.2922923 42.8314772,15.1731732 41.5297374,15.1731732 C40.2279975,15.1731732 40.3147802,14.996997 39.9676496,14.5565566 C39.6205189,14.1161161 39.5337363,13.5875876 39.6205189,12.970971 C39.7940843,11.6496496 40.8354761,10.7687688 42.1372159,10.7687688 C43.4389558,10.7687688 43.2653905,10.9449449 43.6125211,11.3853854 C43.9596517,11.8258258 44.133217,12.3543544 43.9596517,12.970971 M59.233399,8.47847848 L56.97705,8.47847848 C56.716702,8.47847848 56.5431367,8.56656657 56.456354,8.74274274 L53.3321785,13.4114114 L52.0304386,8.91891892 C52.0304386,8.65465465 51.683308,8.47847848 51.42296,8.47847848 L49.166611,8.47847848 C49.0798284,8.47847848 48.906263,8.47847848 48.8194804,8.65465465 C48.8194804,8.74274274 48.7326977,8.91891892 48.8194804,9.00700701 L51.3361774,16.4064064 L48.9930457,19.7537538 C48.9930457,19.8418418 48.906263,20.018018 48.9930457,20.1941942 C48.9930457,20.3703704 49.166611,20.3703704 49.3401763,20.3703704 L51.5965254,20.3703704 C51.7700907,20.3703704 52.0304386,20.2822823 52.1172213,20.1061061 L59.6673123,9.0950951 C59.6673123,9.00700701 59.7540949,8.83083083 59.6673123,8.65465465 C59.6673123,8.56656657 59.493747,8.47847848 59.3201817,8.47847848" id="Fill-1"></path>
            <path d="M67.188914,4.07407407 L62.28931,4.07407407 C61.9329751,4.07407407 61.665724,4.33540448 61.665724,4.59673489 L59.7058824,16.7050439 C59.7058824,16.792154 59.7058824,16.9663743 59.7949661,17.0534844 C59.7949661,17.1405945 59.9731335,17.2277047 60.0622172,17.2277047 L62.5565611,17.2277047 C62.8238122,17.2277047 63.0019796,17.0534844 63.0019796,16.8792641 L63.5364819,13.4819688 C63.5364819,13.1335283 63.8928167,12.959308 64.1600679,12.959308 L65.674491,12.959308 C68.8815045,12.959308 70.7522624,11.4784357 71.197681,8.4295809 C71.3758484,7.12292885 71.197681,6.07760721 70.574095,5.38072612 C69.8614253,4.59673489 68.7033371,4.16118421 67.0107466,4.16118421 M67.7234163,8.51669103 C67.4561652,10.1717836 66.1199095,10.1717836 64.8727376,10.1717836 L64.1600679,10.1717836 L64.6945701,7.03581871 C64.6945701,6.86159844 64.8727376,6.68737817 65.050905,6.68737817 L65.4072398,6.68737817 C66.2980769,6.68737817 67.0998303,6.68737817 67.5452489,7.21003899 C67.8125,7.4713694 67.9015837,7.90692008 67.8125,8.51669103 M81.7095588,8.4295809 L79.3933824,8.4295809 C79.2152149,8.4295809 79.0370475,8.60380117 79.0370475,8.77802144 L79.0370475,9.3877924 C78.9479638,9.3877924 78.7697964,9.12646199 78.7697964,9.12646199 C78.2352941,8.4295809 77.1662896,8.16825049 76.0082014,8.16825049 C73.4247738,8.16825049 71.2867647,10.0846735 70.8413462,12.6979776 C70.6631787,14.0046296 70.9304299,15.3112817 71.7321833,16.182383 C72.4448529,16.9663743 73.4247738,17.3148148 74.6719457,17.3148148 C76.720871,17.3148148 77.8789593,16.0081628 77.8789593,16.0081628 L77.8789593,16.6179337 C77.7898756,16.7050439 77.8789593,16.8792641 77.8789593,16.9663743 C77.8789593,17.0534844 78.0571267,17.1405945 78.1462104,17.1405945 L80.2842195,17.1405945 C80.6405543,17.1405945 80.9078054,16.8792641 80.9078054,16.6179337 L82.1549774,8.86513158 C82.1549774,8.77802144 82.1549774,8.60380117 82.0658937,8.51669103 C82.0658937,8.4295809 81.8877262,8.34247076 81.7986425,8.34247076 M78.5025452,12.8721979 C78.2352941,14.1788499 77.2553733,15.0499513 75.9191176,15.0499513 C74.582862,15.0499513 74.6719457,14.875731 74.3156109,14.4401803 C73.959276,14.0046296 73.8701923,13.4819688 73.959276,12.8721979 C74.1374434,11.5655458 75.206448,10.6944444 76.5427036,10.6944444 C77.8789593,10.6944444 77.7007919,10.8686647 78.0571267,11.3042154 C78.4134615,11.7397661 78.591629,12.2624269 78.4134615,12.8721979 M84.4711538,4.42251462 L82.5113122,16.792154 C82.5113122,16.8792641 82.5113122,17.0534844 82.6003959,17.1405945 C82.6003959,17.2277047 82.7785633,17.3148148 82.8676471,17.3148148 L84.9165724,17.3148148 C85.2729072,17.3148148 85.5401584,17.0534844 85.5401584,16.792154 L87.5,4.68384503 C87.5,4.59673489 87.5,4.42251462 87.4109163,4.33540448 C87.4109163,4.24829435 87.2327489,4.16118421 87.1436652,4.16118421 L84.9165724,4.16118421 C84.738405,4.16118421 84.5602376,4.33540448 84.5602376,4.50962476" id="Fill-3"></path>
            <path d="M17.585194,6.2254902 C17.3260662,5.96405229 16.9805624,5.70261438 16.6350587,5.52832244 C16.3759308,5.44117647 16.203179,5.3540305 15.9440512,5.26688453 C15.9440512,5.26688453 15.9440512,5.26688453 15.9440512,5.26688453 C15.9440512,5.26688453 15.9440512,5.26688453 15.9440512,5.26688453 C15.8576752,5.26688453 15.7712993,5.26688453 15.6849233,5.26688453 C15.4257955,5.26688453 15.2530436,5.17973856 14.9939158,5.09259259 C14.9939158,5.09259259 14.9939158,5.09259259 14.9939158,5.09259259 C14.821164,5.09259259 14.6484121,5.09259259 14.5620361,5.09259259 C14.4756602,5.09259259 14.3029083,5.09259259 14.2165324,5.09259259 C13.9574046,5.09259259 13.6119008,5.09259259 13.352773,5.09259259 L8.25659261,5.09259259 C8.17021668,5.09259259 7.9974648,5.09259259 7.91108886,5.17973856 C7.65196104,5.26688453 7.47920917,5.52832244 7.47920917,5.78976035 L5.49256258,18.33878 L5.49256258,19.0359477 C5.40618664,19.0359477 5.14705882,20.7788671 5.14705882,20.7788671 C5.14705882,20.953159 5.14705882,21.040305 5.23343476,21.2145969 C5.3198107,21.3017429 5.49256258,21.3888889 5.57893852,21.3888889 L8.94760012,21.3888889 C9.37947982,21.3888889 9.72498357,21.127451 9.72498357,20.6917211 L9.72498357,20.5174292 C9.72498357,20.5174292 10.4159911,16.5087146 10.4159911,16.5087146 L10.4159911,16.2472767 C10.502367,15.8115468 10.8478708,15.5501089 11.2797505,15.5501089 L11.7980061,15.5501089 C15.0802918,15.5501089 17.585194,14.2429194 18.3625774,10.4084967 C18.7080812,8.83986928 18.5353293,7.44553377 17.6715699,6.4869281" id="Fill-17"></path>
            <path d="M15.5612156,1.54929577 C14.5717742,0.430359937 12.7727897,0 10.4341099,0 L3.68791816,0 C3.23817204,0 2.78842592,0.34428795 2.6984767,0.774647887 L0,17.7308294 C0,17.9029734 0,18.0751174 0.0899492233,18.1611894 C0.179898447,18.2472613 0.359796893,18.3333333 0.53969534,18.3333333 L4.67735961,18.3333333 L4.67735961,17.6447574 C4.76730883,17.6447574 5.75675029,12.0500782 5.75675029,12.0500782 L6.83614097,5.25039124 C6.83614097,4.99217527 7.10598864,4.73395931 7.28588709,4.64788732 C7.37583631,4.64788732 7.55573476,4.56181534 7.64568398,4.56181534 L12.9526882,4.56181534 C13.2225358,4.56181534 13.5823327,4.56181534 13.8521804,4.56181534 C13.9421296,4.56181534 14.1220281,4.56181534 14.2119773,4.56181534 C14.3918757,4.56181534 14.5717742,4.56181534 14.6617234,4.56181534 C14.6617234,4.56181534 14.6617234,4.56181534 14.6617234,4.56181534 C14.9315711,4.56181534 15.1114695,4.64788732 15.3813172,4.73395931 C15.3813172,4.73395931 15.3813172,4.73395931 15.4712664,4.73395931 C15.4712664,4.73395931 15.5612156,4.73395931 15.6511649,4.73395931 C15.6511649,4.73395931 15.6511649,4.73395931 15.6511649,4.73395931 C15.6511649,4.73395931 15.6511649,4.73395931 15.6511649,4.73395931 C15.9210125,4.73395931 16.100911,4.90610329 16.3707586,4.99217527 C16.6406063,3.35680751 16.3707586,2.32394366 15.4712664,1.29107981" id="Fill-20"></path>
        </g>
    </g>
</svg>