<?xml version="1.0" encoding="UTF-8"?>
<svg width="41px" height="38px" viewBox="0 0 41 38" version="1.1" xmlns="http://www.w3.org/2000/svg" xmlns:xlink="http://www.w3.org/1999/xlink">
    <title>Frame Copy 2</title>
    <defs>
        <path d="M0,0 L41,0 L41,38 L0,38 L0,0 Z" id="path-1"></path>
    </defs>
    <g id="Frame-Copy-2" stroke="none" fill="none" xlink:href="#path-1" fill-rule="evenodd">
        <path d="M11.0894857,6.1789994 C8.84636703,6.45045392 7.44105807,9.75595009 7.20877656,11.7112214 C6.69350835,16.0505 10.3622415,22.1140023 13.1545492,25.2633915 C17.256272,29.8896296 26.4747608,36.6051631 32.7139664,32.5948953 C34.4435774,31.4831182 35.8042846,29.5186849 33.9202105,27.7529971 C33.2065816,27.0841689 30.4584062,24.9929942 29.6332728,24.5776488 C26.8822805,23.1924202 25.8289736,28.0092991 22.5529711,26.4172201 C19.8672382,25.1121006 15.6584711,21.025835 14.5005848,18.2667717 C13.1198068,14.9763106 18.0689639,14.0725586 16.3082489,11.1444676 C15.4639837,9.74032766 14.0675951,8.36214683 13.1549014,6.96916581 C12.5727304,6.51411829 11.8601579,6.08573463 11.0894857,6.1789994 M10.7547374,4.02791908 C12.538927,3.82494487 14.0868443,4.75160203 15.2032979,6.06259463 C16.0386428,7.04351921 18.374721,10.0951801 18.6668628,11.2053128 C19.3753272,13.8971879 17.9688446,14.7415042 16.6559083,16.5919995 C16.5096613,16.7981452 16.3811377,16.9449726 16.4167018,17.2191287 C16.4676417,17.6128611 17.59595,19.1809779 17.8963079,19.5764722 C19.1602996,21.2406728 21.4835841,23.4709225 23.3596769,24.399459 C23.8619167,24.6480085 23.9155562,24.6552911 24.4066456,24.348598 C24.7915122,24.1082709 25.0412823,23.7374436 25.3505606,23.4772654 C27.2355737,21.8902373 29.2925385,21.7502227 31.3559588,23.1226479 C32.4337966,23.8396355 33.9531923,24.9616318 34.9283286,25.8025418 C40.3382928,30.4681296 34.029837,35.911198 28.8258628,35.9982373 C18.9225016,36.1637412 7.32356752,24.6416655 5.34582961,15.322236 C4.94441337,13.4302767 4.82891817,11.9393324 5.34512537,10.047843 C6.00969226,7.61226987 8.00163233,4.34107259 10.7547374,4.02791908" id="Fill-1-Copy-2" fill="#FFFFFF"></path>
    </g>
</svg>