<?xml version="1.0" encoding="UTF-8"?>
<svg width="74px" height="74px" viewBox="0 0 74 74" version="1.1" xmlns="http://www.w3.org/2000/svg" xmlns:xlink="http://www.w3.org/1999/xlink">
    <title>z copy 9</title>
    <g id="z-copy-9" stroke="none" stroke-width="1" fill="none" fill-rule="evenodd">
        <path d="M51.2472839,17.9374091 C51.0423579,19.0156328 45.092898,23.9746526 44.0746431,25.2936122 L34.7834293,16.1299245 L51.2526157,16.1299245 C51.1970956,16.7062105 51.3525287,17.383786 51.2472839,17.9374091 L51.2472839,17.9374091 Z M51.2526157,30.0224182 L23.1580532,57.9280047 L23.1580532,50.3174217 L51.2526157,22.4117196 L51.2526157,30.0224182 Z M51.2526157,41.6194805 L34.9045536,57.9280047 L27.5175982,57.9280047 L51.2526157,34.2504428 L51.2526157,41.6194805 Z M51.2526157,57.9280047 L39.1429744,57.9280047 L51.2526157,45.8476207 L51.2526157,57.9280047 Z M29.4552382,64.2099154 L44.9556625,64.2099154 L44.9556625,60.827357 L29.4552382,60.827357 L29.4552382,64.2099154 Z M23.1580532,32.0760731 L30.1641337,38.9949741 L23.1580532,46.0892816 L23.1580532,32.0760731 Z M23.1580532,20.4788951 L35.9768218,33.1965007 C36.0317623,33.5054566 32.5833729,36.9454818 32.2736657,36.8906745 L23.1580532,27.8479329 L23.1580532,20.4788951 Z M30.5450085,16.1299245 L41.7895099,27.3979118 C41.8443345,27.7068677 38.395945,31.1468928 38.0863538,31.0922011 L23.1580532,16.1299245 L30.5450085,16.1299245 Z M29.4551223,12.9891426 L44.9555466,12.9891426 L44.9555466,9.84824507 L29.4551223,9.84824507 L29.4551223,12.9891426 Z M54.4105388,58.7828367 L54.3867776,14.5739291 C53.9976732,12.0679406 49.6631644,13.258554 47.8606736,12.9902989 C47.6176138,11.6437044 48.4919105,7.67572542 47.1298714,7.07527331 L27.4477055,7 C25.8377384,7.46100569 26.8084709,11.6077443 26.5499953,12.9902989 C24.9843052,13.2106843 20.9246151,12.310064 20.1921902,14.0168372 L20.0003618,58.7828367 C19.9880756,59.5188039 20.2873509,60.6544943 21.0994049,60.827357 L26.5488362,60.827357 C26.8383752,62.2930475 25.8286976,66.2931709 27.338288,66.9255361 L46.9048933,67 C48.6795661,66.4592115 47.5478369,62.3805773 47.8619486,60.827357 L53.3113799,60.827357 C53.9914142,60.827357 54.496311,59.3980891 54.4105388,58.7828367 L54.4105388,58.7828367 Z" id="Fill-9" fill="#231F20"></path>
    </g>
</svg>