<?xml version="1.0" encoding="UTF-8"?>
<svg width="90px" height="90px" viewBox="0 0 90 90" version="1.1" xmlns="http://www.w3.org/2000/svg" xmlns:xlink="http://www.w3.org/1999/xlink">
    <title>Artboard</title>
    <g id="Artboard" stroke="none" stroke-width="1" fill="none" fill-rule="evenodd" fill-opacity="0.488585145">
        <g id="Group-13-Copy-3" transform="translate(4, 5)" fill="#000000">
            <path d="M82,52.9424599 L82,54.5157486 C81.2993819,56.5529314 79.0588593,57.5759369 77.081122,56.4366951 C75.9732724,55.7985516 75.1202902,53.6104507 74.3777292,52.4838205 C66.4205571,40.4108005 52.8445308,30.9166287 37.5511986,32.490548 C25.668939,33.7134463 14.4109013,42.0278092 8.08907527,51.6970711 C6.62043089,53.943185 5.06918462,58.6973123 1.37371329,56.3784719 C-1.68619433,54.4585763 1.12868956,50.6467406 2.48263288,48.5502835 C9.63689762,37.4748358 22.0562835,28.2589585 35.4934273,26.378579 C55.2703727,23.6109782 73.215311,36.3765815 82,52.9424599" id="Fill-1"></path>
            <path d="M40.3513583,45.3740221 C33.1295764,46.1568455 29.8046455,55.033185 34.5542158,60.4950954 C38.6979509,65.2605093 46.6279448,64.406692 49.5557967,58.7969126 C53.0260775,52.1478496 47.7835816,44.5685142 40.3513583,45.3740221 M30.5050634,43.496044 C38.4304229,35.5936654 52.1872613,38.5268902 55.9969024,49.0194965 C61.175992,63.284232 45.2287943,75.734632 32.7013209,67.2166227 C24.7530003,61.8120535 23.690893,50.2902455 30.5050634,43.496044" id="Fill-3"></path>
            <path d="M2.55886412,16.0397465 C3.45302139,15.8862878 4.30694363,16.1890987 5.03219546,16.7428471 C7.52309133,18.6442229 9.95251134,21.7605167 12.3827483,23.8486367 C14.4604692,26.915867 10.8907842,30.8258236 7.64236676,28.0560008 C5.24685039,26.01327 3.13890219,23.5021657 0.768507179,21.4166394 C-0.890728477,19.6166328 0.334704061,16.4212321 2.55886412,16.0397465" id="Fill-6"></path>
            <path d="M77.4350787,16.0338292 C79.2384948,15.7422094 81.0280337,17.3785564 80.9996672,19.3011349 C80.98028,20.6253863 80.2756069,21.3489397 79.4627738,22.2082805 C77.3875291,24.4017874 74.8141358,26.4383843 72.6325677,28.5467546 C69.8640782,30.2557372 66.7076409,26.7849657 68.5486069,23.9107971 C70.9615967,21.7500516 73.3788722,18.7827716 75.8747167,16.8052315 C76.3059284,16.4636074 76.8979517,16.1206901 77.4350787,16.0338292" id="Fill-8"></path>
            <path d="M40.8319363,0.00488493592 C42.4533686,-0.0943728444 43.7719215,1.332298 43.913666,3.07122615 C44.1800912,6.34247291 43.7315893,10.0833836 43.8733338,13.4034073 C43.1638359,17.0648692 38.417821,16.7451569 38.0947755,13.1303419 C37.8006219,9.84269416 38.3003147,5.9848467 38.1364651,2.63734611 C38.4339151,1.26073016 39.510087,0.0856117572 40.8319363,0.00488493592" id="Fill-10"></path>
        </g>
    </g>
</svg>