<?xml version="1.0" encoding="UTF-8"?>
<svg width="29px" height="29px" viewBox="0 0 29 29" version="1.1" xmlns="http://www.w3.org/2000/svg" xmlns:xlink="http://www.w3.org/1999/xlink">
    <title>Frame Copy 3</title>
    <defs>
        <path d="M0,0 L29,0 L29,29 L0,29 L0,0 Z" id="path-1"></path>
    </defs>
    <g id="Frame-Copy-3" stroke="none" fill="none" xlink:href="#path-1" fill-rule="evenodd" stroke-width="1">
        <g id="Group-7-Copy" fill="#384454">
            <path d="M18.4830441,10.8397434 C18.4814436,6.6592636 15.0680038,3.24182381 10.889604,3.23741961 C6.70688428,3.23302381 3.28376448,6.6847836 3.28800055,10.9027034 C3.29208448,15.0767831 6.71856428,18.4922229 10.896884,18.486949 C15.0672038,18.4817429 18.4846436,15.0367831 18.4830441,10.8397434 M21.6734763,10.8095034 C21.6880034,16.824703 16.8730437,21.6583827 10.846644,21.6785237 C4.87488439,21.6983827 0.00552467878,16.838463 1.13686838e-13,10.8528634 C-0.00551532057,4.88294371 4.87368439,0.0120639993 10.871444,-3.84624223e-05 C16.8647237,-0.0120159993 21.6588034,4.78550371 21.6734763,10.8095034" id="Fill-1"></path>
            <path d="M20.0007715,21.7833027 C19.5058115,21.2945827 19.0235715,20.8182628 18.6041316,20.4040228 C19.2122915,19.8043428 19.7930115,19.2316229 20.3974115,18.6357029 C20.7929314,19.0393829 21.2713314,19.5277028 21.7407714,20.0069028 C22.4155713,19.6405028 22.6259713,19.6712228 23.1409313,20.1860228 C24.8865312,21.9313027 26.6323711,23.6764226 28.377571,25.4220225 C28.894611,25.9391425 28.892691,26.3341024 28.371971,26.8554624 C27.835251,27.3929024 27.2999711,27.9317823 26.7603711,28.4662623 C26.3557311,28.8670623 25.9038111,28.8657823 25.4991712,28.4617023 C23.7032513,26.6678624 21.9090914,24.8721825 20.1146915,23.0768226 C19.6774915,22.6394627 19.6468515,22.3304227 20.0007715,21.7833027" id="Fill-4"></path>
        </g>
    </g>
</svg>