<?xml version="1.0" encoding="UTF-8"?>
<svg width="41px" height="38px" viewBox="0 0 41 38" version="1.1" xmlns="http://www.w3.org/2000/svg" xmlns:xlink="http://www.w3.org/1999/xlink">
    <title>Frame 8</title>
    <g id="Frame-8" stroke="none" fill="none" fill-rule="evenodd" stroke-width="1">
        <g id="Group-7" transform="translate(4.382, 3.3829)" fill="#FFFFFF">
            <path d="M21.7906812,12.617639 C21.7887611,7.60383525 17.6939274,3.50517346 12.6814318,3.49989134 C7.66375375,3.4946193 3.55730772,7.63444232 3.56238939,12.6931493 C3.56728857,17.6992773 7.67776533,21.7955404 12.690165,21.7892153 C17.6929677,21.7829714 21.7925999,17.6513038 21.7906812,12.617639 M25.6179903,12.5813711 C25.6354173,19.7956222 19.859291,25.5928328 12.6298961,25.6169887 C5.46604841,25.6408063 -0.375337249,19.8121251 -0.381964769,12.6333743 C-0.388581062,5.47342918 5.46460886,-0.368396781 12.6596467,-0.38291171 C19.8493101,-0.397276812 25.6003883,5.3565658 25.6179903,12.5813711" id="Fill-1"></path>
            <path d="M23.2676361,25.3456671 C22.6830264,24.7667358 22.1134407,24.2024934 21.6180296,23.7117901 C22.3363426,23.001417 23.0222455,22.3229805 23.7361175,21.6170615 C24.2032761,22.0952555 24.7683263,22.6737129 25.3227936,23.241367 C26.1198168,22.8073343 26.3683255,22.8437248 26.9765576,23.4535502 C29.0383294,25.5209859 31.1003847,27.5882322 33.1616841,29.656047 C33.772373,30.2686206 33.7701053,30.736485 33.1550698,31.3540812 C32.5211364,31.9907256 31.8889038,32.6290758 31.2515688,33.2622137 C30.7736383,33.7369962 30.2398643,33.7354799 29.7619339,33.256812 C27.6407278,31.1318527 25.5216006,29.0047138 23.4021898,26.8779539 C22.885802,26.359863 22.8496123,25.9937782 23.2676361,25.3456671" id="Fill-4"></path>
        </g>
    </g>
</svg>