<?xml version="1.0" encoding="UTF-8"?>
<svg width="20px" height="20px" viewBox="0 0 20 20" version="1.1" xmlns="http://www.w3.org/2000/svg" xmlns:xlink="http://www.w3.org/1999/xlink">
    <title>Group 3</title>
    <defs>
        <polygon id="path-1" points="0 0 20 0 20 20 0 20"></polygon>
    </defs>
    <g id="Page-1" stroke="none" stroke-width="1" fill="none" fill-rule="evenodd">
        <g id="Champion_Product-detail-page" transform="translate(-988, -631)">
            <g id="Group-3" transform="translate(988, 631)">
                <mask id="mask-2" fill="white">
                    <use xlink:href="#path-1"></use>
                </mask>
                <g id="Clip-2"></g>
                <path d="M18.281197,5.80620213 C16.9342291,4.46372699 15.5763412,3.11042451 14.2339138,1.77253236 C13.8026841,2.20155841 13.3598445,2.64209924 12.8927509,3.1068154 C12.941604,3.14571361 13.0086765,3.18959583 13.0643117,3.24482097 C13.6791143,3.85527651 14.2947791,4.46498732 14.9048114,5.08019772 C15.2732217,5.45176441 15.1770672,6.02125939 14.7202614,6.21953141 C14.4478332,6.3377728 14.1605191,6.27418368 13.918035,6.03363349 C13.2977723,5.41848037 12.679866,4.80092118 12.0605229,4.18490875 C12.0120146,4.1366154 11.9594831,4.09227488 11.9304011,4.06575077 C11.4925618,4.50096386 11.0678842,4.92311541 10.6325163,5.35586514 C11.0162722,5.73682698 11.413937,6.12832972 11.807636,6.523728 C12.0136813,6.73076501 12.0737995,6.98036662 11.970748,7.25351339 C11.87126,7.51715044 11.6690079,7.66701453 11.3873264,7.69468439 C11.1496126,7.7180004 10.9579358,7.61946591 10.7929271,7.45195727 C10.4125621,7.06583956 10.0281165,6.68367469 9.66758016,6.3221906 C9.22566022,6.76261685 8.80121247,7.18551314 8.34745282,7.63768333 C8.39429438,7.67434733 8.46153932,7.71702651 8.51665718,7.77179336 C9.12140183,8.37210901 9.72534184,8.97322669 10.3272128,9.57634943 C10.6574601,9.907242 10.6810821,10.3101449 10.3930783,10.6029986 C10.105362,10.8956231 9.68217863,10.8718488 9.34750575,10.540899 C8.98604984,10.183425 8.62677795,9.82365954 8.26693132,9.46458153 C7.96840977,9.16674384 7.67040549,8.86833329 7.4088974,8.60698774 C6.9677821,9.04334658 6.53885135,9.46773234 6.0918162,9.9099918 C6.13245053,9.94402057 6.19687923,9.99070988 6.25268678,10.0459923 C6.59333699,10.3838167 6.93565396,10.7200943 7.27015442,11.0638765 C7.49361453,11.2935994 7.53091535,11.6093107 7.38314891,11.8748956 C7.23900335,12.1338923 6.95806894,12.2802619 6.65604146,12.2083088 C6.51183843,12.1739363 6.36510652,12.0838231 6.25613524,11.9805337 C5.86255119,11.6076494 5.4844852,11.2183809 5.11435067,10.8490484 C4.67386759,11.2871259 4.24947731,11.7092201 3.78307332,12.173077 C3.85704275,12.2293333 3.95072587,12.2858761 4.02636205,12.3605217 C4.62771572,12.9540774 5.22837969,13.5483779 5.82341119,14.1482352 C6.13561162,14.4629727 6.11538066,14.9237933 5.79059336,15.1863992 C5.50511848,15.4172678 5.12751229,15.3899417 4.8389338,15.1052228 C4.2170618,14.491731 3.59996018,13.8734271 2.9805021,13.257472 C2.92716595,13.2044237 2.87084113,13.1544118 2.85112744,13.1359079 C2.45777329,13.526895 2.0839604,13.8985763 1.72394135,14.2565086 C3.06464449,15.5917655 4.42310719,16.9447242 5.7685807,18.284736 C9.93259419,14.1320801 14.1084474,9.96756573 18.281197,5.80620213 M14.227764,0 C14.4209927,0.108044214 14.6075543,0.166305596 14.7307792,0.288213384 C16.4152361,1.95447745 18.0922214,3.62830346 19.7676549,5.30361895 C20.0970977,5.63302204 20.0726711,6.02080109 19.7168477,6.37552525 C15.6919795,10.3883997 11.6668814,14.4011022 7.64184076,18.413862 C7.1957252,18.8586422 6.75081659,19.3045107 6.30326417,19.7478014 C5.96611989,20.0817302 5.58075467,20.0857976 5.24280575,19.7495773 C3.57834984,18.0936249 1.91584805,16.4357249 0.254610706,14.7765644 C-0.0980516369,14.4243036 -0.0827059971,14.0445448 0.290359725,13.6725771 C4.38120842,9.59405127 8.47228701,5.51581183 12.5633081,1.4375151 C12.9435007,1.05844375 13.3151295,0.670206397 13.7087711,0.305571495 C13.8465944,0.177934958 14.0386736,0.108502514 14.227764,0" id="Fill-1" fill="#000000" mask="url(#mask-2)"></path>
            </g>
        </g>
    </g>
</svg>