<?xml version="1.0" encoding="UTF-8"?>
<svg width="45px" height="45px" viewBox="0 0 45 45" version="1.1" xmlns="http://www.w3.org/2000/svg" xmlns:xlink="http://www.w3.org/1999/xlink">
    <title>Artboard</title>
    <g id="Artboard" stroke="none" stroke-width="1" fill="none" fill-rule="evenodd">
        <g id="subscribe_icon" transform="translate(2, 4)" fill="#FFFFFF" fill-rule="nonzero">
            <path d="M13.8,35.3262745 C13.8,35.5761121 13.9364359,35.8052281 14.1533912,35.9219762 C14.3701809,36.0386401 14.6337746,36.0236465 14.8363989,35.8825548 L19.4,32.7140145 L13.8000828,30 L13.8000828,35.3262745 L13.8,35.3262745 Z" id="XMLID_53_"></path>
            <path d="M40.7869675,0.176274544 C40.6616489,0.0605554905 40.499886,0 40.3363837,0 C40.2378185,0 40.1395017,0.0218995199 40.046486,0.067689425 L0.654693544,19.4195651 C0.252067093,19.6177392 -0.00271154516,20.0295165 0,20.4799498 C0.00275509662,20.9298025 0.261840786,21.3387594 0.667366214,21.532537 L11.0491816,26.4868056 L31.8075114,9.39937346 L13.6214022,27.7141742 L26.5545656,33.885857 C26.7134295,33.9620906 26.8868711,34 27.0584906,34 C27.2049303,34 27.349962,33.9732892 27.4880361,33.9189552 C27.7892812,33.7996692 28.0286538,33.5607653 28.1481745,33.2589833 L40.9530374,0.907419877 C41.0544188,0.652837959 40.9883221,0.361756841 40.7869675,0.176274544 Z" id="XMLID_52_"></path>
        </g>
    </g>
</svg>