<?xml version="1.0" encoding="UTF-8"?>
<svg width="32px" height="32px" viewBox="0 0 32 32" version="1.1" xmlns="http://www.w3.org/2000/svg" xmlns:xlink="http://www.w3.org/1999/xlink">
    <title>Frame 2 Copy 2</title>
    <defs>
        <path d="M0,0 L32,0 L32,32 L0,32 L0,0 Z" id="path-1"></path>
    </defs>
    <g id="Frame-2-Copy-2" stroke="none" fill="none" xlink:href="#path-1" fill-rule="evenodd" stroke-width="1">
        <g id="svgexport-18-copia" transform="translate(3, 1)" fill="#FF4604">
            <path d="M19.8483643,0 L14.5219563,0 L14.5219563,20.2763907 C14.5219563,22.6923163 12.4735347,24.6767628 9.92415203,24.6767628 C7.37481449,24.6767628 5.32625742,22.6923163 5.32625742,20.2763907 C5.32625742,17.9036279 7.32930404,15.9621953 9.78760563,15.8760186 L9.78760563,10.7853247 C4.37026713,10.8715609 0,15.0562233 0,20.2763907 C0,25.5395721 4.46130307,29.7674419 9.96969257,29.7674419 C15.478067,29.7674419 19.9392647,25.4964093 19.9392647,20.2763907 L19.9392647,9.87932279 C21.9423866,11.2598623 24.400613,12.0795386 26.9954911,12.1227163 L26.9954911,7.03202233 C22.9893978,6.90259349 19.8483643,3.79642047 19.8483643,0 Z" id="Path" fill-rule="nonzero"></path>
        </g>
    </g>
</svg>