<?xml version="1.0" encoding="UTF-8"?>
<svg width="74px" height="74px" viewBox="0 0 74 74" version="1.1" xmlns="http://www.w3.org/2000/svg" xmlns:xlink="http://www.w3.org/1999/xlink">
    <title>z copy 10</title>
    <g id="z-copy-10" stroke="none" stroke-width="1" fill="none" fill-rule="evenodd">
        <g id="Group-10" transform="translate(7, 7)" fill="#231F20">
            <path d="M56.3109848,20.8384197 L36.3027411,29.7589325 L38.0923997,23.9291975 L57.2085209,18.2785793 C56.9607342,18.9024504 56.8118591,20.4753481 56.3109848,20.8384197 L56.3109848,20.8384197 Z M29.7322758,43.5431647 C29.6820869,44.5541846 31.1071144,45.2352111 31.7195322,45.9900445 C36.2204087,51.5377155 30.5518781,59.5867215 23.6739633,57.1796704 C17.421662,54.9915649 17.518318,45.8508689 23.7401675,43.7661606 C24.5364235,43.4992856 26.4208208,43.4294165 26.8243625,42.8482994 L29.7811113,35.3811981 C30.3939803,33.8300149 28.499658,32.8294584 27.6408068,34.3003091 L26.5558234,36.9062788 L26.1368304,32.8034685 L39.2143763,3.90051635 C39.6092335,3.28868388 41.1259546,3.20542606 41.8220582,2.92955015 L29.7322758,43.5431647 Z M23.7346411,33.6261457 L17.5961391,33.0691059 C16.5257048,33.266562 16.733566,34.6346905 16.5412691,35.4130386 C14.6506686,43.0633071 3.95185289,42.7557032 2.51182507,35.2906271 C1.24525924,28.7249604 8.95822781,24.1814462 14.106034,28.4111684 C14.784205,28.9684333 15.5297082,30.344325 16.3938602,30.3464627 L25.8484414,27.5339236 C25.3128295,29.5761029 23.6031348,31.4420906 23.7346411,33.6261457 L23.7346411,33.6261457 Z M58.6679476,15.3300148 L38.8871895,21.2064418 L44.7305355,1.67134448 C44.8514401,0.865881326 44.7360619,0.457918009 44.0543946,0 L43.2323111,0 L38.1812736,1.4639875 L37.4286651,2.11913653 L27.2286936,24.6917941 L16.8566135,27.7604073 C16.604541,27.7455559 16.2458874,27.1221349 15.9847921,26.8883379 C11.6523024,23.0094236 4.87465267,23.8212999 1.62793581,28.6203256 C-1.49719976,33.2396719 0.0365516781,39.4889589 4.8645021,42.1997885 C10.6188614,45.430867 17.8429107,41.9503526 18.9234955,35.5041721 L24.0370154,36.0791011 L24.5546946,41.1215997 C21.8578003,41.5646664 19.4051966,43.2043954 18.0036281,45.5420274 C13.3694409,53.2708283 20.9313915,62.4378518 29.4339618,59.405242 C36.1978518,56.9926779 37.8479965,47.9485159 32.3625146,43.3494215 L35.3933626,32.8365466 L58.0209051,22.6613159 L58.6776471,21.9105329 L60.1451942,16.8718596 L60.1451942,16.0516576 C59.7972552,15.5460351 59.3229979,15.1909518 58.6679476,15.3300148 L58.6679476,15.3300148 Z" id="Fill-1"></path>
            <path d="M26.2441558,52.2481523 C24.0374214,52.3617879 23.7789202,49.0895306 25.8197491,48.7683129 C28.3132935,48.3758761 28.5838626,52.1276535 26.2441558,52.2481523 M23.1896231,53.3861967 C27.0336447,57.2825501 32.9276308,51.3488553 29.0084949,47.5229335 C25.186015,43.791183 19.4439492,49.5895276 23.1896231,53.3861967" id="Fill-3"></path>
            <path d="M29.1787425,30.620516 C28.1045864,31.6812656 29.5655921,33.3529476 30.7254642,32.4566884 C32.0440235,31.4379052 30.3045538,29.508799 29.1787425,30.620516" id="Fill-5"></path>
            <path d="M10.8920246,35.3431133 C9.1352989,37.2017878 6.48396948,34.0846826 8.64254502,32.688764 C10.4044588,31.549482 12.2271631,33.9304306 10.8920246,35.3431133 M9.49801267,30.0267639 C4.11245749,30.1436624 4.26212204,38.3781983 9.67993348,38.2680505 C15.088835,38.1582402 14.9154858,29.9091904 9.49801267,30.0267639" id="Fill-7"></path>
        </g>
    </g>
</svg>