<?xml version="1.0" encoding="UTF-8"?>
<svg width="74px" height="74px" viewBox="0 0 74 74" version="1.1" xmlns="http://www.w3.org/2000/svg" xmlns:xlink="http://www.w3.org/1999/xlink">
    <title>z copy 11</title>
    <g id="z-copy-11" stroke="none" stroke-width="1" fill="none" fill-rule="evenodd">
        <g id="Group-15" transform="translate(17, 7)" fill="#231F20">
            <path d="M33.443662,5.98508284 L30.5653514,5.98508284 C30.9239713,7.74937454 32.1155181,9.48714679 33.615249,10.4379973 L33.443662,5.98508284 Z M28.4930686,5.98508284 L21.4700874,5.98508284 L21.4849029,16.3379324 L28.1561992,57.8743357 L36.0983737,56.9957721 L33.7905135,12.9804422 C31.174049,11.5289303 28.994485,9.04957593 28.4930686,5.98508284 L28.4930686,5.98508284 Z M19.3976995,5.98508284 L17.5556354,5.98508284 L17.5556354,10.6126193 C17.5556354,10.8819841 18.0646171,12.1977978 18.224961,12.5088666 C18.4916406,13.0264235 18.9250736,13.6165881 19.3976995,13.9515031 L19.3976995,5.98508284 Z M15.4832475,5.98508284 L12.3747183,5.98508284 C11.8673126,9.03396368 9.70256415,11.5556636 7.07433125,12.9758441 L4.78265255,57.0573656 L12.7115877,57.8743357 L19.2580553,16.4349209 C17.7272223,15.5576405 16.4400575,13.8659565 15.9111116,12.1688188 C15.7853372,11.7651458 15.4832475,10.6227779 15.4832475,10.2611297 L15.4832475,5.98508284 Z M10.3023304,5.98508284 L7.42412485,5.98508284 L7.2525379,10.4379973 C8.75226877,9.48714679 9.9438156,7.74937454 10.3023304,5.98508284 L10.3023304,5.98508284 Z M33.2134434,2.0019262 L21.4700874,2.0019262 L21.4700874,3.99345105 L33.3285002,3.99345105 L33.2134434,2.0019262 Z M17.5556354,3.99355799 L19.3976995,3.99355799 L19.3976995,2.0019262 L17.5556354,2.0019262 L17.5556354,3.99355799 Z M15.4832475,2.0019262 L7.65434347,2.0019262 L7.53918162,3.99345105 L15.4832475,3.99345105 L15.4832475,2.0019262 Z M12.7200987,59.9923626 C12.7038121,59.9914002 12.5920127,59.8807243 12.4417559,59.8702448 C9.84168302,59.6885652 6.19443591,59.5215355 3.70931472,59.0277177 C3.12793654,58.9121229 2.83645938,58.6476769 2.70805813,58.0490646 L5.72737897,0.68279762 C5.88152352,0.280942465 6.22038935,-0.00595944614 6.66853285,0.00248828064 L34.199254,0.00248828064 C34.4352518,-0.0165458379 34.6092554,0.0758444904 34.795868,0.203522791 C35.4182254,0.629544861 35.232033,2.82263889 35.2809978,3.58828097 C36.4399715,21.6944328 37.0416291,39.8017609 38.1719174,57.9399927 C38.082709,58.5896122 37.7836665,58.9036752 37.1584722,59.0277177 C34.6346835,59.5283792 30.9523414,59.685678 28.3108691,59.8702448 C28.1606123,59.8807243 28.0488129,59.9914002 28.0325263,59.9923626 L26.9963849,59.9923626 L26.4344456,59.4508526 L20.490266,22.7372459 C20.2174921,22.6533033 20.343897,22.9874697 20.3163674,23.1431645 C18.1875545,35.2120789 16.6092277,47.3944494 14.4332363,59.4508526 L13.871402,59.9923626 C13.4908215,59.975681 13.0998386,60.0159948 12.7200987,59.9923626 L12.7200987,59.9923626 Z" id="Fill-13"></path>
            <path d="M1.78626951,20.9659714 L0.577910723,20.9659714 C0.258798929,20.9659714 0,21.2292411 0,21.5541043 C0,21.8789675 0.258798929,22.1422372 0.577910723,22.1422372 L1.78626951,22.1422372 C2.1053813,22.1422372 2.36418023,21.8789675 2.36418023,21.5541043 C2.36418023,21.2292411 2.1053813,20.9659714 1.78626951,20.9659714" id="Fill-16"></path>
            <path d="M16.6301166,20.9659714 L14.354094,20.9659714 C14.0349822,20.9659714 13.7761833,21.2292411 13.7761833,21.5541043 C13.7761833,21.8789675 14.0349822,22.1422372 14.354094,22.1422372 L16.6301166,22.1422372 C16.9492284,22.1422372 17.2080273,21.8789675 17.2080273,21.5541043 C17.2080273,21.2292411 16.9492284,20.9659714 16.6301166,20.9659714" id="Fill-18"></path>
            <path d="M6.73422554,20.9659714 L4.45820296,20.9659714 C4.13909117,20.9659714 3.88029224,21.2292411 3.88029224,21.5541043 C3.88029224,21.8789675 4.13909117,22.1422372 4.45820296,22.1422372 L6.73422554,22.1422372 C7.05333733,22.1422372 7.31213626,21.8789675 7.31213626,21.5541043 C7.31213626,21.2292411 7.05333733,20.9659714 6.73422554,20.9659714" id="Fill-20"></path>
            <path d="M11.6821711,20.9659714 L9.40614848,20.9659714 C9.08703669,20.9659714 8.82823776,21.2292411 8.82823776,21.5541043 C8.82823776,21.8789675 9.08703669,22.1422372 9.40614848,22.1422372 L11.6821711,22.1422372 C12.0012829,22.1422372 12.2600818,21.8789675 12.2600818,21.5541043 C12.2600818,21.2292411 12.0012829,20.9659714 11.6821711,20.9659714" id="Fill-22"></path>
            <path d="M26.5259236,20.9659714 L24.249901,20.9659714 C23.9307892,20.9659714 23.6719903,21.2292411 23.6719903,21.5541043 C23.6719903,21.8789675 23.9307892,22.1422372 24.249901,22.1422372 L26.5259236,22.1422372 C26.8450354,22.1422372 27.1038343,21.8789675 27.1038343,21.5541043 C27.1038343,21.2292411 26.8450354,20.9659714 26.5259236,20.9659714" id="Fill-24"></path>
            <path d="M36.4218146,20.9659714 L34.145792,20.9659714 C33.8266802,20.9659714 33.5678813,21.2292411 33.5678813,21.5541043 C33.5678813,21.8789675 33.8266802,22.1422372 34.145792,22.1422372 L36.4218146,22.1422372 C36.7409264,22.1422372 36.9997253,21.8789675 36.9997253,21.5541043 C36.9997253,21.2292411 36.7409264,20.9659714 36.4218146,20.9659714" id="Fill-26"></path>
            <path d="M31.4738691,20.9659714 L29.1978465,20.9659714 C28.8787347,20.9659714 28.6199358,21.2292411 28.6199358,21.5541043 C28.6199358,21.8789675 28.8787347,22.1422372 29.1978465,22.1422372 L31.4738691,22.1422372 C31.7929809,22.1422372 32.0517798,21.8789675 32.0517798,21.5541043 C32.0517798,21.2292411 31.7929809,20.9659714 31.4738691,20.9659714" id="Fill-28"></path>
            <path d="M21.5779675,20.9659714 L19.301945,20.9659714 C18.9828332,20.9659714 18.7240342,21.2292411 18.7240342,21.5541043 C18.7240342,21.8789675 18.9828332,22.1422372 19.301945,22.1422372 L21.5779675,22.1422372 C21.8970793,22.1422372 22.1558783,21.8789675 22.1558783,21.5541043 C22.1558783,21.2292411 21.8970793,20.9659714 21.5779675,20.9659714" id="Fill-30"></path>
            <path d="M40.3019913,20.9659714 L39.0936325,20.9659714 C38.7745207,20.9659714 38.5157218,21.2292411 38.5157218,21.5541043 C38.5157218,21.8789675 38.7745207,22.1422372 39.0936325,22.1422372 L40.3019913,22.1422372 C40.6211031,22.1422372 40.879902,21.8789675 40.879902,21.5541043 C40.879902,21.2292411 40.6211031,20.9659714 40.3019913,20.9659714" id="Fill-32"></path>
        </g>
    </g>
</svg>