<?xml version="1.0" encoding="UTF-8"?>
<svg width="41px" height="38px" viewBox="0 0 41 38" version="1.1" xmlns="http://www.w3.org/2000/svg" xmlns:xlink="http://www.w3.org/1999/xlink">
    <title>Frame</title>
    <defs>
        <path d="M0,0 L41,0 L41,38 L0,38 L0,0 Z" id="path-1"></path>
    </defs>
    <g id="Frame" stroke="none" fill="none" xlink:href="#path-1" fill-rule="evenodd">
        <path d="M21.0000478,33.3045517 C14.7561903,33.3045517 9.67652611,31.5397069 9.67652611,29.3705449 C9.67652611,23.0825453 14.7561903,17.9669694 21.0000478,17.9669694 C27.2438097,17.9669694 32.3234739,23.0825453 32.3234739,29.3705449 C32.3234739,31.5397069 27.2438097,33.3045517 21.0000478,33.3045517 M15.7490859,9.98343658 C15.7490859,7.06763537 18.1046201,4.69544832 21.0000478,4.69544832 C23.8953799,4.69544832 26.2509141,7.06763537 26.2509141,9.98343658 C26.2509141,12.8993341 23.8953799,15.2715211 21.0000478,15.2715211 C18.1046201,15.2715211 15.7490859,12.8993341 15.7490859,9.98343658 M25.9755187,16.1924018 C27.7743354,14.7276182 28.9274402,12.4890483 28.9274402,9.98343658 C28.9274402,5.58138442 25.3711973,2 21.0000478,2 C16.6288027,2 13.0725598,5.58138442 13.0725598,9.98343658 C13.0725598,12.4890483 14.2256646,14.7276182 16.0244813,16.1924018 C10.7541146,18.2173573 7,23.3602727 7,29.3705449 C7,30.9371779 7.83842181,33.1154852 11.8326591,34.5965378 C14.2734597,35.5015346 17.529167,36 21.0000478,36 C24.4709286,36 27.7266359,35.5015346 30.1673409,34.5965378 C34.1615782,33.1154852 35,30.9371779 35,29.3705449 C35,23.3602727 31.2459809,18.2173573 25.9755187,16.1924018" id="Fill-1-Copy" fill="#FFFFFF"></path>
    </g>
</svg>