<?xml version="1.0" encoding="UTF-8"?>
<svg width="62px" height="35px" viewBox="0 0 62 35" version="1.1" xmlns="http://www.w3.org/2000/svg" xmlns:xlink="http://www.w3.org/1999/xlink">
    <title>Artboard</title>
    <g id="Artboard" stroke="none" stroke-width="1" fill="none" fill-rule="evenodd">
        <g id="visa-10" transform="translate(0, 7)" fill="#FFFFFF" fill-rule="nonzero">
            <path d="M40.4255468,0 C36.0480284,0 32.0430648,2.32846722 32.0430648,6.61284691 C32.0430648,10.8972266 39.0284665,11.9217522 39.0284665,14.3433581 C39.0284665,16.764964 37.8176635,16.2992705 35.8617511,16.2992705 C32.9744517,16.2992705 30.8322619,14.9953289 30.8322619,14.9953289 L29.900875,19.3728473 C29.900875,19.3728473 32.3224809,20.4905115 35.582335,20.4905115 C40.4255468,20.4905115 44.2442331,18.0689056 44.2442331,13.6913873 C44.2442331,9.31386888 37.1656927,8.19620462 37.1656927,5.86773739 C37.1656927,3.53927017 38.0970796,4.191241 40.1461308,4.191241 C42.1951819,4.191241 44.2442331,5.12262788 44.2442331,5.12262788 L45.1756199,0.931386888 C45.1756199,0.931386888 43.1265688,0.0931386888 40.3324081,0.0931386888 L40.4255468,0 Z M0.00335587658,0.372554755 L0.00335587658,1.02452558 C-0.0897828122,1.02452558 1.77299096,1.39708033 3.44948736,2.04905115 C5.59167721,2.79416066 5.77795458,3.25985411 6.15050934,4.75007313 L10.155473,20.2110955 L15.4643782,20.2110955 L23.5674441,0.372554755 L18.2585389,0.372554755 L13.0427723,13.8776646 L10.9005825,2.42160591 C10.7143051,1.11766427 9.68977951,0.372554755 8.47897656,0.372554755 L0.00335587658,0.372554755 Z M25.709634,0.372554755 L21.518393,20.2110955 L26.5478822,20.2110955 L30.7391232,0.372554755 L25.709634,0.372554755 L25.709634,0.372554755 Z M53.837518,0.372554755 C52.6267151,0.372554755 51.9747442,1.02452558 51.5090508,2.23532853 L44.1510944,20.2110955 L49.4599996,20.2110955 L50.4845252,17.2306574 L56.9110947,17.2306574 L57.5630656,20.2110955 L62.22,20.2110955 L58.1218977,0.372554755 L53.837518,0.372554755 Z M54.4894888,5.68146002 L56.0728465,13.1325551 L51.8816055,13.1325551 L54.4894888,5.68146002 Z" id="Shape"></path>
        </g>
    </g>
</svg>