<?xml version="1.0" encoding="UTF-8"?>
<svg width="46px" height="46px" viewBox="0 0 46 46" version="1.1" xmlns="http://www.w3.org/2000/svg" xmlns:xlink="http://www.w3.org/1999/xlink">
    <title>Grupo</title>
    <g id="Page-1" stroke="none" stroke-width="1" fill="none" fill-rule="evenodd">
        <g id="1_Home" transform="translate(-795, -4524)">
            <g id="Grupo" transform="translate(43, 4513)">
                <g transform="translate(282, 0)">
                    <g transform="translate(470, 11)">
                        <circle id="Óvalo-2" fill="#262626" cx="23" cy="23" r="23"></circle>
                        <path d="M8.85916128,17.3810533 C9.532707,22.3473256 15.9506663,29.4155403 20.0422231,32.1737752 C22.8862956,34.0909718 28.9780174,36.7503589 32.385972,36.0912149 C34.8637008,35.6120643 37.109771,33.9364033 37.5978702,31.3998631 C37.7224989,30.7522435 37.9400304,29.4297972 37.3684863,29.0203865 C35.5929164,28.2296038 33.8476356,27.1445349 32.0464455,26.4294325 C30.9720767,26.0030324 30.493196,25.7854959 29.6392319,26.7293027 C28.998729,27.437039 28.0097206,29.4287279 27.0508817,29.5659506 C26.3565047,29.6651548 25.9313783,29.4593802 25.3221223,29.212023 C23.0274457,28.2805722 20.4825539,26.382266 18.8372395,24.5507295 C18.279104,23.9294851 16.136472,21.19418 16.1072603,20.5175713 C16.0775697,19.8281314 17.2147916,18.9583417 17.6412349,18.431074 C18.2453429,17.6840124 18.7425408,17.199159 18.4513813,16.2096113 C18.1703981,15.2542802 16.2904321,10.7129823 15.7730015,10.0487296 C15.2693387,9.40229797 14.2745838,9.44162325 13.5142409,9.50150223 C9.97303782,9.78010582 8.44935912,14.3598974 8.85916128,17.3810533 Z" id="Path" fill="#FFFFFF"></path>
                    </g>
                </g>
            </g>
        </g>
    </g>
</svg>