<?xml version="1.0" encoding="UTF-8"?>
<svg width="188px" height="84px" viewBox="0 0 188 84" version="1.1" xmlns="http://www.w3.org/2000/svg" xmlns:xlink="http://www.w3.org/1999/xlink">
    <title>Group 2</title>
    <g id="Page-1" stroke="none" stroke-width="1" fill="none" fill-rule="evenodd">
        <g id="1_HOME" transform="translate(-866, -44)" fill="#FEFEFE">
            <g id="Group-16" transform="translate(0, -2)">
                <g id="Group-2" transform="translate(866, 46)">
                    <polygon id="Fill-23" points="52.7318091 70.902195 46.5902689 70.902195 46.5902689 73.2331555 52.2344501 73.2331555 52.2344501 76.9765465 46.5902689 76.9765465 46.5902689 79.8742371 52.9450834 79.8742371 52.9450834 83.6165817 42.3707261 83.6165817 42.3707261 67.1359925 52.7318091 67.1359925"></polygon>
                    <path d="M64.7198038,78.766581 C64.7198038,77.6126111 63.3453228,77.3549875 61.6857034,77.2595558 C58.0825906,76.9996301 55.7112843,75.7757608 55.6630236,72.1981195 C55.5209813,65.0861579 68.4192271,65.0861579 68.3239703,72.1981195 L64.2938875,72.1981195 C64.2938875,70.008423 59.8359917,70.1965657 59.6941601,72.15145 C59.5989032,73.3983402 60.8317634,73.6582659 62.3263692,73.8210857 C65.6209508,74.1764431 68.8457757,74.6709717 68.8457757,78.789811 C68.8457757,85.7136299 55.3310997,85.8299896 55.4257244,78.5788568 L59.5280928,78.5788568 C59.5280928,80.6729123 64.7198038,80.6982352 64.7198038,78.766581" id="Fill-24"></path>
                    <polygon id="Fill-25" points="69.8334758 70.902195 69.8334758 67.1359925 82.1624985 67.1359925 82.1624985 70.902195 78.1083908 70.902195 78.1083908 83.6165817 73.9113977 83.6165817 73.9113977 70.902195"></polygon>
                    <path d="M82.6759584,81.6151536 C82.6759584,80.296899 83.720623,79.4258757 85.0476863,79.4258757 C86.3288071,79.4258757 87.3711534,80.296899 87.3711534,81.6151536 C87.3711534,82.9110152 86.3288071,83.7585991 85.0476863,83.7585991 C83.720623,83.7585991 82.6759584,82.9110152 82.6759584,81.6151536" id="Fill-26"></path>
                    <polygon id="Fill-27" points="95.7094607 70.5492444 95.7094607 67.1365157 102.087036 67.1365157 102.087036 80.1782163 104.600384 80.1782163 104.600384 83.6173142 95.4953434 83.6173142 95.4953434 80.1782163 97.9614852 80.1782163 97.9614852 70.5492444"></polygon>
                    <path d="M109.620907,72.5504842 C109.620907,73.7511234 110.451243,74.6221467 111.707918,74.6221467 C113.08282,74.6221467 113.793243,73.8210229 113.793243,72.5504842 C113.793243,71.3967236 113.011378,70.5028888 111.707918,70.5028888 C110.451243,70.5028888 109.620907,71.3967236 109.620907,72.5504842 L109.620907,72.5504842 Z M107.652967,83.7814944 L111.184848,77.8239211 C107.67636,78.0836376 105.400732,75.6829869 105.400732,72.5504842 C105.400732,68.6660384 108.055491,66.8997154 111.707918,66.8997154 C115.335477,66.8997154 118.085282,68.6660384 118.085282,72.5504842 C118.085282,73.6814332 117.872008,74.8356123 117.208581,75.7997652 L112.372187,83.7814944 L107.652967,83.7814944 Z" id="Fill-28"></path>
                    <path d="M124.052641,72.7622127 C127.91771,72.5274006 131.662865,73.30362 131.68668,78.201818 C131.710915,81.0277256 129.695136,83.9465535 125.854092,83.9465535 C122.701131,83.9465535 120.401689,81.921979 120.258172,78.5787313 L123.910388,78.5787313 C123.933991,79.6607088 124.644835,80.2268111 125.759257,80.2268111 C126.921096,80.2268111 127.631307,79.5445584 127.656597,78.201818 C127.608758,77.2129701 127.086952,76.6954207 126.163045,76.4357042 C124.478979,75.9407571 121.77617,76.2940217 120.543731,76.3166239 L120.543731,67.1363483 L130.881,67.1363483 L130.881,70.7139896 L124.052641,70.7139896 L124.052641,72.7622127 Z" id="Fill-29"></path>
                    <path d="M142.941112,78.1783577 L142.941112,72.5742584 C142.941112,71.2783967 141.968733,70.596144 140.712059,70.596144 C139.503434,70.596144 138.554027,71.2783967 138.554027,72.5742584 L138.554027,78.1783577 C138.554027,79.5208888 139.503434,80.2039787 140.712059,80.2039787 C141.968733,80.2039787 142.941112,79.5208888 142.941112,78.1783577 M146.948013,72.5045682 L146.948013,78.2716966 C146.948013,81.8750793 144.150158,83.9465326 140.712059,83.9465326 C137.345191,83.9465326 134.524155,81.8750793 134.524155,78.2716966 L134.524155,72.5045682 C134.524155,68.9007669 137.345191,66.8299415 140.712059,66.8299415 C144.150158,66.8299415 146.948013,68.9007669 146.948013,72.5045682" id="Fill-30"></path>
                    <polygon id="Fill-31" points="0 77.35369 34.5645508 77.35369 34.5645508 74.4934605 0 74.4934605"></polygon>
                    <polygon id="Fill-32" points="153.435449 77.35369 188 77.35369 188 74.4934605 153.435449 74.4934605"></polygon>
                    <polygon id="Fill-33" points="42.7982862 48.6120772 30.5754791 48.6120772 30.5754791 28.4544387 14.3520936 2.46646922 14.3520936 0.614969225 27.6773095 0.614969225 36.447476 16.5907752 36.9302935 16.5907752 45.6966666 0.614969225 59.0931145 0.614969225 59.0931145 2.46646922 42.7982862 28.4544387"></polygon>
                    <path d="M74.4744882,19.4724559 L69.0212422,32.0859696 L80.0674582,32.0859696 L74.4744882,19.4724559 Z M84.0709871,42.5794771 L65.01392,42.5794771 L62.183821,48.6126004 L50.1005273,48.6126004 L50.1005273,46.8284886 L71.8515519,0 L77.1686563,0 L98.9843797,46.8284886 L98.9843797,48.6126004 L86.9048794,48.6126004 L84.0709871,42.5794771 Z" id="Fill-34"></path>
                    <polygon id="Fill-35" points="172.67852 37.5521116 153.491423 37.5521116 153.491423 29.2755069 169.866967 29.2755069 169.866967 18.3741127 153.491423 18.3741127 153.491423 11.5875814 173.640994 11.5875814 173.640994 1.57939416 172.670301 0.615032009 141.200545 0.615032009 141.200545 48.61214 173.648159 48.61214 173.648159 38.5156366"></polygon>
                    <polygon id="Fill-36" points="135.423721 37.5721397 116.544944 37.5721397 116.544944 1.57682002 115.576359 0.615178505 104.114132 0.615178505 104.114132 48.6120772 136.40179 48.6120772 136.40179 38.5431988"></polygon>
                </g>
            </g>
        </g>
    </g>
</svg>