<?xml version="1.0" encoding="UTF-8"?>
<svg width="176px" height="80px" viewBox="0 0 176 80" version="1.1" xmlns="http://www.w3.org/2000/svg" xmlns:xlink="http://www.w3.org/1999/xlink">
    <title>Group</title>
    <g id="Page-1" stroke="none" stroke-width="1" fill="none" fill-rule="evenodd">
        <g id="1_HOME" transform="translate(-145, -6126)">
            <g id="Group-20" transform="translate(0, 5894)">
                <g id="Group" transform="translate(145, 232)">
                    <polygon id="Fill-1" fill="#E02626" points="48.7983099 67.4278531 42.990354 67.4278531 42.990354 69.5494038 48.3279656 69.5494038 48.3279656 72.9564947 42.990354 72.9564947 42.990354 75.5938615 49 75.5938615 49 79 39 79 39 64 48.7983099 64"></polygon>
                    <path d="M60.0033195,75.1134955 C60.0033195,74.0360151 58.6719092,73.7954676 57.0642956,73.7063615 C53.5740899,73.4636646 51.2770907,72.3209179 51.2303423,68.9804159 C51.092751,62.3398614 63.5868178,62.3398614 63.4945459,68.9804159 L59.5907497,68.9804159 C59.5907497,66.9358606 55.2725464,67.1115325 55.1351592,68.9368399 C55.0428873,70.1010815 56.2371146,70.3437784 57.6848854,70.4958059 C60.8762281,70.827609 64,71.2893584 64,75.1351858 C64,81.6000684 50.9088196,81.7087153 51.0004791,74.938019 L54.9742958,74.938019 C54.9742958,76.8934682 60.0033195,76.9171125 60.0033195,75.1134955" id="Fill-2" fill="#E02626"></path>
                    <polygon id="Fill-4" fill="#E02626" points="65 67.4278531 65 64 77 64 77 67.4278531 73.0540836 67.4278531 73.0540836 79 68.9690951 79 68.9690951 67.4278531"></polygon>
                    <path d="M77,77.0211564 C77,75.8041347 78.1124826,75 79.5256968,75 C80.8899861,75 82,75.8041347 82,77.0211564 C82,78.2175047 80.8899861,79 79.5256968,79 C78.1124826,79 77,78.2175047 77,77.0211564" id="Fill-6" fill="#E02626"></path>
                    <polygon id="Fill-8" fill="#E02626" points="89.2116471 67.1062463 89.2116471 64 95.5156467 64 95.5156467 75.8699445 98 75.8699445 98 79 89 79 89 75.8699445 91.437691 75.8699445 91.437691 67.1062463"></polygon>
                    <path d="M101.992424,69.3556145 C101.992424,70.4935413 102.777949,71.3190688 103.966805,71.3190688 C105.267507,71.3190688 105.93959,70.5597898 105.93959,69.3556145 C105.93959,68.2621179 105.19992,67.4149704 103.966805,67.4149704 C102.777949,67.4149704 101.992424,68.2621179 101.992424,69.3556145 L101.992424,69.3556145 Z M100.130688,80 L103.471963,74.3536062 C100.152819,74.5995587 98,72.3244985 98,69.3556145 C98,65.6738651 100.511489,64 103.966805,64 C107.398594,64 110,65.6738651 110,69.3556145 C110,70.4274911 109.798236,71.5213845 109.170613,72.4349788 L104.595225,80 L100.130688,80 Z" id="Fill-10" fill="#E02626"></path>
                    <path d="M115.652128,69.3547134 C119.372208,69.1312186 122.976871,69.8700264 122.999792,74.5321448 C123.023119,77.2218515 121.082957,80 117.386002,80 C114.351317,80 112.138134,78.0730043 112,74.8908919 L115.515211,74.8908919 C115.537929,75.9207211 116.222108,76.4595389 117.294724,76.4595389 C118.412979,76.4595389 119.096548,75.8101688 119.120889,74.5321448 C119.074845,73.5909566 118.572614,73.0983517 117.683365,72.8511528 C116.062473,72.3802599 113.461054,72.716299 112.274848,72.7378119 L112.274848,64 L122.224336,64 L122.224336,67.4052089 L115.652128,67.4052089 L115.652128,69.3547134 Z" id="Fill-12" fill="#E02626"></path>
                    <path d="M134.129801,73.6081747 L134.129801,68.3697196 C134.129801,67.1584076 133.190596,66.520669 131.976795,66.520669 C130.809404,66.520669 129.892387,67.1584076 129.892387,68.3697196 L129.892387,73.6081747 C129.892387,74.8631112 130.809404,75.5016322 131.976795,75.5016322 C133.190596,75.5016322 134.129801,74.8631112 134.129801,73.6081747 M138,68.3045764 L138,73.6954236 C138,77.0637005 135.297598,79 131.976795,79 C128.724793,79 126,77.0637005 126,73.6954236 L126,68.3045764 C126,64.9359083 128.724793,63 131.976795,63 C135.297598,63 138,64.9359083 138,68.3045764" id="Fill-14" fill="#E02626"></path>
                    <polygon id="Fill-16" fill="#E02626" points="0 74 32 74 32 71 0 71"></polygon>
                    <polygon id="Fill-18" fill="#E02626" points="144 74 176 74 176 71 144 71"></polygon>
                    <polygon id="Fill-19" fill="#243D8B" points="39.7034607 46 28.2294735 46 28.2294735 26.6810991 13 1.77446107 13 0 25.5088578 0 33.7417275 15.3110698 34.1949656 15.3110698 42.4242743 0 55 0 55 1.77446107 39.7034607 26.6810991"></polygon>
                    <path d="M69.9360442,18.4259423 L64.8045069,30.3617625 L75.1990628,30.3617625 L69.9360442,18.4259423 Z M78.9664076,40.2911165 L61.0335924,40.2911165 L58.3704523,46 L47,46 L47,44.3117722 L67.4678453,0 L72.4712727,0 L93,44.3117722 L93,46 L81.6331173,46 L78.9664076,40.2911165 Z" id="Fill-20" fill="#243D8B"></path>
                    <polygon id="Fill-21" fill="#243D8B" points="162.103503 35.4001674 144.363743 35.4001674 144.363743 27.4679434 159.504033 27.4679434 159.504033 17.0201444 144.363743 17.0201444 144.363743 10.5159934 162.993375 10.5159934 162.993375 0.924236082 162.095904 0 133 0 133 46 163 46 163 36.3236012"></polygon>
                    <polygon id="Fill-22" fill="#243D8B" points="127.09123 35.4193762 109.55006 35.4193762 109.55006 0.921632664 108.650101 0 98 0 98 46 128 46 128 36.3500347"></polygon>
                </g>
            </g>
        </g>
    </g>
</svg>